%TF.GenerationSoftware,KiCad,Pcbnew,9.0.6*%
%TF.CreationDate,2026-01-01T23:14:20-05:00*%
%TF.ProjectId,rp2040 better,72703230-3430-4206-9265-747465722e6b,rev?*%
%TF.SameCoordinates,Original*%
%TF.FileFunction,Drillmap*%
%TF.FilePolarity,Positive*%
%FSLAX45Y45*%
G04 Gerber Fmt 4.5, Leading zero omitted, Abs format (unit mm)*
G04 Created by KiCad (PCBNEW 9.0.6) date 2026-01-01 23:14:20*
%MOMM*%
%LPD*%
G01*
G04 APERTURE LIST*
%ADD10C,0.050000*%
%ADD11C,0.200000*%
%ADD12C,0.100000*%
G04 APERTURE END LIST*
D10*
X19025000Y-5400000D02*
X21125000Y-5400000D01*
X21125000Y-10500000D01*
X19025000Y-10500000D01*
X19025000Y-5400000D01*
D11*
D12*
X19753500Y-5877500D02*
X19818500Y-5942500D01*
X19818500Y-5877500D02*
X19753500Y-5942500D01*
X20331500Y-5877500D02*
X20396500Y-5942500D01*
X20396500Y-5877500D02*
X20331500Y-5942500D01*
D11*
X19283277Y-10813984D02*
X19283277Y-10613984D01*
X19283277Y-10613984D02*
X19330896Y-10613984D01*
X19330896Y-10613984D02*
X19359467Y-10623508D01*
X19359467Y-10623508D02*
X19378515Y-10642555D01*
X19378515Y-10642555D02*
X19388039Y-10661603D01*
X19388039Y-10661603D02*
X19397563Y-10699698D01*
X19397563Y-10699698D02*
X19397563Y-10728270D01*
X19397563Y-10728270D02*
X19388039Y-10766365D01*
X19388039Y-10766365D02*
X19378515Y-10785412D01*
X19378515Y-10785412D02*
X19359467Y-10804460D01*
X19359467Y-10804460D02*
X19330896Y-10813984D01*
X19330896Y-10813984D02*
X19283277Y-10813984D01*
X19483277Y-10813984D02*
X19483277Y-10680650D01*
X19483277Y-10718746D02*
X19492801Y-10699698D01*
X19492801Y-10699698D02*
X19502324Y-10690174D01*
X19502324Y-10690174D02*
X19521372Y-10680650D01*
X19521372Y-10680650D02*
X19540420Y-10680650D01*
X19607086Y-10813984D02*
X19607086Y-10680650D01*
X19607086Y-10613984D02*
X19597563Y-10623508D01*
X19597563Y-10623508D02*
X19607086Y-10633031D01*
X19607086Y-10633031D02*
X19616610Y-10623508D01*
X19616610Y-10623508D02*
X19607086Y-10613984D01*
X19607086Y-10613984D02*
X19607086Y-10633031D01*
X19730896Y-10813984D02*
X19711848Y-10804460D01*
X19711848Y-10804460D02*
X19702324Y-10785412D01*
X19702324Y-10785412D02*
X19702324Y-10613984D01*
X19835658Y-10813984D02*
X19816610Y-10804460D01*
X19816610Y-10804460D02*
X19807086Y-10785412D01*
X19807086Y-10785412D02*
X19807086Y-10613984D01*
X20064229Y-10813984D02*
X20064229Y-10613984D01*
X20064229Y-10613984D02*
X20130896Y-10756841D01*
X20130896Y-10756841D02*
X20197563Y-10613984D01*
X20197563Y-10613984D02*
X20197563Y-10813984D01*
X20378515Y-10813984D02*
X20378515Y-10709222D01*
X20378515Y-10709222D02*
X20368991Y-10690174D01*
X20368991Y-10690174D02*
X20349944Y-10680650D01*
X20349944Y-10680650D02*
X20311848Y-10680650D01*
X20311848Y-10680650D02*
X20292801Y-10690174D01*
X20378515Y-10804460D02*
X20359467Y-10813984D01*
X20359467Y-10813984D02*
X20311848Y-10813984D01*
X20311848Y-10813984D02*
X20292801Y-10804460D01*
X20292801Y-10804460D02*
X20283277Y-10785412D01*
X20283277Y-10785412D02*
X20283277Y-10766365D01*
X20283277Y-10766365D02*
X20292801Y-10747317D01*
X20292801Y-10747317D02*
X20311848Y-10737793D01*
X20311848Y-10737793D02*
X20359467Y-10737793D01*
X20359467Y-10737793D02*
X20378515Y-10728270D01*
X20473753Y-10680650D02*
X20473753Y-10880650D01*
X20473753Y-10690174D02*
X20492801Y-10680650D01*
X20492801Y-10680650D02*
X20530896Y-10680650D01*
X20530896Y-10680650D02*
X20549944Y-10690174D01*
X20549944Y-10690174D02*
X20559467Y-10699698D01*
X20559467Y-10699698D02*
X20568991Y-10718746D01*
X20568991Y-10718746D02*
X20568991Y-10775889D01*
X20568991Y-10775889D02*
X20559467Y-10794936D01*
X20559467Y-10794936D02*
X20549944Y-10804460D01*
X20549944Y-10804460D02*
X20530896Y-10813984D01*
X20530896Y-10813984D02*
X20492801Y-10813984D01*
X20492801Y-10813984D02*
X20473753Y-10804460D01*
X20654705Y-10794936D02*
X20664229Y-10804460D01*
X20664229Y-10804460D02*
X20654705Y-10813984D01*
X20654705Y-10813984D02*
X20645182Y-10804460D01*
X20645182Y-10804460D02*
X20654705Y-10794936D01*
X20654705Y-10794936D02*
X20654705Y-10813984D01*
X20654705Y-10690174D02*
X20664229Y-10699698D01*
X20664229Y-10699698D02*
X20654705Y-10709222D01*
X20654705Y-10709222D02*
X20645182Y-10699698D01*
X20645182Y-10699698D02*
X20654705Y-10690174D01*
X20654705Y-10690174D02*
X20654705Y-10709222D01*
D12*
X18957500Y-11110000D02*
X19022500Y-11175000D01*
X19022500Y-11110000D02*
X18957500Y-11175000D01*
D11*
X19321372Y-11033984D02*
X19340420Y-11033984D01*
X19340420Y-11033984D02*
X19359467Y-11043508D01*
X19359467Y-11043508D02*
X19368991Y-11053031D01*
X19368991Y-11053031D02*
X19378515Y-11072079D01*
X19378515Y-11072079D02*
X19388039Y-11110174D01*
X19388039Y-11110174D02*
X19388039Y-11157793D01*
X19388039Y-11157793D02*
X19378515Y-11195888D01*
X19378515Y-11195888D02*
X19368991Y-11214936D01*
X19368991Y-11214936D02*
X19359467Y-11224460D01*
X19359467Y-11224460D02*
X19340420Y-11233984D01*
X19340420Y-11233984D02*
X19321372Y-11233984D01*
X19321372Y-11233984D02*
X19302324Y-11224460D01*
X19302324Y-11224460D02*
X19292801Y-11214936D01*
X19292801Y-11214936D02*
X19283277Y-11195888D01*
X19283277Y-11195888D02*
X19273753Y-11157793D01*
X19273753Y-11157793D02*
X19273753Y-11110174D01*
X19273753Y-11110174D02*
X19283277Y-11072079D01*
X19283277Y-11072079D02*
X19292801Y-11053031D01*
X19292801Y-11053031D02*
X19302324Y-11043508D01*
X19302324Y-11043508D02*
X19321372Y-11033984D01*
X19473753Y-11214936D02*
X19483277Y-11224460D01*
X19483277Y-11224460D02*
X19473753Y-11233984D01*
X19473753Y-11233984D02*
X19464229Y-11224460D01*
X19464229Y-11224460D02*
X19473753Y-11214936D01*
X19473753Y-11214936D02*
X19473753Y-11233984D01*
X19654705Y-11033984D02*
X19616610Y-11033984D01*
X19616610Y-11033984D02*
X19597563Y-11043508D01*
X19597563Y-11043508D02*
X19588039Y-11053031D01*
X19588039Y-11053031D02*
X19568991Y-11081603D01*
X19568991Y-11081603D02*
X19559467Y-11119698D01*
X19559467Y-11119698D02*
X19559467Y-11195888D01*
X19559467Y-11195888D02*
X19568991Y-11214936D01*
X19568991Y-11214936D02*
X19578515Y-11224460D01*
X19578515Y-11224460D02*
X19597563Y-11233984D01*
X19597563Y-11233984D02*
X19635658Y-11233984D01*
X19635658Y-11233984D02*
X19654705Y-11224460D01*
X19654705Y-11224460D02*
X19664229Y-11214936D01*
X19664229Y-11214936D02*
X19673753Y-11195888D01*
X19673753Y-11195888D02*
X19673753Y-11148270D01*
X19673753Y-11148270D02*
X19664229Y-11129222D01*
X19664229Y-11129222D02*
X19654705Y-11119698D01*
X19654705Y-11119698D02*
X19635658Y-11110174D01*
X19635658Y-11110174D02*
X19597563Y-11110174D01*
X19597563Y-11110174D02*
X19578515Y-11119698D01*
X19578515Y-11119698D02*
X19568991Y-11129222D01*
X19568991Y-11129222D02*
X19559467Y-11148270D01*
X19854705Y-11033984D02*
X19759467Y-11033984D01*
X19759467Y-11033984D02*
X19749944Y-11129222D01*
X19749944Y-11129222D02*
X19759467Y-11119698D01*
X19759467Y-11119698D02*
X19778515Y-11110174D01*
X19778515Y-11110174D02*
X19826134Y-11110174D01*
X19826134Y-11110174D02*
X19845182Y-11119698D01*
X19845182Y-11119698D02*
X19854705Y-11129222D01*
X19854705Y-11129222D02*
X19864229Y-11148270D01*
X19864229Y-11148270D02*
X19864229Y-11195888D01*
X19864229Y-11195888D02*
X19854705Y-11214936D01*
X19854705Y-11214936D02*
X19845182Y-11224460D01*
X19845182Y-11224460D02*
X19826134Y-11233984D01*
X19826134Y-11233984D02*
X19778515Y-11233984D01*
X19778515Y-11233984D02*
X19759467Y-11224460D01*
X19759467Y-11224460D02*
X19749944Y-11214936D01*
X19988039Y-11033984D02*
X20007086Y-11033984D01*
X20007086Y-11033984D02*
X20026134Y-11043508D01*
X20026134Y-11043508D02*
X20035658Y-11053031D01*
X20035658Y-11053031D02*
X20045182Y-11072079D01*
X20045182Y-11072079D02*
X20054705Y-11110174D01*
X20054705Y-11110174D02*
X20054705Y-11157793D01*
X20054705Y-11157793D02*
X20045182Y-11195888D01*
X20045182Y-11195888D02*
X20035658Y-11214936D01*
X20035658Y-11214936D02*
X20026134Y-11224460D01*
X20026134Y-11224460D02*
X20007086Y-11233984D01*
X20007086Y-11233984D02*
X19988039Y-11233984D01*
X19988039Y-11233984D02*
X19968991Y-11224460D01*
X19968991Y-11224460D02*
X19959467Y-11214936D01*
X19959467Y-11214936D02*
X19949944Y-11195888D01*
X19949944Y-11195888D02*
X19940420Y-11157793D01*
X19940420Y-11157793D02*
X19940420Y-11110174D01*
X19940420Y-11110174D02*
X19949944Y-11072079D01*
X19949944Y-11072079D02*
X19959467Y-11053031D01*
X19959467Y-11053031D02*
X19968991Y-11043508D01*
X19968991Y-11043508D02*
X19988039Y-11033984D01*
X20140420Y-11233984D02*
X20140420Y-11100650D01*
X20140420Y-11119698D02*
X20149944Y-11110174D01*
X20149944Y-11110174D02*
X20168991Y-11100650D01*
X20168991Y-11100650D02*
X20197563Y-11100650D01*
X20197563Y-11100650D02*
X20216610Y-11110174D01*
X20216610Y-11110174D02*
X20226134Y-11129222D01*
X20226134Y-11129222D02*
X20226134Y-11233984D01*
X20226134Y-11129222D02*
X20235658Y-11110174D01*
X20235658Y-11110174D02*
X20254705Y-11100650D01*
X20254705Y-11100650D02*
X20283277Y-11100650D01*
X20283277Y-11100650D02*
X20302325Y-11110174D01*
X20302325Y-11110174D02*
X20311848Y-11129222D01*
X20311848Y-11129222D02*
X20311848Y-11233984D01*
X20407086Y-11233984D02*
X20407086Y-11100650D01*
X20407086Y-11119698D02*
X20416610Y-11110174D01*
X20416610Y-11110174D02*
X20435658Y-11100650D01*
X20435658Y-11100650D02*
X20464229Y-11100650D01*
X20464229Y-11100650D02*
X20483277Y-11110174D01*
X20483277Y-11110174D02*
X20492801Y-11129222D01*
X20492801Y-11129222D02*
X20492801Y-11233984D01*
X20492801Y-11129222D02*
X20502325Y-11110174D01*
X20502325Y-11110174D02*
X20521372Y-11100650D01*
X20521372Y-11100650D02*
X20549944Y-11100650D01*
X20549944Y-11100650D02*
X20568991Y-11110174D01*
X20568991Y-11110174D02*
X20578515Y-11129222D01*
X20578515Y-11129222D02*
X20578515Y-11233984D01*
X20968991Y-11024460D02*
X20797563Y-11281603D01*
X21226134Y-11033984D02*
X21245182Y-11033984D01*
X21245182Y-11033984D02*
X21264229Y-11043508D01*
X21264229Y-11043508D02*
X21273753Y-11053031D01*
X21273753Y-11053031D02*
X21283277Y-11072079D01*
X21283277Y-11072079D02*
X21292801Y-11110174D01*
X21292801Y-11110174D02*
X21292801Y-11157793D01*
X21292801Y-11157793D02*
X21283277Y-11195888D01*
X21283277Y-11195888D02*
X21273753Y-11214936D01*
X21273753Y-11214936D02*
X21264229Y-11224460D01*
X21264229Y-11224460D02*
X21245182Y-11233984D01*
X21245182Y-11233984D02*
X21226134Y-11233984D01*
X21226134Y-11233984D02*
X21207087Y-11224460D01*
X21207087Y-11224460D02*
X21197563Y-11214936D01*
X21197563Y-11214936D02*
X21188039Y-11195888D01*
X21188039Y-11195888D02*
X21178515Y-11157793D01*
X21178515Y-11157793D02*
X21178515Y-11110174D01*
X21178515Y-11110174D02*
X21188039Y-11072079D01*
X21188039Y-11072079D02*
X21197563Y-11053031D01*
X21197563Y-11053031D02*
X21207087Y-11043508D01*
X21207087Y-11043508D02*
X21226134Y-11033984D01*
X21378515Y-11214936D02*
X21388039Y-11224460D01*
X21388039Y-11224460D02*
X21378515Y-11233984D01*
X21378515Y-11233984D02*
X21368991Y-11224460D01*
X21368991Y-11224460D02*
X21378515Y-11214936D01*
X21378515Y-11214936D02*
X21378515Y-11233984D01*
X21511848Y-11033984D02*
X21530896Y-11033984D01*
X21530896Y-11033984D02*
X21549944Y-11043508D01*
X21549944Y-11043508D02*
X21559468Y-11053031D01*
X21559468Y-11053031D02*
X21568991Y-11072079D01*
X21568991Y-11072079D02*
X21578515Y-11110174D01*
X21578515Y-11110174D02*
X21578515Y-11157793D01*
X21578515Y-11157793D02*
X21568991Y-11195888D01*
X21568991Y-11195888D02*
X21559468Y-11214936D01*
X21559468Y-11214936D02*
X21549944Y-11224460D01*
X21549944Y-11224460D02*
X21530896Y-11233984D01*
X21530896Y-11233984D02*
X21511848Y-11233984D01*
X21511848Y-11233984D02*
X21492801Y-11224460D01*
X21492801Y-11224460D02*
X21483277Y-11214936D01*
X21483277Y-11214936D02*
X21473753Y-11195888D01*
X21473753Y-11195888D02*
X21464229Y-11157793D01*
X21464229Y-11157793D02*
X21464229Y-11110174D01*
X21464229Y-11110174D02*
X21473753Y-11072079D01*
X21473753Y-11072079D02*
X21483277Y-11053031D01*
X21483277Y-11053031D02*
X21492801Y-11043508D01*
X21492801Y-11043508D02*
X21511848Y-11033984D01*
X21654706Y-11053031D02*
X21664229Y-11043508D01*
X21664229Y-11043508D02*
X21683277Y-11033984D01*
X21683277Y-11033984D02*
X21730896Y-11033984D01*
X21730896Y-11033984D02*
X21749944Y-11043508D01*
X21749944Y-11043508D02*
X21759468Y-11053031D01*
X21759468Y-11053031D02*
X21768991Y-11072079D01*
X21768991Y-11072079D02*
X21768991Y-11091127D01*
X21768991Y-11091127D02*
X21759468Y-11119698D01*
X21759468Y-11119698D02*
X21645182Y-11233984D01*
X21645182Y-11233984D02*
X21768991Y-11233984D01*
X21949944Y-11033984D02*
X21854706Y-11033984D01*
X21854706Y-11033984D02*
X21845182Y-11129222D01*
X21845182Y-11129222D02*
X21854706Y-11119698D01*
X21854706Y-11119698D02*
X21873753Y-11110174D01*
X21873753Y-11110174D02*
X21921372Y-11110174D01*
X21921372Y-11110174D02*
X21940420Y-11119698D01*
X21940420Y-11119698D02*
X21949944Y-11129222D01*
X21949944Y-11129222D02*
X21959468Y-11148270D01*
X21959468Y-11148270D02*
X21959468Y-11195888D01*
X21959468Y-11195888D02*
X21949944Y-11214936D01*
X21949944Y-11214936D02*
X21940420Y-11224460D01*
X21940420Y-11224460D02*
X21921372Y-11233984D01*
X21921372Y-11233984D02*
X21873753Y-11233984D01*
X21873753Y-11233984D02*
X21854706Y-11224460D01*
X21854706Y-11224460D02*
X21845182Y-11214936D01*
X22130896Y-11033984D02*
X22092801Y-11033984D01*
X22092801Y-11033984D02*
X22073753Y-11043508D01*
X22073753Y-11043508D02*
X22064229Y-11053031D01*
X22064229Y-11053031D02*
X22045182Y-11081603D01*
X22045182Y-11081603D02*
X22035658Y-11119698D01*
X22035658Y-11119698D02*
X22035658Y-11195888D01*
X22035658Y-11195888D02*
X22045182Y-11214936D01*
X22045182Y-11214936D02*
X22054706Y-11224460D01*
X22054706Y-11224460D02*
X22073753Y-11233984D01*
X22073753Y-11233984D02*
X22111849Y-11233984D01*
X22111849Y-11233984D02*
X22130896Y-11224460D01*
X22130896Y-11224460D02*
X22140420Y-11214936D01*
X22140420Y-11214936D02*
X22149944Y-11195888D01*
X22149944Y-11195888D02*
X22149944Y-11148270D01*
X22149944Y-11148270D02*
X22140420Y-11129222D01*
X22140420Y-11129222D02*
X22130896Y-11119698D01*
X22130896Y-11119698D02*
X22111849Y-11110174D01*
X22111849Y-11110174D02*
X22073753Y-11110174D01*
X22073753Y-11110174D02*
X22054706Y-11119698D01*
X22054706Y-11119698D02*
X22045182Y-11129222D01*
X22045182Y-11129222D02*
X22035658Y-11148270D01*
X22226134Y-11033984D02*
X22226134Y-11072079D01*
X22302325Y-11033984D02*
X22302325Y-11072079D01*
X22597563Y-11310174D02*
X22588039Y-11300650D01*
X22588039Y-11300650D02*
X22568991Y-11272079D01*
X22568991Y-11272079D02*
X22559468Y-11253031D01*
X22559468Y-11253031D02*
X22549944Y-11224460D01*
X22549944Y-11224460D02*
X22540420Y-11176841D01*
X22540420Y-11176841D02*
X22540420Y-11138746D01*
X22540420Y-11138746D02*
X22549944Y-11091127D01*
X22549944Y-11091127D02*
X22559468Y-11062555D01*
X22559468Y-11062555D02*
X22568991Y-11043508D01*
X22568991Y-11043508D02*
X22588039Y-11014936D01*
X22588039Y-11014936D02*
X22597563Y-11005412D01*
X22664229Y-11053031D02*
X22673753Y-11043508D01*
X22673753Y-11043508D02*
X22692801Y-11033984D01*
X22692801Y-11033984D02*
X22740420Y-11033984D01*
X22740420Y-11033984D02*
X22759468Y-11043508D01*
X22759468Y-11043508D02*
X22768991Y-11053031D01*
X22768991Y-11053031D02*
X22778515Y-11072079D01*
X22778515Y-11072079D02*
X22778515Y-11091127D01*
X22778515Y-11091127D02*
X22768991Y-11119698D01*
X22768991Y-11119698D02*
X22654706Y-11233984D01*
X22654706Y-11233984D02*
X22778515Y-11233984D01*
X23016610Y-11233984D02*
X23016610Y-11033984D01*
X23102325Y-11233984D02*
X23102325Y-11129222D01*
X23102325Y-11129222D02*
X23092801Y-11110174D01*
X23092801Y-11110174D02*
X23073753Y-11100650D01*
X23073753Y-11100650D02*
X23045182Y-11100650D01*
X23045182Y-11100650D02*
X23026134Y-11110174D01*
X23026134Y-11110174D02*
X23016610Y-11119698D01*
X23226134Y-11233984D02*
X23207087Y-11224460D01*
X23207087Y-11224460D02*
X23197563Y-11214936D01*
X23197563Y-11214936D02*
X23188039Y-11195888D01*
X23188039Y-11195888D02*
X23188039Y-11138746D01*
X23188039Y-11138746D02*
X23197563Y-11119698D01*
X23197563Y-11119698D02*
X23207087Y-11110174D01*
X23207087Y-11110174D02*
X23226134Y-11100650D01*
X23226134Y-11100650D02*
X23254706Y-11100650D01*
X23254706Y-11100650D02*
X23273753Y-11110174D01*
X23273753Y-11110174D02*
X23283277Y-11119698D01*
X23283277Y-11119698D02*
X23292801Y-11138746D01*
X23292801Y-11138746D02*
X23292801Y-11195888D01*
X23292801Y-11195888D02*
X23283277Y-11214936D01*
X23283277Y-11214936D02*
X23273753Y-11224460D01*
X23273753Y-11224460D02*
X23254706Y-11233984D01*
X23254706Y-11233984D02*
X23226134Y-11233984D01*
X23407087Y-11233984D02*
X23388039Y-11224460D01*
X23388039Y-11224460D02*
X23378515Y-11205412D01*
X23378515Y-11205412D02*
X23378515Y-11033984D01*
X23559468Y-11224460D02*
X23540420Y-11233984D01*
X23540420Y-11233984D02*
X23502325Y-11233984D01*
X23502325Y-11233984D02*
X23483277Y-11224460D01*
X23483277Y-11224460D02*
X23473753Y-11205412D01*
X23473753Y-11205412D02*
X23473753Y-11129222D01*
X23473753Y-11129222D02*
X23483277Y-11110174D01*
X23483277Y-11110174D02*
X23502325Y-11100650D01*
X23502325Y-11100650D02*
X23540420Y-11100650D01*
X23540420Y-11100650D02*
X23559468Y-11110174D01*
X23559468Y-11110174D02*
X23568991Y-11129222D01*
X23568991Y-11129222D02*
X23568991Y-11148270D01*
X23568991Y-11148270D02*
X23473753Y-11167317D01*
X23645182Y-11224460D02*
X23664230Y-11233984D01*
X23664230Y-11233984D02*
X23702325Y-11233984D01*
X23702325Y-11233984D02*
X23721372Y-11224460D01*
X23721372Y-11224460D02*
X23730896Y-11205412D01*
X23730896Y-11205412D02*
X23730896Y-11195888D01*
X23730896Y-11195888D02*
X23721372Y-11176841D01*
X23721372Y-11176841D02*
X23702325Y-11167317D01*
X23702325Y-11167317D02*
X23673753Y-11167317D01*
X23673753Y-11167317D02*
X23654706Y-11157793D01*
X23654706Y-11157793D02*
X23645182Y-11138746D01*
X23645182Y-11138746D02*
X23645182Y-11129222D01*
X23645182Y-11129222D02*
X23654706Y-11110174D01*
X23654706Y-11110174D02*
X23673753Y-11100650D01*
X23673753Y-11100650D02*
X23702325Y-11100650D01*
X23702325Y-11100650D02*
X23721372Y-11110174D01*
X23797563Y-11310174D02*
X23807087Y-11300650D01*
X23807087Y-11300650D02*
X23826134Y-11272079D01*
X23826134Y-11272079D02*
X23835658Y-11253031D01*
X23835658Y-11253031D02*
X23845182Y-11224460D01*
X23845182Y-11224460D02*
X23854706Y-11176841D01*
X23854706Y-11176841D02*
X23854706Y-11138746D01*
X23854706Y-11138746D02*
X23845182Y-11091127D01*
X23845182Y-11091127D02*
X23835658Y-11062555D01*
X23835658Y-11062555D02*
X23826134Y-11043508D01*
X23826134Y-11043508D02*
X23807087Y-11014936D01*
X23807087Y-11014936D02*
X23797563Y-11005412D01*
X24159468Y-11310174D02*
X24149944Y-11300650D01*
X24149944Y-11300650D02*
X24130896Y-11272079D01*
X24130896Y-11272079D02*
X24121372Y-11253031D01*
X24121372Y-11253031D02*
X24111849Y-11224460D01*
X24111849Y-11224460D02*
X24102325Y-11176841D01*
X24102325Y-11176841D02*
X24102325Y-11138746D01*
X24102325Y-11138746D02*
X24111849Y-11091127D01*
X24111849Y-11091127D02*
X24121372Y-11062555D01*
X24121372Y-11062555D02*
X24130896Y-11043508D01*
X24130896Y-11043508D02*
X24149944Y-11014936D01*
X24149944Y-11014936D02*
X24159468Y-11005412D01*
X24235658Y-11100650D02*
X24235658Y-11233984D01*
X24235658Y-11119698D02*
X24245182Y-11110174D01*
X24245182Y-11110174D02*
X24264230Y-11100650D01*
X24264230Y-11100650D02*
X24292801Y-11100650D01*
X24292801Y-11100650D02*
X24311849Y-11110174D01*
X24311849Y-11110174D02*
X24321372Y-11129222D01*
X24321372Y-11129222D02*
X24321372Y-11233984D01*
X24445182Y-11233984D02*
X24426134Y-11224460D01*
X24426134Y-11224460D02*
X24416611Y-11214936D01*
X24416611Y-11214936D02*
X24407087Y-11195888D01*
X24407087Y-11195888D02*
X24407087Y-11138746D01*
X24407087Y-11138746D02*
X24416611Y-11119698D01*
X24416611Y-11119698D02*
X24426134Y-11110174D01*
X24426134Y-11110174D02*
X24445182Y-11100650D01*
X24445182Y-11100650D02*
X24473753Y-11100650D01*
X24473753Y-11100650D02*
X24492801Y-11110174D01*
X24492801Y-11110174D02*
X24502325Y-11119698D01*
X24502325Y-11119698D02*
X24511849Y-11138746D01*
X24511849Y-11138746D02*
X24511849Y-11195888D01*
X24511849Y-11195888D02*
X24502325Y-11214936D01*
X24502325Y-11214936D02*
X24492801Y-11224460D01*
X24492801Y-11224460D02*
X24473753Y-11233984D01*
X24473753Y-11233984D02*
X24445182Y-11233984D01*
X24568992Y-11100650D02*
X24645182Y-11100650D01*
X24597563Y-11033984D02*
X24597563Y-11205412D01*
X24597563Y-11205412D02*
X24607087Y-11224460D01*
X24607087Y-11224460D02*
X24626134Y-11233984D01*
X24626134Y-11233984D02*
X24645182Y-11233984D01*
X24864230Y-11100650D02*
X24864230Y-11300650D01*
X24864230Y-11110174D02*
X24883277Y-11100650D01*
X24883277Y-11100650D02*
X24921373Y-11100650D01*
X24921373Y-11100650D02*
X24940420Y-11110174D01*
X24940420Y-11110174D02*
X24949944Y-11119698D01*
X24949944Y-11119698D02*
X24959468Y-11138746D01*
X24959468Y-11138746D02*
X24959468Y-11195888D01*
X24959468Y-11195888D02*
X24949944Y-11214936D01*
X24949944Y-11214936D02*
X24940420Y-11224460D01*
X24940420Y-11224460D02*
X24921373Y-11233984D01*
X24921373Y-11233984D02*
X24883277Y-11233984D01*
X24883277Y-11233984D02*
X24864230Y-11224460D01*
X25073753Y-11233984D02*
X25054706Y-11224460D01*
X25054706Y-11224460D02*
X25045182Y-11205412D01*
X25045182Y-11205412D02*
X25045182Y-11033984D01*
X25235658Y-11233984D02*
X25235658Y-11129222D01*
X25235658Y-11129222D02*
X25226134Y-11110174D01*
X25226134Y-11110174D02*
X25207087Y-11100650D01*
X25207087Y-11100650D02*
X25168992Y-11100650D01*
X25168992Y-11100650D02*
X25149944Y-11110174D01*
X25235658Y-11224460D02*
X25216611Y-11233984D01*
X25216611Y-11233984D02*
X25168992Y-11233984D01*
X25168992Y-11233984D02*
X25149944Y-11224460D01*
X25149944Y-11224460D02*
X25140420Y-11205412D01*
X25140420Y-11205412D02*
X25140420Y-11186365D01*
X25140420Y-11186365D02*
X25149944Y-11167317D01*
X25149944Y-11167317D02*
X25168992Y-11157793D01*
X25168992Y-11157793D02*
X25216611Y-11157793D01*
X25216611Y-11157793D02*
X25235658Y-11148270D01*
X25302325Y-11100650D02*
X25378515Y-11100650D01*
X25330896Y-11033984D02*
X25330896Y-11205412D01*
X25330896Y-11205412D02*
X25340420Y-11224460D01*
X25340420Y-11224460D02*
X25359468Y-11233984D01*
X25359468Y-11233984D02*
X25378515Y-11233984D01*
X25521373Y-11224460D02*
X25502325Y-11233984D01*
X25502325Y-11233984D02*
X25464230Y-11233984D01*
X25464230Y-11233984D02*
X25445182Y-11224460D01*
X25445182Y-11224460D02*
X25435658Y-11205412D01*
X25435658Y-11205412D02*
X25435658Y-11129222D01*
X25435658Y-11129222D02*
X25445182Y-11110174D01*
X25445182Y-11110174D02*
X25464230Y-11100650D01*
X25464230Y-11100650D02*
X25502325Y-11100650D01*
X25502325Y-11100650D02*
X25521373Y-11110174D01*
X25521373Y-11110174D02*
X25530896Y-11129222D01*
X25530896Y-11129222D02*
X25530896Y-11148270D01*
X25530896Y-11148270D02*
X25435658Y-11167317D01*
X25702325Y-11233984D02*
X25702325Y-11033984D01*
X25702325Y-11224460D02*
X25683277Y-11233984D01*
X25683277Y-11233984D02*
X25645182Y-11233984D01*
X25645182Y-11233984D02*
X25626134Y-11224460D01*
X25626134Y-11224460D02*
X25616611Y-11214936D01*
X25616611Y-11214936D02*
X25607087Y-11195888D01*
X25607087Y-11195888D02*
X25607087Y-11138746D01*
X25607087Y-11138746D02*
X25616611Y-11119698D01*
X25616611Y-11119698D02*
X25626134Y-11110174D01*
X25626134Y-11110174D02*
X25645182Y-11100650D01*
X25645182Y-11100650D02*
X25683277Y-11100650D01*
X25683277Y-11100650D02*
X25702325Y-11110174D01*
X25778515Y-11310174D02*
X25788039Y-11300650D01*
X25788039Y-11300650D02*
X25807087Y-11272079D01*
X25807087Y-11272079D02*
X25816611Y-11253031D01*
X25816611Y-11253031D02*
X25826134Y-11224460D01*
X25826134Y-11224460D02*
X25835658Y-11176841D01*
X25835658Y-11176841D02*
X25835658Y-11138746D01*
X25835658Y-11138746D02*
X25826134Y-11091127D01*
X25826134Y-11091127D02*
X25816611Y-11062555D01*
X25816611Y-11062555D02*
X25807087Y-11043508D01*
X25807087Y-11043508D02*
X25788039Y-11014936D01*
X25788039Y-11014936D02*
X25778515Y-11005412D01*
M02*
