%TF.GenerationSoftware,KiCad,Pcbnew,9.0.6*%
%TF.CreationDate,2026-01-01T23:14:18-05:00*%
%TF.ProjectId,rp2040 better,72703230-3430-4206-9265-747465722e6b,rev?*%
%TF.SameCoordinates,Original*%
%TF.FileFunction,Copper,L3,Inr*%
%TF.FilePolarity,Positive*%
%FSLAX46Y46*%
G04 Gerber Fmt 4.6, Leading zero omitted, Abs format (unit mm)*
G04 Created by KiCad (PCBNEW 9.0.6) date 2026-01-01 23:14:18*
%MOMM*%
%LPD*%
G01*
G04 APERTURE LIST*
G04 Aperture macros list*
%AMRoundRect*
0 Rectangle with rounded corners*
0 $1 Rounding radius*
0 $2 $3 $4 $5 $6 $7 $8 $9 X,Y pos of 4 corners*
0 Add a 4 corners polygon primitive as box body*
4,1,4,$2,$3,$4,$5,$6,$7,$8,$9,$2,$3,0*
0 Add four circle primitives for the rounded corners*
1,1,$1+$1,$2,$3*
1,1,$1+$1,$4,$5*
1,1,$1+$1,$6,$7*
1,1,$1+$1,$8,$9*
0 Add four rect primitives between the rounded corners*
20,1,$1+$1,$2,$3,$4,$5,0*
20,1,$1+$1,$4,$5,$6,$7,0*
20,1,$1+$1,$6,$7,$8,$9,0*
20,1,$1+$1,$8,$9,$2,$3,0*%
G04 Aperture macros list end*
%TA.AperFunction,HeatsinkPad*%
%ADD10O,1.000000X1.600000*%
%TD*%
%TA.AperFunction,HeatsinkPad*%
%ADD11O,1.000000X2.100000*%
%TD*%
%TA.AperFunction,ComponentPad*%
%ADD12C,1.700000*%
%TD*%
%TA.AperFunction,ComponentPad*%
%ADD13R,1.700000X1.700000*%
%TD*%
%TA.AperFunction,ComponentPad*%
%ADD14O,1.200000X1.750000*%
%TD*%
%TA.AperFunction,ComponentPad*%
%ADD15RoundRect,0.250000X-0.350000X-0.625000X0.350000X-0.625000X0.350000X0.625000X-0.350000X0.625000X0*%
%TD*%
%TA.AperFunction,ViaPad*%
%ADD16C,0.600000*%
%TD*%
G04 APERTURE END LIST*
D10*
%TO.N,GND*%
%TO.C,J1*%
X196430000Y-55450000D03*
D11*
X196430000Y-59630000D03*
D10*
X205070000Y-55450000D03*
D11*
X205070000Y-59630000D03*
%TD*%
D12*
%TO.N,GPIO15*%
%TO.C,J3*%
X191860000Y-103630000D03*
%TO.N,GPIO14*%
X191860000Y-101090000D03*
%TO.N,GND*%
X191860000Y-98550000D03*
%TO.N,GPIO13*%
X191860000Y-96010000D03*
%TO.N,GPIO12*%
X191860000Y-93470000D03*
%TO.N,GPIO11*%
X191860000Y-90930000D03*
%TO.N,GPIO10*%
X191860000Y-88390000D03*
%TO.N,GND*%
X191860000Y-85850000D03*
%TO.N,GPIO9*%
X191860000Y-83310000D03*
%TO.N,GPIO8*%
X191860000Y-80770000D03*
%TO.N,GPIO7*%
X191860000Y-78230000D03*
%TO.N,GPIO6*%
X191860000Y-75690000D03*
%TO.N,GND*%
X191860000Y-73150000D03*
%TO.N,GPIO5*%
X191860000Y-70610000D03*
%TO.N,GPIO4*%
X191860000Y-68070000D03*
%TO.N,GPIO3*%
X191860000Y-65530000D03*
%TO.N,GPIO2*%
X191860000Y-62990000D03*
%TO.N,GND*%
X191860000Y-60450000D03*
%TO.N,GPIO1*%
X191860000Y-57910000D03*
D13*
%TO.N,GPIO0*%
X191860000Y-55370000D03*
%TD*%
D12*
%TO.N,GPIO16*%
%TO.C,J4*%
X209640000Y-103630000D03*
%TO.N,GPIO17*%
X209640000Y-101090000D03*
%TO.N,GND*%
X209640000Y-98550000D03*
%TO.N,GPIO18*%
X209640000Y-96010000D03*
%TO.N,GPIO19*%
X209640000Y-93470000D03*
%TO.N,GPIO20*%
X209640000Y-90930000D03*
%TO.N,GPIO21*%
X209640000Y-88390000D03*
%TO.N,GND*%
X209640000Y-85850000D03*
%TO.N,GPIO22*%
X209640000Y-83310000D03*
%TO.N,RUN*%
X209640000Y-80770000D03*
%TO.N,GPIO23*%
X209640000Y-78230000D03*
%TO.N,GPIO24*%
X209640000Y-75690000D03*
%TO.N,GND*%
X209640000Y-73150000D03*
%TO.N,GPIO26_ADC0*%
X209640000Y-70610000D03*
%TO.N,GPIO27_ADC1*%
X209640000Y-68070000D03*
%TO.N,+3V3*%
X209640000Y-65530000D03*
%TO.N,GPIO28_ADC2*%
X209640000Y-62990000D03*
%TO.N,GND*%
X209640000Y-60450000D03*
%TO.N,GPIO29_ADC3*%
X209640000Y-57910000D03*
D13*
%TO.N,VBUS*%
X209640000Y-55370000D03*
%TD*%
D14*
%TO.N,GND*%
%TO.C,J2*%
X201700000Y-97550000D03*
D15*
%TO.N,Net-(J2-Pin_1)*%
X199700000Y-97550000D03*
%TD*%
D12*
%TO.N,SWD*%
%TO.C,J5*%
X203290000Y-103390000D03*
%TO.N,GND*%
X200750000Y-103390000D03*
D13*
%TO.N,SWCLK*%
X198210000Y-103390000D03*
%TD*%
D16*
%TO.N,+3V3*%
X204745050Y-84453166D03*
X200894966Y-87275000D03*
%TO.N,GPIO23*%
X206800000Y-94975000D03*
X205125000Y-94900000D03*
%TO.N,+1V1*%
X199250000Y-83975000D03*
X198637500Y-79537500D03*
%TO.N,GND*%
X194553999Y-87936637D03*
X196451336Y-89700000D03*
X206050000Y-72750000D03*
X206100000Y-87325000D03*
X207275000Y-91525000D03*
X194250000Y-62425000D03*
X197800000Y-70094000D03*
X195575000Y-76225000D03*
X207000000Y-66025000D03*
X195825000Y-97100000D03*
X201396860Y-63525000D03*
X197700000Y-83875000D03*
X207424091Y-77225000D03*
X202300000Y-92175000D03*
%TO.N,+3V3*%
X195300000Y-78525000D03*
X203600000Y-78175000D03*
X199425000Y-79199000D03*
X193701473Y-82500000D03*
X199167618Y-70283854D03*
X198868153Y-92580929D03*
X198700000Y-72450000D03*
%TO.N,+1V1*%
X202250000Y-78275000D03*
X201199265Y-79200735D03*
%TO.N,BAT_OUT*%
X202456015Y-87881015D03*
X202976057Y-65950000D03*
%TO.N,Net-(J2-Pin_1)*%
X207050000Y-88700000D03*
X200625000Y-95475000D03*
%TO.N,VBUS*%
X204258871Y-87500000D03*
X206575000Y-93500000D03*
X204257871Y-83278859D03*
X201439281Y-89800869D03*
X206025000Y-60600000D03*
%TO.N,USB_D+*%
X198575000Y-76250000D03*
X199997286Y-61849535D03*
%TO.N,USB_D-*%
X201450000Y-76250000D03*
X200796860Y-61875716D03*
%TO.N,GPIO13*%
X196340823Y-83040514D03*
X194383949Y-84900000D03*
%TO.N,GPIO12*%
X195741600Y-85679696D03*
%TO.N,GPIO2*%
X197002826Y-79508993D03*
%TO.N,GPIO5*%
X196366080Y-82240911D03*
X197726000Y-63057776D03*
X194775000Y-59475000D03*
X194200000Y-61325000D03*
X195375000Y-92600000D03*
X193918000Y-64825000D03*
%TO.N,GPIO3*%
X196662501Y-80697848D03*
%TO.N,GPIO15*%
X194574000Y-90400000D03*
X194600000Y-86101000D03*
%TO.N,GPIO1*%
X196258912Y-79214722D03*
%TO.N,GPIO4*%
X196662498Y-81497850D03*
X193296765Y-63578235D03*
X195250735Y-63675735D03*
X198425000Y-90500000D03*
%TO.N,GPIO14*%
X196911764Y-84088236D03*
X194173000Y-89015430D03*
%TO.N,RUN*%
X207125000Y-84850000D03*
X201263000Y-86436000D03*
%TO.N,GPIO26_ADC0*%
X204560000Y-80935776D03*
%TO.N,GPIO27_ADC1*%
X203825000Y-80100000D03*
%TO.N,GPIO29_ADC3*%
X204617539Y-79733640D03*
%TO.N,GPIO24*%
X203126490Y-81325020D03*
X207548000Y-83850000D03*
X207625000Y-81468988D03*
X207756000Y-93375000D03*
%TO.N,GPIO28_ADC2*%
X201092073Y-79993523D03*
X198425000Y-73300000D03*
%TO.N,GPIO18*%
X202636765Y-85088235D03*
X201402000Y-90600000D03*
%TO.N,GPIO22*%
X207950000Y-82200000D03*
X203325000Y-82100000D03*
%TO.N,GPIO23*%
X204530000Y-93380000D03*
X201386169Y-81898586D03*
%TO.N,SWCLK*%
X201282500Y-83062794D03*
X200000000Y-88925000D03*
%TO.N,SWD*%
X203226000Y-85775000D03*
X201075000Y-84100000D03*
%TO.N,QSPI_SCLK*%
X199925000Y-75875000D03*
X197759014Y-79077982D03*
%TO.N,PG*%
X202725000Y-91200000D03*
X200862502Y-81293795D03*
%TO.N,QSPI_SD0*%
X202400000Y-75825000D03*
X199100764Y-74025764D03*
%TO.N,QSPI_SD2*%
X196400000Y-74175000D03*
X197600000Y-73750000D03*
%TD*%
%TA.AperFunction,Conductor*%
%TO.N,GND*%
G36*
X195632962Y-54320185D02*
G01*
X195678717Y-54372989D01*
X195688661Y-54442147D01*
X195659636Y-54505703D01*
X195653604Y-54512181D01*
X195653251Y-54512533D01*
X195653248Y-54512537D01*
X195543814Y-54676315D01*
X195543807Y-54676328D01*
X195468430Y-54858306D01*
X195468427Y-54858318D01*
X195430000Y-55051504D01*
X195430000Y-55200000D01*
X196130000Y-55200000D01*
X196130000Y-55700000D01*
X195430000Y-55700000D01*
X195430000Y-55848495D01*
X195468427Y-56041681D01*
X195468430Y-56041693D01*
X195543807Y-56223671D01*
X195543814Y-56223684D01*
X195653248Y-56387462D01*
X195653251Y-56387466D01*
X195792533Y-56526748D01*
X195792537Y-56526751D01*
X195956315Y-56636185D01*
X195956328Y-56636192D01*
X196138308Y-56711569D01*
X196180000Y-56719862D01*
X196180000Y-55916988D01*
X196189940Y-55934205D01*
X196245795Y-55990060D01*
X196314204Y-56029556D01*
X196390504Y-56050000D01*
X196469496Y-56050000D01*
X196545796Y-56029556D01*
X196614205Y-55990060D01*
X196670060Y-55934205D01*
X196680000Y-55916988D01*
X196680000Y-56719862D01*
X196721690Y-56711569D01*
X196721692Y-56711569D01*
X196903671Y-56636192D01*
X196903684Y-56636185D01*
X197067462Y-56526751D01*
X197067466Y-56526748D01*
X197206748Y-56387466D01*
X197206751Y-56387462D01*
X197316185Y-56223684D01*
X197316192Y-56223671D01*
X197391569Y-56041693D01*
X197391572Y-56041681D01*
X197429999Y-55848495D01*
X197430000Y-55848492D01*
X197430000Y-55700000D01*
X196730000Y-55700000D01*
X196730000Y-55200000D01*
X197430000Y-55200000D01*
X197430000Y-55051508D01*
X197429999Y-55051504D01*
X197391572Y-54858318D01*
X197391569Y-54858306D01*
X197316192Y-54676328D01*
X197316185Y-54676315D01*
X197206751Y-54512537D01*
X197206748Y-54512533D01*
X197206396Y-54512181D01*
X197206270Y-54511950D01*
X197202886Y-54507827D01*
X197203668Y-54507185D01*
X197172911Y-54450858D01*
X197177895Y-54381166D01*
X197219767Y-54325233D01*
X197285231Y-54300816D01*
X197294077Y-54300500D01*
X204205923Y-54300500D01*
X204272962Y-54320185D01*
X204318717Y-54372989D01*
X204328661Y-54442147D01*
X204299636Y-54505703D01*
X204293604Y-54512181D01*
X204293251Y-54512533D01*
X204293248Y-54512537D01*
X204183814Y-54676315D01*
X204183807Y-54676328D01*
X204108430Y-54858306D01*
X204108427Y-54858318D01*
X204070000Y-55051504D01*
X204070000Y-55200000D01*
X204770000Y-55200000D01*
X204770000Y-55700000D01*
X204070000Y-55700000D01*
X204070000Y-55848495D01*
X204108427Y-56041681D01*
X204108430Y-56041693D01*
X204183807Y-56223671D01*
X204183814Y-56223684D01*
X204293248Y-56387462D01*
X204293251Y-56387466D01*
X204432533Y-56526748D01*
X204432537Y-56526751D01*
X204596315Y-56636185D01*
X204596328Y-56636192D01*
X204778308Y-56711569D01*
X204820000Y-56719862D01*
X204820000Y-55916988D01*
X204829940Y-55934205D01*
X204885795Y-55990060D01*
X204954204Y-56029556D01*
X205030504Y-56050000D01*
X205109496Y-56050000D01*
X205185796Y-56029556D01*
X205254205Y-55990060D01*
X205310060Y-55934205D01*
X205320000Y-55916988D01*
X205320000Y-56719862D01*
X205361690Y-56711569D01*
X205361692Y-56711569D01*
X205543671Y-56636192D01*
X205543684Y-56636185D01*
X205707462Y-56526751D01*
X205707466Y-56526748D01*
X205846748Y-56387466D01*
X205846751Y-56387462D01*
X205956185Y-56223684D01*
X205956192Y-56223671D01*
X206031569Y-56041693D01*
X206031572Y-56041681D01*
X206069999Y-55848495D01*
X206070000Y-55848492D01*
X206070000Y-55700000D01*
X205370000Y-55700000D01*
X205370000Y-55200000D01*
X206070000Y-55200000D01*
X206070000Y-55051508D01*
X206069999Y-55051504D01*
X206031572Y-54858318D01*
X206031569Y-54858306D01*
X205956192Y-54676328D01*
X205956185Y-54676315D01*
X205846751Y-54512537D01*
X205846748Y-54512533D01*
X205846396Y-54512181D01*
X205846270Y-54511950D01*
X205842886Y-54507827D01*
X205843668Y-54507185D01*
X205812911Y-54450858D01*
X205817895Y-54381166D01*
X205859767Y-54325233D01*
X205925231Y-54300816D01*
X205934077Y-54300500D01*
X208169906Y-54300500D01*
X208236945Y-54320185D01*
X208282700Y-54372989D01*
X208293195Y-54437752D01*
X208289500Y-54472127D01*
X208289500Y-54472128D01*
X208289500Y-54472132D01*
X208289500Y-56267870D01*
X208289501Y-56267876D01*
X208295908Y-56327483D01*
X208346202Y-56462328D01*
X208346206Y-56462335D01*
X208432452Y-56577544D01*
X208432455Y-56577547D01*
X208547664Y-56663793D01*
X208547671Y-56663797D01*
X208679082Y-56712810D01*
X208735016Y-56754681D01*
X208759433Y-56820145D01*
X208744582Y-56888418D01*
X208723431Y-56916673D01*
X208609889Y-57030215D01*
X208484951Y-57202179D01*
X208388444Y-57391585D01*
X208322753Y-57593760D01*
X208289500Y-57803713D01*
X208289500Y-58016286D01*
X208322753Y-58226239D01*
X208388444Y-58428414D01*
X208484951Y-58617820D01*
X208609890Y-58789786D01*
X208760213Y-58940109D01*
X208932179Y-59065048D01*
X208932181Y-59065049D01*
X208932184Y-59065051D01*
X208941493Y-59069794D01*
X208992290Y-59117766D01*
X209009087Y-59185587D01*
X208986552Y-59251722D01*
X208941505Y-59290760D01*
X208932446Y-59295376D01*
X208932440Y-59295380D01*
X208878282Y-59334727D01*
X208878282Y-59334728D01*
X209510591Y-59967037D01*
X209447007Y-59984075D01*
X209332993Y-60049901D01*
X209239901Y-60142993D01*
X209174075Y-60257007D01*
X209157037Y-60320591D01*
X208524728Y-59688282D01*
X208524727Y-59688282D01*
X208485380Y-59742439D01*
X208388904Y-59931782D01*
X208323242Y-60133869D01*
X208323242Y-60133872D01*
X208290000Y-60343753D01*
X208290000Y-60556246D01*
X208323242Y-60766127D01*
X208323242Y-60766130D01*
X208388904Y-60968217D01*
X208485375Y-61157550D01*
X208524728Y-61211716D01*
X209157037Y-60579408D01*
X209174075Y-60642993D01*
X209239901Y-60757007D01*
X209332993Y-60850099D01*
X209447007Y-60915925D01*
X209510590Y-60932962D01*
X208878282Y-61565269D01*
X208878282Y-61565270D01*
X208932452Y-61604626D01*
X208932451Y-61604626D01*
X208941495Y-61609234D01*
X208992292Y-61657208D01*
X209009087Y-61725029D01*
X208986550Y-61791164D01*
X208941499Y-61830202D01*
X208932182Y-61834949D01*
X208760213Y-61959890D01*
X208609890Y-62110213D01*
X208484951Y-62282179D01*
X208388444Y-62471585D01*
X208322753Y-62673760D01*
X208291855Y-62868844D01*
X208289500Y-62883713D01*
X208289500Y-63096287D01*
X208299534Y-63159644D01*
X208321220Y-63296562D01*
X208322754Y-63306243D01*
X208335260Y-63344733D01*
X208388444Y-63508414D01*
X208484951Y-63697820D01*
X208609890Y-63869786D01*
X208760213Y-64020109D01*
X208932182Y-64145050D01*
X208940946Y-64149516D01*
X208991742Y-64197491D01*
X209008536Y-64265312D01*
X208985998Y-64331447D01*
X208940946Y-64370484D01*
X208932182Y-64374949D01*
X208760213Y-64499890D01*
X208609890Y-64650213D01*
X208484951Y-64822179D01*
X208388444Y-65011585D01*
X208322753Y-65213760D01*
X208289500Y-65423713D01*
X208289500Y-65636286D01*
X208322663Y-65845673D01*
X208322754Y-65846243D01*
X208382084Y-66028842D01*
X208388444Y-66048414D01*
X208484951Y-66237820D01*
X208609890Y-66409786D01*
X208760213Y-66560109D01*
X208932182Y-66685050D01*
X208940946Y-66689516D01*
X208991742Y-66737491D01*
X209008536Y-66805312D01*
X208985998Y-66871447D01*
X208940946Y-66910484D01*
X208932182Y-66914949D01*
X208760213Y-67039890D01*
X208609890Y-67190213D01*
X208484951Y-67362179D01*
X208388444Y-67551585D01*
X208322753Y-67753760D01*
X208289500Y-67963713D01*
X208289500Y-68176286D01*
X208322753Y-68386239D01*
X208388444Y-68588414D01*
X208484951Y-68777820D01*
X208609890Y-68949786D01*
X208760213Y-69100109D01*
X208932182Y-69225050D01*
X208940946Y-69229516D01*
X208991742Y-69277491D01*
X209008536Y-69345312D01*
X208985998Y-69411447D01*
X208940946Y-69450484D01*
X208932182Y-69454949D01*
X208760213Y-69579890D01*
X208609890Y-69730213D01*
X208484951Y-69902179D01*
X208388444Y-70091585D01*
X208322753Y-70293760D01*
X208289500Y-70503713D01*
X208289500Y-70716286D01*
X208319490Y-70905640D01*
X208322754Y-70926243D01*
X208374127Y-71084353D01*
X208388444Y-71128414D01*
X208484951Y-71317820D01*
X208609890Y-71489786D01*
X208760213Y-71640109D01*
X208932179Y-71765048D01*
X208932181Y-71765049D01*
X208932184Y-71765051D01*
X208941493Y-71769794D01*
X208992290Y-71817766D01*
X209009087Y-71885587D01*
X208986552Y-71951722D01*
X208941505Y-71990760D01*
X208932446Y-71995376D01*
X208932440Y-71995380D01*
X208878282Y-72034727D01*
X208878282Y-72034728D01*
X209510591Y-72667037D01*
X209447007Y-72684075D01*
X209332993Y-72749901D01*
X209239901Y-72842993D01*
X209174075Y-72957007D01*
X209157037Y-73020591D01*
X208524728Y-72388282D01*
X208524727Y-72388282D01*
X208485380Y-72442439D01*
X208388904Y-72631782D01*
X208323242Y-72833869D01*
X208323242Y-72833872D01*
X208290000Y-73043753D01*
X208290000Y-73256246D01*
X208323242Y-73466127D01*
X208323242Y-73466130D01*
X208388904Y-73668217D01*
X208485375Y-73857550D01*
X208524728Y-73911716D01*
X209157037Y-73279408D01*
X209174075Y-73342993D01*
X209239901Y-73457007D01*
X209332993Y-73550099D01*
X209447007Y-73615925D01*
X209510590Y-73632962D01*
X208878282Y-74265269D01*
X208878282Y-74265270D01*
X208932452Y-74304626D01*
X208932451Y-74304626D01*
X208941495Y-74309234D01*
X208992292Y-74357208D01*
X209009087Y-74425029D01*
X208986550Y-74491164D01*
X208941499Y-74530202D01*
X208932182Y-74534949D01*
X208760213Y-74659890D01*
X208609890Y-74810213D01*
X208484951Y-74982179D01*
X208388444Y-75171585D01*
X208322753Y-75373760D01*
X208296327Y-75540609D01*
X208289500Y-75583713D01*
X208289500Y-75796287D01*
X208322754Y-76006243D01*
X208387065Y-76204172D01*
X208388444Y-76208414D01*
X208484951Y-76397820D01*
X208609890Y-76569786D01*
X208760213Y-76720109D01*
X208932182Y-76845050D01*
X208940946Y-76849516D01*
X208991742Y-76897491D01*
X209008536Y-76965312D01*
X208985998Y-77031447D01*
X208940946Y-77070484D01*
X208932182Y-77074949D01*
X208760213Y-77199890D01*
X208609890Y-77350213D01*
X208484951Y-77522179D01*
X208388444Y-77711585D01*
X208322753Y-77913760D01*
X208302521Y-78041503D01*
X208289500Y-78123713D01*
X208289500Y-78336287D01*
X208298726Y-78394537D01*
X208322753Y-78546239D01*
X208322753Y-78546241D01*
X208322754Y-78546243D01*
X208386482Y-78742378D01*
X208388444Y-78748414D01*
X208484951Y-78937820D01*
X208609890Y-79109786D01*
X208760213Y-79260109D01*
X208932182Y-79385050D01*
X208940946Y-79389516D01*
X208991742Y-79437491D01*
X209008536Y-79505312D01*
X208985998Y-79571447D01*
X208940946Y-79610484D01*
X208932182Y-79614949D01*
X208760213Y-79739890D01*
X208609890Y-79890213D01*
X208484951Y-80062179D01*
X208388444Y-80251585D01*
X208322753Y-80453760D01*
X208289500Y-80663713D01*
X208289500Y-80718251D01*
X208269815Y-80785290D01*
X208217011Y-80831045D01*
X208147853Y-80840989D01*
X208096609Y-80821353D01*
X208004185Y-80759597D01*
X208004172Y-80759590D01*
X207858501Y-80699252D01*
X207858489Y-80699249D01*
X207703845Y-80668488D01*
X207703842Y-80668488D01*
X207546158Y-80668488D01*
X207546155Y-80668488D01*
X207391510Y-80699249D01*
X207391498Y-80699252D01*
X207245827Y-80759590D01*
X207245814Y-80759597D01*
X207114711Y-80847198D01*
X207114707Y-80847201D01*
X207003213Y-80958695D01*
X207003210Y-80958699D01*
X206915609Y-81089802D01*
X206915602Y-81089815D01*
X206855264Y-81235486D01*
X206855261Y-81235498D01*
X206824500Y-81390141D01*
X206824500Y-81547834D01*
X206855261Y-81702477D01*
X206855264Y-81702489D01*
X206915602Y-81848160D01*
X206915609Y-81848173D01*
X207003210Y-81979276D01*
X207003213Y-81979280D01*
X207113181Y-82089248D01*
X207146666Y-82150571D01*
X207149500Y-82176929D01*
X207149500Y-82278846D01*
X207180261Y-82433489D01*
X207180264Y-82433501D01*
X207240602Y-82579172D01*
X207240609Y-82579185D01*
X207328210Y-82710288D01*
X207328213Y-82710292D01*
X207439707Y-82821786D01*
X207439711Y-82821789D01*
X207460169Y-82835459D01*
X207504974Y-82889071D01*
X207513681Y-82958396D01*
X207483526Y-83021424D01*
X207424083Y-83058143D01*
X207415470Y-83060178D01*
X207314508Y-83080261D01*
X207314498Y-83080264D01*
X207168827Y-83140602D01*
X207168814Y-83140609D01*
X207037711Y-83228210D01*
X207037707Y-83228213D01*
X206926213Y-83339707D01*
X206926210Y-83339711D01*
X206838609Y-83470814D01*
X206838602Y-83470827D01*
X206778264Y-83616498D01*
X206778261Y-83616510D01*
X206747500Y-83771153D01*
X206747500Y-83928846D01*
X206768319Y-84033510D01*
X206762092Y-84103101D01*
X206719229Y-84158279D01*
X206715593Y-84160803D01*
X206614711Y-84228210D01*
X206614707Y-84228213D01*
X206503213Y-84339707D01*
X206503210Y-84339711D01*
X206415609Y-84470814D01*
X206415602Y-84470827D01*
X206355264Y-84616498D01*
X206355261Y-84616510D01*
X206324500Y-84771153D01*
X206324500Y-84928846D01*
X206355261Y-85083489D01*
X206355264Y-85083501D01*
X206415602Y-85229172D01*
X206415609Y-85229185D01*
X206503210Y-85360288D01*
X206503213Y-85360292D01*
X206614707Y-85471786D01*
X206614711Y-85471789D01*
X206745814Y-85559390D01*
X206745827Y-85559397D01*
X206845915Y-85600854D01*
X206891503Y-85619737D01*
X207020529Y-85645402D01*
X207046153Y-85650499D01*
X207046156Y-85650500D01*
X207046158Y-85650500D01*
X207203844Y-85650500D01*
X207203845Y-85650499D01*
X207358497Y-85619737D01*
X207504179Y-85559394D01*
X207635289Y-85471789D01*
X207746789Y-85360289D01*
X207834394Y-85229179D01*
X207894737Y-85083497D01*
X207925500Y-84928842D01*
X207925500Y-84771158D01*
X207925500Y-84771155D01*
X207904680Y-84666490D01*
X207910907Y-84596898D01*
X207953770Y-84541721D01*
X207957358Y-84539228D01*
X208058289Y-84471789D01*
X208169789Y-84360289D01*
X208257394Y-84229179D01*
X208311048Y-84099644D01*
X208354886Y-84045246D01*
X208421180Y-84023180D01*
X208488879Y-84040459D01*
X208525925Y-84074216D01*
X208609890Y-84189786D01*
X208760213Y-84340109D01*
X208932179Y-84465048D01*
X208932181Y-84465049D01*
X208932184Y-84465051D01*
X208941493Y-84469794D01*
X208992290Y-84517766D01*
X209009087Y-84585587D01*
X208986552Y-84651722D01*
X208941505Y-84690760D01*
X208932446Y-84695376D01*
X208932440Y-84695380D01*
X208878282Y-84734727D01*
X208878282Y-84734728D01*
X209510591Y-85367037D01*
X209447007Y-85384075D01*
X209332993Y-85449901D01*
X209239901Y-85542993D01*
X209174075Y-85657007D01*
X209157037Y-85720591D01*
X208524728Y-85088282D01*
X208524727Y-85088282D01*
X208485380Y-85142439D01*
X208388904Y-85331782D01*
X208323242Y-85533869D01*
X208323242Y-85533872D01*
X208290000Y-85743753D01*
X208290000Y-85956246D01*
X208323242Y-86166127D01*
X208323242Y-86166130D01*
X208388904Y-86368217D01*
X208485375Y-86557550D01*
X208524728Y-86611716D01*
X209157037Y-85979408D01*
X209174075Y-86042993D01*
X209239901Y-86157007D01*
X209332993Y-86250099D01*
X209447007Y-86315925D01*
X209510590Y-86332962D01*
X208878282Y-86965269D01*
X208878282Y-86965270D01*
X208932452Y-87004626D01*
X208932451Y-87004626D01*
X208941495Y-87009234D01*
X208992292Y-87057208D01*
X209009087Y-87125029D01*
X208986550Y-87191164D01*
X208941499Y-87230202D01*
X208932182Y-87234949D01*
X208760213Y-87359890D01*
X208609890Y-87510213D01*
X208484951Y-87682179D01*
X208388444Y-87871585D01*
X208322753Y-88073760D01*
X208300394Y-88214930D01*
X208289500Y-88283713D01*
X208289500Y-88496287D01*
X208297346Y-88545827D01*
X208320420Y-88691510D01*
X208322754Y-88706243D01*
X208368215Y-88846158D01*
X208388444Y-88908414D01*
X208484951Y-89097820D01*
X208609890Y-89269786D01*
X208760213Y-89420109D01*
X208932182Y-89545050D01*
X208940946Y-89549516D01*
X208991742Y-89597491D01*
X209008536Y-89665312D01*
X208985998Y-89731447D01*
X208940946Y-89770484D01*
X208932182Y-89774949D01*
X208760213Y-89899890D01*
X208609890Y-90050213D01*
X208484951Y-90222179D01*
X208388444Y-90411585D01*
X208388443Y-90411587D01*
X208388443Y-90411588D01*
X208385334Y-90421158D01*
X208322753Y-90613760D01*
X208289500Y-90823713D01*
X208289500Y-91036286D01*
X208316917Y-91209394D01*
X208322754Y-91246243D01*
X208383595Y-91433492D01*
X208388444Y-91448414D01*
X208484951Y-91637820D01*
X208609890Y-91809786D01*
X208760213Y-91960109D01*
X208932182Y-92085050D01*
X208940946Y-92089516D01*
X208991742Y-92137491D01*
X209008536Y-92205312D01*
X208985998Y-92271447D01*
X208940946Y-92310484D01*
X208932182Y-92314949D01*
X208760213Y-92439890D01*
X208609890Y-92590213D01*
X208482085Y-92766125D01*
X208480286Y-92764818D01*
X208434853Y-92805339D01*
X208365844Y-92816271D01*
X208301879Y-92788157D01*
X208294053Y-92780974D01*
X208266292Y-92753213D01*
X208266288Y-92753210D01*
X208135185Y-92665609D01*
X208135172Y-92665602D01*
X207989501Y-92605264D01*
X207989489Y-92605261D01*
X207834845Y-92574500D01*
X207834842Y-92574500D01*
X207677158Y-92574500D01*
X207677155Y-92574500D01*
X207522510Y-92605261D01*
X207522498Y-92605264D01*
X207376827Y-92665602D01*
X207376814Y-92665609D01*
X207245711Y-92753210D01*
X207178480Y-92820441D01*
X207117156Y-92853925D01*
X207047465Y-92848940D01*
X207021908Y-92835861D01*
X206954184Y-92790609D01*
X206954172Y-92790602D01*
X206808501Y-92730264D01*
X206808489Y-92730261D01*
X206653845Y-92699500D01*
X206653842Y-92699500D01*
X206496158Y-92699500D01*
X206496155Y-92699500D01*
X206341510Y-92730261D01*
X206341498Y-92730264D01*
X206195827Y-92790602D01*
X206195814Y-92790609D01*
X206064711Y-92878210D01*
X206064707Y-92878213D01*
X205953213Y-92989707D01*
X205953210Y-92989711D01*
X205865609Y-93120814D01*
X205865602Y-93120827D01*
X205805264Y-93266498D01*
X205805261Y-93266510D01*
X205774500Y-93421153D01*
X205774500Y-93578846D01*
X205805261Y-93733489D01*
X205805264Y-93733501D01*
X205865602Y-93879172D01*
X205865609Y-93879185D01*
X205953210Y-94010288D01*
X205953213Y-94010292D01*
X206064707Y-94121786D01*
X206064711Y-94121789D01*
X206195814Y-94209390D01*
X206201191Y-94212264D01*
X206200150Y-94214210D01*
X206246836Y-94251812D01*
X206268919Y-94318100D01*
X206251658Y-94385804D01*
X206232681Y-94410239D01*
X206178214Y-94464706D01*
X206178210Y-94464711D01*
X206090609Y-94595814D01*
X206087736Y-94601191D01*
X206085424Y-94599955D01*
X206048644Y-94645499D01*
X205982326Y-94667494D01*
X205914645Y-94650142D01*
X205867089Y-94598955D01*
X205863478Y-94591036D01*
X205834394Y-94520821D01*
X205834390Y-94520814D01*
X205746789Y-94389711D01*
X205746786Y-94389707D01*
X205635292Y-94278213D01*
X205635288Y-94278210D01*
X205504185Y-94190609D01*
X205504172Y-94190602D01*
X205358501Y-94130264D01*
X205358491Y-94130261D01*
X205213454Y-94101411D01*
X205151543Y-94069026D01*
X205116969Y-94008310D01*
X205120710Y-93938540D01*
X205148072Y-93895120D01*
X205147924Y-93894999D01*
X205148892Y-93893818D01*
X205149972Y-93892106D01*
X205151789Y-93890289D01*
X205239394Y-93759179D01*
X205299737Y-93613497D01*
X205330500Y-93458842D01*
X205330500Y-93301158D01*
X205330500Y-93301155D01*
X205330499Y-93301153D01*
X205310918Y-93202715D01*
X205299737Y-93146503D01*
X205284737Y-93110289D01*
X205239397Y-93000827D01*
X205239390Y-93000814D01*
X205151789Y-92869711D01*
X205151786Y-92869707D01*
X205040292Y-92758213D01*
X205040288Y-92758210D01*
X204909185Y-92670609D01*
X204909172Y-92670602D01*
X204763501Y-92610264D01*
X204763489Y-92610261D01*
X204608845Y-92579500D01*
X204608842Y-92579500D01*
X204451158Y-92579500D01*
X204451155Y-92579500D01*
X204296510Y-92610261D01*
X204296498Y-92610264D01*
X204150827Y-92670602D01*
X204150814Y-92670609D01*
X204019711Y-92758210D01*
X204019707Y-92758213D01*
X203908213Y-92869707D01*
X203908210Y-92869711D01*
X203820609Y-93000814D01*
X203820602Y-93000827D01*
X203760264Y-93146498D01*
X203760261Y-93146510D01*
X203729500Y-93301153D01*
X203729500Y-93458846D01*
X203760261Y-93613489D01*
X203760264Y-93613501D01*
X203820602Y-93759172D01*
X203820609Y-93759185D01*
X203908210Y-93890288D01*
X203908213Y-93890292D01*
X204019707Y-94001786D01*
X204019711Y-94001789D01*
X204150814Y-94089390D01*
X204150827Y-94089397D01*
X204284427Y-94144735D01*
X204296503Y-94149737D01*
X204372511Y-94164856D01*
X204441544Y-94178588D01*
X204503455Y-94210973D01*
X204538029Y-94271688D01*
X204534290Y-94341458D01*
X204506929Y-94384881D01*
X204507076Y-94385001D01*
X204506121Y-94386163D01*
X204505041Y-94387879D01*
X204503217Y-94389703D01*
X204503210Y-94389711D01*
X204415609Y-94520814D01*
X204415602Y-94520827D01*
X204355264Y-94666498D01*
X204355261Y-94666510D01*
X204324500Y-94821153D01*
X204324500Y-94978846D01*
X204355261Y-95133489D01*
X204355264Y-95133501D01*
X204415602Y-95279172D01*
X204415609Y-95279185D01*
X204503210Y-95410288D01*
X204503213Y-95410292D01*
X204614707Y-95521786D01*
X204614711Y-95521789D01*
X204745814Y-95609390D01*
X204745827Y-95609397D01*
X204891498Y-95669735D01*
X204891503Y-95669737D01*
X205012259Y-95693757D01*
X205046153Y-95700499D01*
X205046156Y-95700500D01*
X205046158Y-95700500D01*
X205203844Y-95700500D01*
X205203845Y-95700499D01*
X205358497Y-95669737D01*
X205504179Y-95609394D01*
X205635289Y-95521789D01*
X205746789Y-95410289D01*
X205834394Y-95279179D01*
X205834396Y-95279172D01*
X205837264Y-95273809D01*
X205839604Y-95275059D01*
X205876207Y-95229603D01*
X205942492Y-95207512D01*
X206010198Y-95224764D01*
X206057829Y-95275883D01*
X206061528Y-95283979D01*
X206090602Y-95354172D01*
X206090609Y-95354185D01*
X206178210Y-95485288D01*
X206178213Y-95485292D01*
X206289707Y-95596786D01*
X206289711Y-95596789D01*
X206420814Y-95684390D01*
X206420827Y-95684397D01*
X206566498Y-95744735D01*
X206566503Y-95744737D01*
X206721153Y-95775499D01*
X206721156Y-95775500D01*
X206721158Y-95775500D01*
X206878844Y-95775500D01*
X206878845Y-95775499D01*
X207033497Y-95744737D01*
X207179179Y-95684394D01*
X207310289Y-95596789D01*
X207421789Y-95485289D01*
X207509394Y-95354179D01*
X207569737Y-95208497D01*
X207600500Y-95053842D01*
X207600500Y-94896158D01*
X207600500Y-94896155D01*
X207600499Y-94896153D01*
X207583650Y-94811447D01*
X207569737Y-94741503D01*
X207569735Y-94741498D01*
X207509397Y-94595827D01*
X207509390Y-94595814D01*
X207421789Y-94464711D01*
X207421786Y-94464707D01*
X207310292Y-94353213D01*
X207310288Y-94353210D01*
X207179185Y-94265609D01*
X207173809Y-94262736D01*
X207174847Y-94260793D01*
X207128147Y-94223165D01*
X207106079Y-94156872D01*
X207123355Y-94089171D01*
X207142310Y-94064767D01*
X207152517Y-94054560D01*
X207213835Y-94021075D01*
X207283527Y-94026056D01*
X207309090Y-94039138D01*
X207376814Y-94084390D01*
X207376827Y-94084397D01*
X207522498Y-94144735D01*
X207522503Y-94144737D01*
X207677153Y-94175499D01*
X207677156Y-94175500D01*
X207677158Y-94175500D01*
X207834844Y-94175500D01*
X207834845Y-94175499D01*
X207989497Y-94144737D01*
X208123108Y-94089394D01*
X208135172Y-94084397D01*
X208135172Y-94084396D01*
X208135179Y-94084394D01*
X208244576Y-94011296D01*
X208311253Y-93990419D01*
X208378633Y-94008903D01*
X208423952Y-94058104D01*
X208456400Y-94121786D01*
X208483768Y-94175499D01*
X208484951Y-94177819D01*
X208609890Y-94349786D01*
X208760213Y-94500109D01*
X208932182Y-94625050D01*
X208940946Y-94629516D01*
X208991742Y-94677491D01*
X209008536Y-94745312D01*
X208985998Y-94811447D01*
X208940946Y-94850484D01*
X208932182Y-94854949D01*
X208760213Y-94979890D01*
X208609890Y-95130213D01*
X208484951Y-95302179D01*
X208388444Y-95491585D01*
X208322753Y-95693760D01*
X208289500Y-95903713D01*
X208289500Y-96116286D01*
X208309844Y-96244737D01*
X208322754Y-96326243D01*
X208324718Y-96332289D01*
X208388444Y-96528414D01*
X208484951Y-96717820D01*
X208609890Y-96889786D01*
X208760213Y-97040109D01*
X208932179Y-97165048D01*
X208932181Y-97165049D01*
X208932184Y-97165051D01*
X208941493Y-97169794D01*
X208992290Y-97217766D01*
X209009087Y-97285587D01*
X208986552Y-97351722D01*
X208941505Y-97390760D01*
X208932446Y-97395376D01*
X208932440Y-97395380D01*
X208878282Y-97434727D01*
X208878282Y-97434728D01*
X209510591Y-98067037D01*
X209447007Y-98084075D01*
X209332993Y-98149901D01*
X209239901Y-98242993D01*
X209174075Y-98357007D01*
X209157037Y-98420591D01*
X208524728Y-97788282D01*
X208524727Y-97788282D01*
X208485380Y-97842439D01*
X208388904Y-98031782D01*
X208323242Y-98233869D01*
X208323242Y-98233872D01*
X208290000Y-98443753D01*
X208290000Y-98656246D01*
X208323242Y-98866127D01*
X208323242Y-98866130D01*
X208388904Y-99068217D01*
X208485375Y-99257550D01*
X208524728Y-99311716D01*
X209157037Y-98679408D01*
X209174075Y-98742993D01*
X209239901Y-98857007D01*
X209332993Y-98950099D01*
X209447007Y-99015925D01*
X209510590Y-99032962D01*
X208878282Y-99665269D01*
X208878282Y-99665270D01*
X208932452Y-99704626D01*
X208932451Y-99704626D01*
X208941495Y-99709234D01*
X208992292Y-99757208D01*
X209009087Y-99825029D01*
X208986550Y-99891164D01*
X208941499Y-99930202D01*
X208932182Y-99934949D01*
X208760213Y-100059890D01*
X208609890Y-100210213D01*
X208484951Y-100382179D01*
X208388444Y-100571585D01*
X208322753Y-100773760D01*
X208289500Y-100983713D01*
X208289500Y-101196286D01*
X208322753Y-101406239D01*
X208388444Y-101608414D01*
X208484951Y-101797820D01*
X208609890Y-101969786D01*
X208760213Y-102120109D01*
X208932182Y-102245050D01*
X208940946Y-102249516D01*
X208991742Y-102297491D01*
X209008536Y-102365312D01*
X208985998Y-102431447D01*
X208940946Y-102470484D01*
X208932182Y-102474949D01*
X208760213Y-102599890D01*
X208609890Y-102750213D01*
X208484951Y-102922179D01*
X208388444Y-103111585D01*
X208322753Y-103313760D01*
X208321104Y-103324174D01*
X208289500Y-103523713D01*
X208289500Y-103736287D01*
X208322754Y-103946243D01*
X208388443Y-104148412D01*
X208459503Y-104287876D01*
X208484951Y-104337819D01*
X208604681Y-104502615D01*
X208628161Y-104568421D01*
X208612335Y-104636475D01*
X208562229Y-104685170D01*
X208504363Y-104699500D01*
X204166869Y-104699500D01*
X204099830Y-104679815D01*
X204054075Y-104627011D01*
X204044131Y-104557853D01*
X204073156Y-104494297D01*
X204093984Y-104475181D01*
X204169792Y-104420104D01*
X204320104Y-104269792D01*
X204320106Y-104269788D01*
X204320109Y-104269786D01*
X204445048Y-104097820D01*
X204445050Y-104097817D01*
X204445051Y-104097816D01*
X204541557Y-103908412D01*
X204607246Y-103706243D01*
X204640500Y-103496287D01*
X204640500Y-103283713D01*
X204607246Y-103073757D01*
X204541557Y-102871588D01*
X204445051Y-102682184D01*
X204445049Y-102682181D01*
X204445048Y-102682179D01*
X204320109Y-102510213D01*
X204169786Y-102359890D01*
X203997820Y-102234951D01*
X203808414Y-102138444D01*
X203808413Y-102138443D01*
X203808412Y-102138443D01*
X203606243Y-102072754D01*
X203606241Y-102072753D01*
X203606240Y-102072753D01*
X203444957Y-102047208D01*
X203396287Y-102039500D01*
X203183713Y-102039500D01*
X203135042Y-102047208D01*
X202973760Y-102072753D01*
X202771585Y-102138444D01*
X202582179Y-102234951D01*
X202410213Y-102359890D01*
X202259890Y-102510213D01*
X202134949Y-102682182D01*
X202130202Y-102691499D01*
X202082227Y-102742293D01*
X202014405Y-102759087D01*
X201948271Y-102736548D01*
X201909234Y-102691495D01*
X201904626Y-102682452D01*
X201865270Y-102628282D01*
X201865269Y-102628282D01*
X201232962Y-103260590D01*
X201215925Y-103197007D01*
X201150099Y-103082993D01*
X201057007Y-102989901D01*
X200942993Y-102924075D01*
X200879409Y-102907037D01*
X201511716Y-102274728D01*
X201457550Y-102235375D01*
X201268217Y-102138904D01*
X201066129Y-102073242D01*
X200856246Y-102040000D01*
X200643754Y-102040000D01*
X200433872Y-102073242D01*
X200433869Y-102073242D01*
X200231782Y-102138904D01*
X200042439Y-102235380D01*
X199988282Y-102274727D01*
X199988282Y-102274728D01*
X200620591Y-102907037D01*
X200557007Y-102924075D01*
X200442993Y-102989901D01*
X200349901Y-103082993D01*
X200284075Y-103197007D01*
X200267037Y-103260591D01*
X199596818Y-102590372D01*
X199563333Y-102529049D01*
X199563330Y-102529036D01*
X199560499Y-102516015D01*
X199560499Y-102492128D01*
X199554091Y-102432517D01*
X199520165Y-102341557D01*
X199503798Y-102297673D01*
X199503793Y-102297664D01*
X199417547Y-102182455D01*
X199417544Y-102182452D01*
X199302335Y-102096206D01*
X199302328Y-102096202D01*
X199167482Y-102045908D01*
X199167483Y-102045908D01*
X199107883Y-102039501D01*
X199107881Y-102039500D01*
X199107873Y-102039500D01*
X199107864Y-102039500D01*
X197312129Y-102039500D01*
X197312123Y-102039501D01*
X197252516Y-102045908D01*
X197117671Y-102096202D01*
X197117664Y-102096206D01*
X197002455Y-102182452D01*
X197002452Y-102182455D01*
X196916206Y-102297664D01*
X196916202Y-102297671D01*
X196865908Y-102432517D01*
X196859501Y-102492116D01*
X196859500Y-102492135D01*
X196859500Y-104287870D01*
X196859501Y-104287876D01*
X196865908Y-104347483D01*
X196916202Y-104482328D01*
X196916204Y-104482331D01*
X196930321Y-104501189D01*
X196954738Y-104566654D01*
X196939886Y-104634927D01*
X196890481Y-104684332D01*
X196831054Y-104699500D01*
X192995637Y-104699500D01*
X192928598Y-104679815D01*
X192882843Y-104627011D01*
X192872899Y-104557853D01*
X192895319Y-104502615D01*
X193008025Y-104347486D01*
X193015051Y-104337816D01*
X193111557Y-104148412D01*
X193177246Y-103946243D01*
X193210500Y-103736287D01*
X193210500Y-103523713D01*
X193177246Y-103313757D01*
X193111557Y-103111588D01*
X193015051Y-102922184D01*
X193015049Y-102922181D01*
X193015048Y-102922179D01*
X192890109Y-102750213D01*
X192739786Y-102599890D01*
X192567820Y-102474951D01*
X192567115Y-102474591D01*
X192559054Y-102470485D01*
X192508259Y-102422512D01*
X192491463Y-102354692D01*
X192513999Y-102288556D01*
X192559054Y-102249515D01*
X192567816Y-102245051D01*
X192653977Y-102182452D01*
X192739786Y-102120109D01*
X192739788Y-102120106D01*
X192739792Y-102120104D01*
X192890104Y-101969792D01*
X192890106Y-101969788D01*
X192890109Y-101969786D01*
X193015048Y-101797820D01*
X193015047Y-101797820D01*
X193015051Y-101797816D01*
X193111557Y-101608412D01*
X193177246Y-101406243D01*
X193210500Y-101196287D01*
X193210500Y-100983713D01*
X193177246Y-100773757D01*
X193111557Y-100571588D01*
X193015051Y-100382184D01*
X193015049Y-100382181D01*
X193015048Y-100382179D01*
X192890109Y-100210213D01*
X192739786Y-100059890D01*
X192567817Y-99934949D01*
X192558504Y-99930204D01*
X192507707Y-99882230D01*
X192490912Y-99814409D01*
X192513449Y-99748274D01*
X192558507Y-99709232D01*
X192567555Y-99704622D01*
X192621716Y-99665270D01*
X192621717Y-99665270D01*
X191989408Y-99032962D01*
X192052993Y-99015925D01*
X192167007Y-98950099D01*
X192260099Y-98857007D01*
X192325925Y-98742993D01*
X192342962Y-98679408D01*
X192975270Y-99311717D01*
X192975270Y-99311716D01*
X193014622Y-99257554D01*
X193111095Y-99068217D01*
X193176757Y-98866130D01*
X193176757Y-98866127D01*
X193210000Y-98656246D01*
X193210000Y-98443753D01*
X193176757Y-98233872D01*
X193176757Y-98233869D01*
X193111095Y-98031782D01*
X193014624Y-97842449D01*
X192975270Y-97788282D01*
X192975269Y-97788282D01*
X192342962Y-98420590D01*
X192325925Y-98357007D01*
X192260099Y-98242993D01*
X192167007Y-98149901D01*
X192052993Y-98084075D01*
X191989409Y-98067037D01*
X192621716Y-97434728D01*
X192567547Y-97395373D01*
X192567547Y-97395372D01*
X192558500Y-97390763D01*
X192507706Y-97342788D01*
X192490912Y-97274966D01*
X192513451Y-97208832D01*
X192558508Y-97169793D01*
X192567816Y-97165051D01*
X192647007Y-97107515D01*
X192739786Y-97040109D01*
X192739788Y-97040106D01*
X192739792Y-97040104D01*
X192890104Y-96889792D01*
X192900863Y-96874983D01*
X198599500Y-96874983D01*
X198599500Y-98225001D01*
X198599501Y-98225018D01*
X198610000Y-98327796D01*
X198610001Y-98327799D01*
X198648425Y-98443753D01*
X198665186Y-98494334D01*
X198757288Y-98643656D01*
X198881344Y-98767712D01*
X199030666Y-98859814D01*
X199197203Y-98914999D01*
X199299991Y-98925500D01*
X200100008Y-98925499D01*
X200100016Y-98925498D01*
X200100019Y-98925498D01*
X200156302Y-98919748D01*
X200202797Y-98914999D01*
X200369334Y-98859814D01*
X200518656Y-98767712D01*
X200642712Y-98643656D01*
X200682581Y-98579016D01*
X200734525Y-98532294D01*
X200803488Y-98521071D01*
X200867570Y-98548914D01*
X200875799Y-98556434D01*
X200983397Y-98664032D01*
X201123475Y-98765804D01*
X201277744Y-98844408D01*
X201442415Y-98897914D01*
X201442414Y-98897914D01*
X201449999Y-98899115D01*
X201450000Y-98899114D01*
X201450000Y-97830330D01*
X201469745Y-97850075D01*
X201555255Y-97899444D01*
X201650630Y-97925000D01*
X201749370Y-97925000D01*
X201844745Y-97899444D01*
X201930255Y-97850075D01*
X201950000Y-97830330D01*
X201950000Y-98899115D01*
X201957584Y-98897914D01*
X202122255Y-98844408D01*
X202276524Y-98765804D01*
X202416602Y-98664032D01*
X202539032Y-98541602D01*
X202640805Y-98401521D01*
X202650455Y-98382585D01*
X202719408Y-98247257D01*
X202772914Y-98082584D01*
X202800000Y-97911571D01*
X202800000Y-97800000D01*
X201980330Y-97800000D01*
X202000075Y-97780255D01*
X202049444Y-97694745D01*
X202075000Y-97599370D01*
X202075000Y-97500630D01*
X202049444Y-97405255D01*
X202000075Y-97319745D01*
X201980330Y-97300000D01*
X202800000Y-97300000D01*
X202800000Y-97188428D01*
X202772914Y-97017415D01*
X202719408Y-96852742D01*
X202640804Y-96698475D01*
X202539032Y-96558397D01*
X202416602Y-96435967D01*
X202276524Y-96334195D01*
X202122257Y-96255591D01*
X201957589Y-96202087D01*
X201957581Y-96202085D01*
X201950000Y-96200884D01*
X201950000Y-97269670D01*
X201930255Y-97249925D01*
X201844745Y-97200556D01*
X201749370Y-97175000D01*
X201650630Y-97175000D01*
X201555255Y-97200556D01*
X201469745Y-97249925D01*
X201450000Y-97269670D01*
X201450000Y-96200884D01*
X201449999Y-96200884D01*
X201442418Y-96202085D01*
X201442406Y-96202088D01*
X201322708Y-96240981D01*
X201252867Y-96242976D01*
X201193034Y-96206896D01*
X201162206Y-96144195D01*
X201170171Y-96074781D01*
X201196710Y-96035368D01*
X201246786Y-95985292D01*
X201246789Y-95985289D01*
X201334394Y-95854179D01*
X201394737Y-95708497D01*
X201425500Y-95553842D01*
X201425500Y-95396158D01*
X201425500Y-95396155D01*
X201425499Y-95396153D01*
X201402230Y-95279172D01*
X201394737Y-95241503D01*
X201377616Y-95200169D01*
X201334397Y-95095827D01*
X201334390Y-95095814D01*
X201246789Y-94964711D01*
X201246786Y-94964707D01*
X201135292Y-94853213D01*
X201135288Y-94853210D01*
X201004185Y-94765609D01*
X201004172Y-94765602D01*
X200858501Y-94705264D01*
X200858489Y-94705261D01*
X200703845Y-94674500D01*
X200703842Y-94674500D01*
X200546158Y-94674500D01*
X200546155Y-94674500D01*
X200391510Y-94705261D01*
X200391498Y-94705264D01*
X200245827Y-94765602D01*
X200245814Y-94765609D01*
X200114711Y-94853210D01*
X200114707Y-94853213D01*
X200003213Y-94964707D01*
X200003210Y-94964711D01*
X199915609Y-95095814D01*
X199915602Y-95095827D01*
X199855264Y-95241498D01*
X199855261Y-95241510D01*
X199824500Y-95396153D01*
X199824500Y-95553846D01*
X199855261Y-95708489D01*
X199855264Y-95708501D01*
X199915602Y-95854172D01*
X199915609Y-95854185D01*
X200000751Y-95981609D01*
X200021629Y-96048287D01*
X200003144Y-96115667D01*
X199951165Y-96162357D01*
X199897649Y-96174500D01*
X199299998Y-96174500D01*
X199299980Y-96174501D01*
X199197203Y-96185000D01*
X199197200Y-96185001D01*
X199030668Y-96240185D01*
X199030663Y-96240187D01*
X198881342Y-96332289D01*
X198757289Y-96456342D01*
X198665187Y-96605663D01*
X198665186Y-96605666D01*
X198610001Y-96772203D01*
X198610001Y-96772204D01*
X198610000Y-96772204D01*
X198599500Y-96874983D01*
X192900863Y-96874983D01*
X192940934Y-96819830D01*
X192956103Y-96798952D01*
X192956105Y-96798949D01*
X192981401Y-96764131D01*
X193015051Y-96717816D01*
X193111557Y-96528412D01*
X193177246Y-96326243D01*
X193210500Y-96116287D01*
X193210500Y-95903713D01*
X193177246Y-95693757D01*
X193111557Y-95491588D01*
X193015051Y-95302184D01*
X193015049Y-95302181D01*
X193015048Y-95302179D01*
X192890109Y-95130213D01*
X192739786Y-94979890D01*
X192567820Y-94854951D01*
X192564403Y-94853210D01*
X192559054Y-94850485D01*
X192508259Y-94802512D01*
X192491463Y-94734692D01*
X192513999Y-94668556D01*
X192559054Y-94629515D01*
X192567816Y-94625051D01*
X192608058Y-94595814D01*
X192739786Y-94500109D01*
X192739788Y-94500106D01*
X192739792Y-94500104D01*
X192890104Y-94349792D01*
X192890106Y-94349788D01*
X192890109Y-94349786D01*
X193015048Y-94177820D01*
X193015049Y-94177819D01*
X193015051Y-94177816D01*
X193111557Y-93988412D01*
X193177246Y-93786243D01*
X193210500Y-93576287D01*
X193210500Y-93363713D01*
X193177246Y-93153757D01*
X193111557Y-92951588D01*
X193015051Y-92762184D01*
X192940644Y-92659771D01*
X192890107Y-92590212D01*
X192890105Y-92590209D01*
X192821049Y-92521153D01*
X194574500Y-92521153D01*
X194574500Y-92678846D01*
X194605261Y-92833489D01*
X194605264Y-92833501D01*
X194665602Y-92979172D01*
X194665609Y-92979185D01*
X194753210Y-93110288D01*
X194753213Y-93110292D01*
X194864707Y-93221786D01*
X194864711Y-93221789D01*
X194995814Y-93309390D01*
X194995827Y-93309397D01*
X195141498Y-93369735D01*
X195141503Y-93369737D01*
X195296153Y-93400499D01*
X195296156Y-93400500D01*
X195296158Y-93400500D01*
X195453844Y-93400500D01*
X195453845Y-93400499D01*
X195608497Y-93369737D01*
X195754179Y-93309394D01*
X195885289Y-93221789D01*
X195996789Y-93110289D01*
X196084394Y-92979179D01*
X196144737Y-92833497D01*
X196175500Y-92678842D01*
X196175500Y-92521158D01*
X196175308Y-92520192D01*
X196175308Y-92520189D01*
X196175307Y-92520186D01*
X196171706Y-92502082D01*
X198067653Y-92502082D01*
X198067653Y-92659775D01*
X198098414Y-92814418D01*
X198098417Y-92814430D01*
X198158755Y-92960101D01*
X198158762Y-92960114D01*
X198246363Y-93091217D01*
X198246366Y-93091221D01*
X198357860Y-93202715D01*
X198357864Y-93202718D01*
X198488967Y-93290319D01*
X198488980Y-93290326D01*
X198634651Y-93350664D01*
X198634656Y-93350666D01*
X198789306Y-93381428D01*
X198789309Y-93381429D01*
X198789311Y-93381429D01*
X198946997Y-93381429D01*
X198946998Y-93381428D01*
X199101650Y-93350666D01*
X199247332Y-93290323D01*
X199378442Y-93202718D01*
X199489942Y-93091218D01*
X199577547Y-92960108D01*
X199637890Y-92814426D01*
X199668653Y-92659771D01*
X199668653Y-92502087D01*
X199668653Y-92502084D01*
X199668652Y-92502082D01*
X199637891Y-92347439D01*
X199637890Y-92347432D01*
X199622586Y-92310484D01*
X199577550Y-92201756D01*
X199577543Y-92201743D01*
X199489942Y-92070640D01*
X199489939Y-92070636D01*
X199378445Y-91959142D01*
X199378441Y-91959139D01*
X199247338Y-91871538D01*
X199247325Y-91871531D01*
X199101654Y-91811193D01*
X199101642Y-91811190D01*
X198946998Y-91780429D01*
X198946995Y-91780429D01*
X198789311Y-91780429D01*
X198789308Y-91780429D01*
X198634663Y-91811190D01*
X198634651Y-91811193D01*
X198488980Y-91871531D01*
X198488967Y-91871538D01*
X198357864Y-91959139D01*
X198357860Y-91959142D01*
X198246366Y-92070636D01*
X198246363Y-92070640D01*
X198158762Y-92201743D01*
X198158755Y-92201756D01*
X198098417Y-92347427D01*
X198098414Y-92347439D01*
X198067653Y-92502082D01*
X196171706Y-92502082D01*
X196144738Y-92366510D01*
X196144737Y-92366503D01*
X196144735Y-92366498D01*
X196084397Y-92220827D01*
X196084390Y-92220814D01*
X195996789Y-92089711D01*
X195996786Y-92089707D01*
X195885292Y-91978213D01*
X195885288Y-91978210D01*
X195754185Y-91890609D01*
X195754172Y-91890602D01*
X195608501Y-91830264D01*
X195608489Y-91830261D01*
X195453845Y-91799500D01*
X195453842Y-91799500D01*
X195296158Y-91799500D01*
X195296155Y-91799500D01*
X195141510Y-91830261D01*
X195141498Y-91830264D01*
X194995827Y-91890602D01*
X194995814Y-91890609D01*
X194864711Y-91978210D01*
X194864707Y-91978213D01*
X194753213Y-92089707D01*
X194753210Y-92089711D01*
X194665609Y-92220814D01*
X194665602Y-92220827D01*
X194605264Y-92366498D01*
X194605261Y-92366510D01*
X194574500Y-92521153D01*
X192821049Y-92521153D01*
X192739786Y-92439890D01*
X192567820Y-92314951D01*
X192567115Y-92314591D01*
X192559054Y-92310485D01*
X192508259Y-92262512D01*
X192491463Y-92194692D01*
X192513999Y-92128556D01*
X192559054Y-92089515D01*
X192567816Y-92085051D01*
X192589789Y-92069086D01*
X192739786Y-91960109D01*
X192739788Y-91960106D01*
X192739792Y-91960104D01*
X192890104Y-91809792D01*
X192890106Y-91809788D01*
X192890109Y-91809786D01*
X193015048Y-91637820D01*
X193015047Y-91637820D01*
X193015051Y-91637816D01*
X193111557Y-91448412D01*
X193177246Y-91246243D01*
X193210500Y-91036287D01*
X193210500Y-90823713D01*
X193177246Y-90613757D01*
X193111557Y-90411588D01*
X193015051Y-90222184D01*
X193015049Y-90222181D01*
X193015048Y-90222179D01*
X192890109Y-90050213D01*
X192739786Y-89899890D01*
X192567820Y-89774951D01*
X192567115Y-89774591D01*
X192559054Y-89770485D01*
X192508259Y-89722512D01*
X192491463Y-89654692D01*
X192513999Y-89588556D01*
X192559054Y-89549515D01*
X192567816Y-89545051D01*
X192629137Y-89500499D01*
X192739786Y-89420109D01*
X192739788Y-89420106D01*
X192739792Y-89420104D01*
X192890104Y-89269792D01*
X192890106Y-89269788D01*
X192890109Y-89269786D01*
X193015048Y-89097820D01*
X193015047Y-89097820D01*
X193015051Y-89097816D01*
X193097201Y-88936588D01*
X193372500Y-88936588D01*
X193372500Y-89094276D01*
X193403261Y-89248919D01*
X193403264Y-89248931D01*
X193463602Y-89394602D01*
X193463609Y-89394615D01*
X193551210Y-89525718D01*
X193551213Y-89525722D01*
X193662707Y-89637216D01*
X193662711Y-89637219D01*
X193793814Y-89724820D01*
X193793821Y-89724824D01*
X193864574Y-89754130D01*
X193918976Y-89797970D01*
X193941042Y-89864264D01*
X193923764Y-89931963D01*
X193920224Y-89937581D01*
X193864608Y-90020816D01*
X193864602Y-90020827D01*
X193804264Y-90166498D01*
X193804261Y-90166510D01*
X193773500Y-90321153D01*
X193773500Y-90478846D01*
X193804261Y-90633489D01*
X193804264Y-90633501D01*
X193864602Y-90779172D01*
X193864609Y-90779185D01*
X193952210Y-90910288D01*
X193952213Y-90910292D01*
X194063707Y-91021786D01*
X194063711Y-91021789D01*
X194194814Y-91109390D01*
X194194827Y-91109397D01*
X194340498Y-91169735D01*
X194340503Y-91169737D01*
X194495153Y-91200499D01*
X194495156Y-91200500D01*
X194495158Y-91200500D01*
X194652844Y-91200500D01*
X194652845Y-91200499D01*
X194807497Y-91169737D01*
X194953179Y-91109394D01*
X195084289Y-91021789D01*
X195195789Y-90910289D01*
X195283394Y-90779179D01*
X195343737Y-90633497D01*
X195374500Y-90478842D01*
X195374500Y-90421153D01*
X197624500Y-90421153D01*
X197624500Y-90578846D01*
X197655261Y-90733489D01*
X197655264Y-90733501D01*
X197715602Y-90879172D01*
X197715609Y-90879185D01*
X197803210Y-91010288D01*
X197803213Y-91010292D01*
X197914707Y-91121786D01*
X197914711Y-91121789D01*
X198045814Y-91209390D01*
X198045827Y-91209397D01*
X198191498Y-91269735D01*
X198191503Y-91269737D01*
X198346153Y-91300499D01*
X198346156Y-91300500D01*
X198346158Y-91300500D01*
X198503844Y-91300500D01*
X198503845Y-91300499D01*
X198658497Y-91269737D01*
X198804179Y-91209394D01*
X198935289Y-91121789D01*
X199046789Y-91010289D01*
X199134394Y-90879179D01*
X199194737Y-90733497D01*
X199225500Y-90578842D01*
X199225500Y-90421158D01*
X199225500Y-90421155D01*
X199225499Y-90421153D01*
X199214627Y-90366498D01*
X199194737Y-90266503D01*
X199168452Y-90203044D01*
X199134397Y-90120827D01*
X199134390Y-90120814D01*
X199046789Y-89989711D01*
X199046786Y-89989707D01*
X198935292Y-89878213D01*
X198935288Y-89878210D01*
X198804185Y-89790609D01*
X198804172Y-89790602D01*
X198658501Y-89730264D01*
X198658489Y-89730261D01*
X198503845Y-89699500D01*
X198503842Y-89699500D01*
X198346158Y-89699500D01*
X198346155Y-89699500D01*
X198191510Y-89730261D01*
X198191498Y-89730264D01*
X198045827Y-89790602D01*
X198045814Y-89790609D01*
X197914711Y-89878210D01*
X197914707Y-89878213D01*
X197803213Y-89989707D01*
X197803210Y-89989711D01*
X197715609Y-90120814D01*
X197715602Y-90120827D01*
X197655264Y-90266498D01*
X197655261Y-90266510D01*
X197624500Y-90421153D01*
X195374500Y-90421153D01*
X195374500Y-90321158D01*
X195374500Y-90321155D01*
X195374499Y-90321153D01*
X195343737Y-90166503D01*
X195333610Y-90142054D01*
X195283397Y-90020827D01*
X195283390Y-90020814D01*
X195195789Y-89889711D01*
X195195786Y-89889707D01*
X195084292Y-89778213D01*
X195084288Y-89778210D01*
X194953185Y-89690609D01*
X194953172Y-89690602D01*
X194882426Y-89661299D01*
X194828022Y-89617459D01*
X194805957Y-89551164D01*
X194823236Y-89483465D01*
X194826776Y-89477847D01*
X194864299Y-89421690D01*
X194882394Y-89394609D01*
X194942737Y-89248927D01*
X194973500Y-89094272D01*
X194973500Y-88936588D01*
X194973500Y-88936585D01*
X194973499Y-88936583D01*
X194959113Y-88864257D01*
X194955512Y-88846153D01*
X199199500Y-88846153D01*
X199199500Y-89003846D01*
X199230261Y-89158489D01*
X199230264Y-89158501D01*
X199290602Y-89304172D01*
X199290609Y-89304185D01*
X199378210Y-89435288D01*
X199378213Y-89435292D01*
X199489707Y-89546786D01*
X199489711Y-89546789D01*
X199620814Y-89634390D01*
X199620827Y-89634397D01*
X199756520Y-89690602D01*
X199766503Y-89694737D01*
X199917760Y-89724824D01*
X199921153Y-89725499D01*
X199921156Y-89725500D01*
X199921158Y-89725500D01*
X200078844Y-89725500D01*
X200078845Y-89725499D01*
X200233497Y-89694737D01*
X200379179Y-89634394D01*
X200379184Y-89634390D01*
X200379187Y-89634389D01*
X200449763Y-89587231D01*
X200516440Y-89566352D01*
X200583821Y-89584836D01*
X200630511Y-89636814D01*
X200641688Y-89705784D01*
X200640274Y-89714515D01*
X200638781Y-89722022D01*
X200638781Y-89879715D01*
X200669541Y-90034357D01*
X200669543Y-90034362D01*
X200669544Y-90034366D01*
X200688950Y-90081216D01*
X200700682Y-90109541D01*
X200703883Y-90139327D01*
X200709562Y-90168743D01*
X200707818Y-90175937D01*
X200708149Y-90179010D01*
X200701251Y-90203044D01*
X200701249Y-90203049D01*
X200695480Y-90215444D01*
X200692604Y-90220825D01*
X200632264Y-90366498D01*
X200632261Y-90366510D01*
X200601500Y-90521153D01*
X200601500Y-90678846D01*
X200632261Y-90833489D01*
X200632264Y-90833501D01*
X200692602Y-90979172D01*
X200692609Y-90979185D01*
X200780210Y-91110288D01*
X200780213Y-91110292D01*
X200891707Y-91221786D01*
X200891711Y-91221789D01*
X201022814Y-91309390D01*
X201022827Y-91309397D01*
X201168498Y-91369735D01*
X201168503Y-91369737D01*
X201290169Y-91393938D01*
X201323153Y-91400499D01*
X201323156Y-91400500D01*
X201323158Y-91400500D01*
X201480844Y-91400500D01*
X201480845Y-91400499D01*
X201635497Y-91369737D01*
X201779612Y-91310042D01*
X201849081Y-91302574D01*
X201911560Y-91333849D01*
X201947212Y-91393938D01*
X201948681Y-91400411D01*
X201955261Y-91433492D01*
X201955264Y-91433501D01*
X202015602Y-91579172D01*
X202015609Y-91579185D01*
X202103210Y-91710288D01*
X202103213Y-91710292D01*
X202214707Y-91821786D01*
X202214711Y-91821789D01*
X202345814Y-91909390D01*
X202345827Y-91909397D01*
X202491498Y-91969735D01*
X202491503Y-91969737D01*
X202646153Y-92000499D01*
X202646156Y-92000500D01*
X202646158Y-92000500D01*
X202803844Y-92000500D01*
X202803845Y-92000499D01*
X202958497Y-91969737D01*
X203104179Y-91909394D01*
X203235289Y-91821789D01*
X203346789Y-91710289D01*
X203434394Y-91579179D01*
X203494737Y-91433497D01*
X203525500Y-91278842D01*
X203525500Y-91121158D01*
X203525500Y-91121155D01*
X203525499Y-91121153D01*
X203505734Y-91021789D01*
X203494737Y-90966503D01*
X203458569Y-90879185D01*
X203434397Y-90820827D01*
X203434390Y-90820814D01*
X203346789Y-90689711D01*
X203346786Y-90689707D01*
X203235292Y-90578213D01*
X203235288Y-90578210D01*
X203104185Y-90490609D01*
X203104172Y-90490602D01*
X202958501Y-90430264D01*
X202958489Y-90430261D01*
X202803845Y-90399500D01*
X202803842Y-90399500D01*
X202646158Y-90399500D01*
X202646155Y-90399500D01*
X202491510Y-90430261D01*
X202491498Y-90430264D01*
X202347387Y-90489956D01*
X202334413Y-90491350D01*
X202322786Y-90497271D01*
X202300345Y-90495013D01*
X202277917Y-90497425D01*
X202266248Y-90491583D01*
X202253267Y-90490278D01*
X202235608Y-90476246D01*
X202215438Y-90466149D01*
X202207527Y-90453931D01*
X202198565Y-90446810D01*
X202190037Y-90426919D01*
X202182551Y-90415358D01*
X202179914Y-90407613D01*
X202171737Y-90366503D01*
X202139061Y-90287616D01*
X202137775Y-90283838D01*
X202136452Y-90252774D01*
X202133129Y-90221859D01*
X202134979Y-90218161D01*
X202134804Y-90214032D01*
X202150159Y-90187742D01*
X202145806Y-90185415D01*
X202148671Y-90180053D01*
X202148675Y-90180048D01*
X202209018Y-90034366D01*
X202239781Y-89879711D01*
X202239781Y-89722027D01*
X202239781Y-89722024D01*
X202239780Y-89722022D01*
X202234352Y-89694735D01*
X202209018Y-89567372D01*
X202208596Y-89566352D01*
X202148678Y-89421696D01*
X202148671Y-89421683D01*
X202061070Y-89290580D01*
X202061067Y-89290576D01*
X201949573Y-89179082D01*
X201949569Y-89179079D01*
X201818466Y-89091478D01*
X201818453Y-89091471D01*
X201672782Y-89031133D01*
X201672770Y-89031130D01*
X201518126Y-89000369D01*
X201518123Y-89000369D01*
X201360439Y-89000369D01*
X201360436Y-89000369D01*
X201205791Y-89031130D01*
X201205779Y-89031133D01*
X201060108Y-89091471D01*
X201060090Y-89091481D01*
X200989515Y-89138638D01*
X200922838Y-89159516D01*
X200855458Y-89141031D01*
X200808768Y-89089052D01*
X200797592Y-89020082D01*
X200799008Y-89011343D01*
X200800500Y-89003842D01*
X200800500Y-88846155D01*
X200800499Y-88846153D01*
X200769738Y-88691510D01*
X200769737Y-88691503D01*
X200765600Y-88681515D01*
X200709397Y-88545827D01*
X200709390Y-88545814D01*
X200621789Y-88414711D01*
X200621786Y-88414707D01*
X200510292Y-88303213D01*
X200510288Y-88303210D01*
X200379185Y-88215609D01*
X200379172Y-88215602D01*
X200233501Y-88155264D01*
X200233489Y-88155261D01*
X200078845Y-88124500D01*
X200078842Y-88124500D01*
X199921158Y-88124500D01*
X199921155Y-88124500D01*
X199766510Y-88155261D01*
X199766498Y-88155264D01*
X199620827Y-88215602D01*
X199620814Y-88215609D01*
X199489711Y-88303210D01*
X199489707Y-88303213D01*
X199378213Y-88414707D01*
X199378210Y-88414711D01*
X199290609Y-88545814D01*
X199290602Y-88545827D01*
X199230264Y-88691498D01*
X199230261Y-88691510D01*
X199199500Y-88846153D01*
X194955512Y-88846153D01*
X194942738Y-88781938D01*
X194942737Y-88781937D01*
X194942737Y-88781933D01*
X194941457Y-88778842D01*
X194882397Y-88636257D01*
X194882390Y-88636244D01*
X194794789Y-88505141D01*
X194794786Y-88505137D01*
X194683292Y-88393643D01*
X194683288Y-88393640D01*
X194552185Y-88306039D01*
X194552172Y-88306032D01*
X194406501Y-88245694D01*
X194406489Y-88245691D01*
X194251845Y-88214930D01*
X194251842Y-88214930D01*
X194094158Y-88214930D01*
X194094155Y-88214930D01*
X193939510Y-88245691D01*
X193939498Y-88245694D01*
X193793827Y-88306032D01*
X193793814Y-88306039D01*
X193662711Y-88393640D01*
X193662707Y-88393643D01*
X193551213Y-88505137D01*
X193551210Y-88505141D01*
X193463609Y-88636244D01*
X193463604Y-88636253D01*
X193421737Y-88737331D01*
X193421735Y-88737335D01*
X193403263Y-88781933D01*
X193387769Y-88859822D01*
X193387766Y-88859836D01*
X193372500Y-88936588D01*
X193097201Y-88936588D01*
X193111557Y-88908412D01*
X193177246Y-88706243D01*
X193210500Y-88496287D01*
X193210500Y-88283713D01*
X193177246Y-88073757D01*
X193111557Y-87871588D01*
X193015051Y-87682184D01*
X193015049Y-87682181D01*
X193015048Y-87682179D01*
X192890109Y-87510213D01*
X192739792Y-87359896D01*
X192645377Y-87291300D01*
X192567816Y-87234949D01*
X192551224Y-87226495D01*
X192544493Y-87221862D01*
X192527407Y-87200835D01*
X192522449Y-87196153D01*
X200094466Y-87196153D01*
X200094466Y-87353846D01*
X200125227Y-87508489D01*
X200125230Y-87508501D01*
X200185568Y-87654172D01*
X200185575Y-87654185D01*
X200273176Y-87785288D01*
X200273179Y-87785292D01*
X200384673Y-87896786D01*
X200384677Y-87896789D01*
X200515780Y-87984390D01*
X200515793Y-87984397D01*
X200661464Y-88044735D01*
X200661469Y-88044737D01*
X200816119Y-88075499D01*
X200816122Y-88075500D01*
X200816124Y-88075500D01*
X200973810Y-88075500D01*
X200973811Y-88075499D01*
X201128463Y-88044737D01*
X201259148Y-87990606D01*
X201274138Y-87984397D01*
X201274138Y-87984396D01*
X201274145Y-87984394D01*
X201405255Y-87896789D01*
X201422872Y-87879172D01*
X201443834Y-87858211D01*
X201505157Y-87824726D01*
X201574849Y-87829710D01*
X201630782Y-87871582D01*
X201655199Y-87937046D01*
X201655515Y-87945892D01*
X201655515Y-87959861D01*
X201686276Y-88114504D01*
X201686279Y-88114516D01*
X201746617Y-88260187D01*
X201746624Y-88260200D01*
X201834225Y-88391303D01*
X201834228Y-88391307D01*
X201945722Y-88502801D01*
X201945726Y-88502804D01*
X202076829Y-88590405D01*
X202076842Y-88590412D01*
X202222513Y-88650750D01*
X202222518Y-88650752D01*
X202377168Y-88681514D01*
X202377171Y-88681515D01*
X202377173Y-88681515D01*
X202534859Y-88681515D01*
X202534860Y-88681514D01*
X202689512Y-88650752D01*
X202760971Y-88621153D01*
X206249500Y-88621153D01*
X206249500Y-88778846D01*
X206280261Y-88933489D01*
X206280264Y-88933501D01*
X206340602Y-89079172D01*
X206340609Y-89079185D01*
X206428210Y-89210288D01*
X206428213Y-89210292D01*
X206539707Y-89321786D01*
X206539711Y-89321789D01*
X206670814Y-89409390D01*
X206670827Y-89409397D01*
X206816498Y-89469735D01*
X206816503Y-89469737D01*
X206971153Y-89500499D01*
X206971156Y-89500500D01*
X206971158Y-89500500D01*
X207128844Y-89500500D01*
X207128845Y-89500499D01*
X207283497Y-89469737D01*
X207429179Y-89409394D01*
X207560289Y-89321789D01*
X207671789Y-89210289D01*
X207759394Y-89079179D01*
X207819737Y-88933497D01*
X207850500Y-88778842D01*
X207850500Y-88621158D01*
X207850500Y-88621155D01*
X207850499Y-88621153D01*
X207844383Y-88590405D01*
X207819737Y-88466503D01*
X207789557Y-88393641D01*
X207759397Y-88320827D01*
X207759390Y-88320814D01*
X207671789Y-88189711D01*
X207671786Y-88189707D01*
X207560292Y-88078213D01*
X207560288Y-88078210D01*
X207429185Y-87990609D01*
X207429172Y-87990602D01*
X207283501Y-87930264D01*
X207283489Y-87930261D01*
X207128845Y-87899500D01*
X207128842Y-87899500D01*
X206971158Y-87899500D01*
X206971155Y-87899500D01*
X206816510Y-87930261D01*
X206816498Y-87930264D01*
X206670827Y-87990602D01*
X206670814Y-87990609D01*
X206539711Y-88078210D01*
X206539707Y-88078213D01*
X206428213Y-88189707D01*
X206428210Y-88189711D01*
X206340609Y-88320814D01*
X206340602Y-88320827D01*
X206280264Y-88466498D01*
X206280261Y-88466510D01*
X206249500Y-88621153D01*
X202760971Y-88621153D01*
X202835194Y-88590409D01*
X202966304Y-88502804D01*
X203077804Y-88391304D01*
X203165409Y-88260194D01*
X203171416Y-88245693D01*
X203186451Y-88209394D01*
X203225752Y-88114512D01*
X203256515Y-87959857D01*
X203256515Y-87802173D01*
X203225752Y-87647518D01*
X203181721Y-87541216D01*
X203165412Y-87501841D01*
X203165405Y-87501829D01*
X203111499Y-87421153D01*
X203458371Y-87421153D01*
X203458371Y-87421158D01*
X203458371Y-87578842D01*
X203489134Y-87733497D01*
X203499170Y-87757727D01*
X203499171Y-87757730D01*
X203549473Y-87879172D01*
X203549480Y-87879185D01*
X203637081Y-88010288D01*
X203637084Y-88010292D01*
X203748578Y-88121786D01*
X203748582Y-88121789D01*
X203879685Y-88209390D01*
X203879698Y-88209397D01*
X204002318Y-88260187D01*
X204025374Y-88269737D01*
X204180024Y-88300499D01*
X204180027Y-88300500D01*
X204180029Y-88300500D01*
X204337715Y-88300500D01*
X204337716Y-88300499D01*
X204492368Y-88269737D01*
X204623053Y-88215606D01*
X204638043Y-88209397D01*
X204638043Y-88209396D01*
X204638050Y-88209394D01*
X204769160Y-88121789D01*
X204880660Y-88010289D01*
X204968265Y-87879179D01*
X205028608Y-87733497D01*
X205059371Y-87578842D01*
X205059371Y-87421158D01*
X205059371Y-87421155D01*
X205059370Y-87421153D01*
X205049339Y-87370726D01*
X205028608Y-87266503D01*
X205001408Y-87200835D01*
X204968268Y-87120827D01*
X204968261Y-87120814D01*
X204880660Y-86989711D01*
X204880657Y-86989707D01*
X204769163Y-86878213D01*
X204769159Y-86878210D01*
X204638056Y-86790609D01*
X204638043Y-86790602D01*
X204492372Y-86730264D01*
X204492360Y-86730261D01*
X204337716Y-86699500D01*
X204337713Y-86699500D01*
X204180029Y-86699500D01*
X204180026Y-86699500D01*
X204025381Y-86730261D01*
X204025369Y-86730264D01*
X203879698Y-86790602D01*
X203879685Y-86790609D01*
X203748582Y-86878210D01*
X203748578Y-86878213D01*
X203637084Y-86989707D01*
X203637081Y-86989711D01*
X203549480Y-87120814D01*
X203549473Y-87120827D01*
X203489135Y-87266498D01*
X203489132Y-87266510D01*
X203458371Y-87421153D01*
X203111499Y-87421153D01*
X203077804Y-87370726D01*
X203077801Y-87370722D01*
X202966307Y-87259228D01*
X202966303Y-87259225D01*
X202835200Y-87171624D01*
X202835187Y-87171617D01*
X202689516Y-87111279D01*
X202689504Y-87111276D01*
X202534860Y-87080515D01*
X202534857Y-87080515D01*
X202377173Y-87080515D01*
X202377170Y-87080515D01*
X202222525Y-87111276D01*
X202222513Y-87111279D01*
X202076842Y-87171617D01*
X202076829Y-87171624D01*
X201945726Y-87259225D01*
X201945722Y-87259228D01*
X201907147Y-87297804D01*
X201889922Y-87307209D01*
X201875637Y-87320671D01*
X201859885Y-87323610D01*
X201845824Y-87331289D01*
X201826247Y-87329888D01*
X201806953Y-87333490D01*
X201792114Y-87327447D01*
X201776132Y-87326305D01*
X201760419Y-87314542D01*
X201742242Y-87307141D01*
X201733024Y-87294034D01*
X201720199Y-87284433D01*
X201713340Y-87266044D01*
X201702049Y-87249989D01*
X201697836Y-87224476D01*
X201695782Y-87218969D01*
X201695574Y-87215295D01*
X201695466Y-87212707D01*
X201695466Y-87196158D01*
X201694591Y-87191762D01*
X201694191Y-87182163D01*
X201700400Y-87157207D01*
X201702692Y-87131595D01*
X201708697Y-87123863D01*
X201711062Y-87114360D01*
X201729781Y-87096720D01*
X201745553Y-87076416D01*
X201749170Y-87073904D01*
X201773289Y-87057789D01*
X201884789Y-86946289D01*
X201972394Y-86815179D01*
X202032737Y-86669497D01*
X202063500Y-86514842D01*
X202063500Y-86357158D01*
X202063500Y-86357155D01*
X202063499Y-86357153D01*
X202032738Y-86202510D01*
X202032737Y-86202503D01*
X202027552Y-86189985D01*
X201972397Y-86056827D01*
X201972390Y-86056814D01*
X201884789Y-85925711D01*
X201884786Y-85925707D01*
X201773292Y-85814213D01*
X201773288Y-85814210D01*
X201642185Y-85726609D01*
X201642172Y-85726602D01*
X201496501Y-85666264D01*
X201496489Y-85666261D01*
X201341845Y-85635500D01*
X201341842Y-85635500D01*
X201184158Y-85635500D01*
X201184155Y-85635500D01*
X201029510Y-85666261D01*
X201029498Y-85666264D01*
X200883827Y-85726602D01*
X200883814Y-85726609D01*
X200752711Y-85814210D01*
X200752707Y-85814213D01*
X200641213Y-85925707D01*
X200641210Y-85925711D01*
X200553609Y-86056814D01*
X200553602Y-86056827D01*
X200493264Y-86202498D01*
X200493261Y-86202510D01*
X200462500Y-86357153D01*
X200462500Y-86514843D01*
X200463097Y-86520905D01*
X200460502Y-86521160D01*
X200455236Y-86579497D01*
X200412330Y-86634641D01*
X200408778Y-86637106D01*
X200384674Y-86653213D01*
X200384670Y-86653217D01*
X200273179Y-86764707D01*
X200273176Y-86764711D01*
X200185575Y-86895814D01*
X200185568Y-86895827D01*
X200125230Y-87041498D01*
X200125227Y-87041510D01*
X200094466Y-87196153D01*
X192522449Y-87196153D01*
X192507707Y-87182230D01*
X192505698Y-87174119D01*
X192500431Y-87167637D01*
X192497425Y-87140711D01*
X192490912Y-87114409D01*
X192493606Y-87106501D01*
X192492680Y-87098199D01*
X192504709Y-87073921D01*
X192513449Y-87048274D01*
X192520401Y-87042249D01*
X192523700Y-87035593D01*
X192537892Y-87027093D01*
X192558507Y-87009232D01*
X192567555Y-87004622D01*
X192621716Y-86965270D01*
X192621717Y-86965270D01*
X191989408Y-86332962D01*
X192052993Y-86315925D01*
X192167007Y-86250099D01*
X192260099Y-86157007D01*
X192325925Y-86042993D01*
X192342962Y-85979408D01*
X192975270Y-86611717D01*
X192975270Y-86611716D01*
X193014622Y-86557554D01*
X193111095Y-86368217D01*
X193176757Y-86166130D01*
X193176757Y-86166127D01*
X193210000Y-85956246D01*
X193210000Y-85743753D01*
X193176757Y-85533872D01*
X193176757Y-85533869D01*
X193111095Y-85331782D01*
X193014624Y-85142449D01*
X192975270Y-85088282D01*
X192975269Y-85088282D01*
X192342962Y-85720590D01*
X192325925Y-85657007D01*
X192260099Y-85542993D01*
X192167007Y-85449901D01*
X192052993Y-85384075D01*
X191989409Y-85367037D01*
X192535291Y-84821153D01*
X193583449Y-84821153D01*
X193583449Y-84978846D01*
X193614210Y-85133489D01*
X193614213Y-85133501D01*
X193674551Y-85279172D01*
X193674558Y-85279185D01*
X193762159Y-85410288D01*
X193762162Y-85410292D01*
X193873658Y-85521788D01*
X193874673Y-85522466D01*
X193875084Y-85522958D01*
X193878368Y-85525653D01*
X193877856Y-85526275D01*
X193919480Y-85576078D01*
X193928189Y-85645402D01*
X193908888Y-85694460D01*
X193890608Y-85721817D01*
X193890602Y-85721828D01*
X193830264Y-85867498D01*
X193830261Y-85867510D01*
X193799500Y-86022153D01*
X193799500Y-86179846D01*
X193830261Y-86334489D01*
X193830264Y-86334501D01*
X193890602Y-86480172D01*
X193890609Y-86480185D01*
X193978210Y-86611288D01*
X193978213Y-86611292D01*
X194089707Y-86722786D01*
X194089711Y-86722789D01*
X194220814Y-86810390D01*
X194220827Y-86810397D01*
X194366498Y-86870735D01*
X194366503Y-86870737D01*
X194492573Y-86895814D01*
X194521153Y-86901499D01*
X194521156Y-86901500D01*
X194521158Y-86901500D01*
X194678844Y-86901500D01*
X194678845Y-86901499D01*
X194833497Y-86870737D01*
X194946166Y-86824067D01*
X194979172Y-86810397D01*
X194979172Y-86810396D01*
X194979179Y-86810394D01*
X195110289Y-86722789D01*
X195221789Y-86611289D01*
X195309394Y-86480179D01*
X195309395Y-86480175D01*
X195312021Y-86476246D01*
X195365634Y-86431440D01*
X195434958Y-86422733D01*
X195462571Y-86430573D01*
X195508103Y-86449433D01*
X195642900Y-86476246D01*
X195662753Y-86480195D01*
X195662756Y-86480196D01*
X195662758Y-86480196D01*
X195820444Y-86480196D01*
X195820445Y-86480195D01*
X195975097Y-86449433D01*
X196120779Y-86389090D01*
X196251889Y-86301485D01*
X196363389Y-86189985D01*
X196450994Y-86058875D01*
X196457573Y-86042993D01*
X196493504Y-85956246D01*
X196511337Y-85913193D01*
X196542100Y-85758538D01*
X196542100Y-85600854D01*
X196542100Y-85600851D01*
X196542099Y-85600849D01*
X196526605Y-85522958D01*
X196511337Y-85446199D01*
X196496462Y-85410288D01*
X196450997Y-85300523D01*
X196450990Y-85300510D01*
X196363389Y-85169407D01*
X196363386Y-85169403D01*
X196251892Y-85057909D01*
X196251888Y-85057906D01*
X196179276Y-85009388D01*
X201836265Y-85009388D01*
X201836265Y-85167081D01*
X201867026Y-85321724D01*
X201867029Y-85321736D01*
X201927367Y-85467407D01*
X201927374Y-85467420D01*
X202014975Y-85598523D01*
X202014978Y-85598527D01*
X202126472Y-85710021D01*
X202126476Y-85710024D01*
X202257579Y-85797625D01*
X202257588Y-85797630D01*
X202367157Y-85843015D01*
X202421560Y-85886856D01*
X202441321Y-85933384D01*
X202456261Y-86008491D01*
X202456264Y-86008501D01*
X202516602Y-86154172D01*
X202516609Y-86154185D01*
X202604210Y-86285288D01*
X202604213Y-86285292D01*
X202715707Y-86396786D01*
X202715711Y-86396789D01*
X202846814Y-86484390D01*
X202846827Y-86484397D01*
X202992498Y-86544735D01*
X202992503Y-86544737D01*
X203147153Y-86575499D01*
X203147156Y-86575500D01*
X203147158Y-86575500D01*
X203304844Y-86575500D01*
X203304845Y-86575499D01*
X203459497Y-86544737D01*
X203605179Y-86484394D01*
X203736289Y-86396789D01*
X203847789Y-86285289D01*
X203935394Y-86154179D01*
X203995737Y-86008497D01*
X204026500Y-85853842D01*
X204026500Y-85696158D01*
X204026500Y-85696155D01*
X204026499Y-85696153D01*
X204011298Y-85619735D01*
X203995737Y-85541503D01*
X203992575Y-85533869D01*
X203935397Y-85395827D01*
X203935390Y-85395814D01*
X203847789Y-85264711D01*
X203847786Y-85264707D01*
X203736292Y-85153213D01*
X203736288Y-85153210D01*
X203605185Y-85065609D01*
X203605172Y-85065602D01*
X203495607Y-85020220D01*
X203441203Y-84976380D01*
X203421442Y-84929852D01*
X203406502Y-84854738D01*
X203373681Y-84775500D01*
X203346162Y-84709062D01*
X203346155Y-84709049D01*
X203258554Y-84577946D01*
X203258551Y-84577942D01*
X203147057Y-84466448D01*
X203147053Y-84466445D01*
X203015950Y-84378844D01*
X203015937Y-84378837D01*
X202870266Y-84318499D01*
X202870254Y-84318496D01*
X202715610Y-84287735D01*
X202715607Y-84287735D01*
X202557923Y-84287735D01*
X202557920Y-84287735D01*
X202403275Y-84318496D01*
X202403263Y-84318499D01*
X202257592Y-84378837D01*
X202257579Y-84378844D01*
X202126476Y-84466445D01*
X202126472Y-84466448D01*
X202014978Y-84577942D01*
X202014974Y-84577947D01*
X202000467Y-84599657D01*
X202000362Y-84599817D01*
X201927371Y-84709056D01*
X201924839Y-84715167D01*
X201924834Y-84715176D01*
X201867029Y-84854733D01*
X201867026Y-84854745D01*
X201836265Y-85009388D01*
X196179276Y-85009388D01*
X196120785Y-84970305D01*
X196120772Y-84970298D01*
X195975101Y-84909960D01*
X195975089Y-84909957D01*
X195820445Y-84879196D01*
X195820442Y-84879196D01*
X195662758Y-84879196D01*
X195662755Y-84879196D01*
X195508110Y-84909957D01*
X195508098Y-84909960D01*
X195356792Y-84972633D01*
X195355794Y-84970224D01*
X195298473Y-84982146D01*
X195233234Y-84957132D01*
X195191876Y-84900818D01*
X195184449Y-84858548D01*
X195184449Y-84821155D01*
X195184448Y-84821153D01*
X195182108Y-84809390D01*
X195153686Y-84666503D01*
X195153681Y-84666490D01*
X195093346Y-84520827D01*
X195093339Y-84520814D01*
X195005738Y-84389711D01*
X195005735Y-84389707D01*
X194894241Y-84278213D01*
X194894237Y-84278210D01*
X194763134Y-84190609D01*
X194763121Y-84190602D01*
X194617450Y-84130264D01*
X194617438Y-84130261D01*
X194462794Y-84099500D01*
X194462791Y-84099500D01*
X194305107Y-84099500D01*
X194305104Y-84099500D01*
X194150459Y-84130261D01*
X194150447Y-84130264D01*
X194004776Y-84190602D01*
X194004763Y-84190609D01*
X193873660Y-84278210D01*
X193873656Y-84278213D01*
X193762162Y-84389707D01*
X193762159Y-84389711D01*
X193674558Y-84520814D01*
X193674551Y-84520827D01*
X193614213Y-84666498D01*
X193614210Y-84666510D01*
X193583449Y-84821153D01*
X192535291Y-84821153D01*
X192621716Y-84734728D01*
X192567547Y-84695373D01*
X192567547Y-84695372D01*
X192558500Y-84690763D01*
X192507706Y-84642788D01*
X192490912Y-84574966D01*
X192513451Y-84508832D01*
X192558508Y-84469793D01*
X192567816Y-84465051D01*
X192647007Y-84407515D01*
X192739786Y-84340109D01*
X192739788Y-84340106D01*
X192739792Y-84340104D01*
X192890104Y-84189792D01*
X192890106Y-84189788D01*
X192890109Y-84189786D01*
X193012625Y-84021155D01*
X193015051Y-84017816D01*
X193111557Y-83828412D01*
X193177246Y-83626243D01*
X193210500Y-83416287D01*
X193210500Y-83348666D01*
X193230185Y-83281627D01*
X193282989Y-83235872D01*
X193352147Y-83225928D01*
X193381950Y-83234104D01*
X193467976Y-83269737D01*
X193601431Y-83296283D01*
X193622626Y-83300499D01*
X193622629Y-83300500D01*
X193622631Y-83300500D01*
X193780317Y-83300500D01*
X193780318Y-83300499D01*
X193934970Y-83269737D01*
X194080652Y-83209394D01*
X194211762Y-83121789D01*
X194323262Y-83010289D01*
X194410867Y-82879179D01*
X194471210Y-82733497D01*
X194501973Y-82578842D01*
X194501973Y-82421158D01*
X194501973Y-82421155D01*
X194501972Y-82421153D01*
X194487464Y-82348216D01*
X194471210Y-82266503D01*
X194434900Y-82178842D01*
X194410870Y-82120827D01*
X194410863Y-82120814D01*
X194323262Y-81989711D01*
X194323259Y-81989707D01*
X194211765Y-81878213D01*
X194211761Y-81878210D01*
X194080658Y-81790609D01*
X194080645Y-81790602D01*
X193934974Y-81730264D01*
X193934962Y-81730261D01*
X193780318Y-81699500D01*
X193780315Y-81699500D01*
X193622631Y-81699500D01*
X193622628Y-81699500D01*
X193467983Y-81730261D01*
X193467971Y-81730264D01*
X193322300Y-81790602D01*
X193322287Y-81790609D01*
X193191184Y-81878210D01*
X193191180Y-81878213D01*
X193079686Y-81989707D01*
X193079683Y-81989711D01*
X192992082Y-82120814D01*
X192992075Y-82120827D01*
X192942612Y-82240245D01*
X192898771Y-82294649D01*
X192832477Y-82316714D01*
X192764778Y-82299435D01*
X192743568Y-82282958D01*
X192743488Y-82283053D01*
X192741461Y-82281322D01*
X192740370Y-82280474D01*
X192739786Y-82279890D01*
X192567820Y-82154951D01*
X192567115Y-82154591D01*
X192559054Y-82150485D01*
X192508259Y-82102512D01*
X192491463Y-82034692D01*
X192513999Y-81968556D01*
X192559054Y-81929515D01*
X192567816Y-81925051D01*
X192626167Y-81882657D01*
X192739786Y-81800109D01*
X192739788Y-81800106D01*
X192739792Y-81800104D01*
X192890104Y-81649792D01*
X192890106Y-81649788D01*
X192890109Y-81649786D01*
X193015048Y-81477820D01*
X193015047Y-81477820D01*
X193015051Y-81477816D01*
X193111557Y-81288412D01*
X193177246Y-81086243D01*
X193210500Y-80876287D01*
X193210500Y-80663713D01*
X193177246Y-80453757D01*
X193111557Y-80251588D01*
X193015051Y-80062184D01*
X193015049Y-80062181D01*
X193015048Y-80062179D01*
X192890109Y-79890213D01*
X192739786Y-79739890D01*
X192567820Y-79614951D01*
X192566629Y-79614344D01*
X192559054Y-79610485D01*
X192508259Y-79562512D01*
X192491463Y-79494692D01*
X192513999Y-79428556D01*
X192559054Y-79389515D01*
X192567816Y-79385051D01*
X192609920Y-79354461D01*
X192739786Y-79260109D01*
X192739788Y-79260106D01*
X192739792Y-79260104D01*
X192890104Y-79109792D01*
X192890106Y-79109788D01*
X192890109Y-79109786D01*
X193015048Y-78937820D01*
X193015047Y-78937820D01*
X193015051Y-78937816D01*
X193111557Y-78748412D01*
X193177246Y-78546243D01*
X193193099Y-78446153D01*
X194499500Y-78446153D01*
X194499500Y-78603846D01*
X194530261Y-78758489D01*
X194530264Y-78758501D01*
X194590602Y-78904172D01*
X194590609Y-78904185D01*
X194678210Y-79035288D01*
X194678213Y-79035292D01*
X194789707Y-79146786D01*
X194789711Y-79146789D01*
X194920814Y-79234390D01*
X194920827Y-79234397D01*
X195066498Y-79294735D01*
X195066503Y-79294737D01*
X195221153Y-79325499D01*
X195221156Y-79325500D01*
X195363000Y-79325500D01*
X195430039Y-79345185D01*
X195475794Y-79397989D01*
X195484617Y-79425307D01*
X195489173Y-79448214D01*
X195489176Y-79448223D01*
X195549514Y-79593894D01*
X195549521Y-79593907D01*
X195637122Y-79725010D01*
X195637125Y-79725014D01*
X195748619Y-79836508D01*
X195748623Y-79836511D01*
X195879726Y-79924112D01*
X195879730Y-79924114D01*
X195879733Y-79924116D01*
X196008394Y-79977409D01*
X196062795Y-80021247D01*
X196084860Y-80087541D01*
X196067581Y-80155240D01*
X196048624Y-80179646D01*
X196040711Y-80187558D01*
X196040711Y-80187559D01*
X195953110Y-80318662D01*
X195953103Y-80318675D01*
X195892765Y-80464346D01*
X195892762Y-80464358D01*
X195862001Y-80619001D01*
X195862001Y-80776694D01*
X195892762Y-80931337D01*
X195892765Y-80931349D01*
X195942074Y-81050393D01*
X195949543Y-81119862D01*
X195942075Y-81145297D01*
X195892761Y-81264353D01*
X195892760Y-81264356D01*
X195892760Y-81264357D01*
X195892759Y-81264360D01*
X195861998Y-81419003D01*
X195861998Y-81561552D01*
X195842313Y-81628591D01*
X195825679Y-81649233D01*
X195744293Y-81730618D01*
X195744290Y-81730622D01*
X195656689Y-81861725D01*
X195656682Y-81861738D01*
X195596344Y-82007409D01*
X195596341Y-82007421D01*
X195565580Y-82162064D01*
X195565580Y-82319757D01*
X195596341Y-82474400D01*
X195596344Y-82474412D01*
X195632944Y-82562772D01*
X195640413Y-82632241D01*
X195632944Y-82657676D01*
X195571087Y-82807012D01*
X195571084Y-82807024D01*
X195540323Y-82961667D01*
X195540323Y-83119360D01*
X195571084Y-83274003D01*
X195571087Y-83274015D01*
X195631425Y-83419686D01*
X195631432Y-83419699D01*
X195719033Y-83550802D01*
X195719036Y-83550806D01*
X195830530Y-83662300D01*
X195830534Y-83662303D01*
X195961637Y-83749904D01*
X195961649Y-83749911D01*
X196053542Y-83787973D01*
X196107946Y-83831813D01*
X196130011Y-83898107D01*
X196127707Y-83926725D01*
X196111264Y-84009389D01*
X196111264Y-84167082D01*
X196142025Y-84321725D01*
X196142028Y-84321737D01*
X196202366Y-84467408D01*
X196202373Y-84467421D01*
X196289974Y-84598524D01*
X196289977Y-84598528D01*
X196401471Y-84710022D01*
X196401475Y-84710025D01*
X196532578Y-84797626D01*
X196532591Y-84797633D01*
X196670445Y-84854733D01*
X196678267Y-84857973D01*
X196784962Y-84879196D01*
X196832917Y-84888735D01*
X196832920Y-84888736D01*
X196832922Y-84888736D01*
X196990608Y-84888736D01*
X196990609Y-84888735D01*
X197145261Y-84857973D01*
X197290943Y-84797630D01*
X197422053Y-84710025D01*
X197533553Y-84598525D01*
X197621158Y-84467415D01*
X197622139Y-84465048D01*
X197659717Y-84374324D01*
X197681501Y-84321733D01*
X197712264Y-84167078D01*
X197712264Y-84009394D01*
X197712264Y-84009391D01*
X197712263Y-84009389D01*
X197693104Y-83913071D01*
X197681501Y-83854739D01*
X197653846Y-83787973D01*
X197621161Y-83709063D01*
X197621154Y-83709050D01*
X197533553Y-83577947D01*
X197533550Y-83577943D01*
X197422056Y-83466449D01*
X197422052Y-83466446D01*
X197290949Y-83378845D01*
X197290936Y-83378838D01*
X197199044Y-83340776D01*
X197144640Y-83296935D01*
X197122575Y-83230641D01*
X197124878Y-83202027D01*
X197141323Y-83119356D01*
X197141323Y-82961672D01*
X197141323Y-82961669D01*
X197141322Y-82961667D01*
X197128992Y-82899680D01*
X197110560Y-82807017D01*
X197073957Y-82718650D01*
X197066489Y-82649185D01*
X197073958Y-82623748D01*
X197075471Y-82620093D01*
X197075474Y-82620090D01*
X197135817Y-82474408D01*
X197166580Y-82319753D01*
X197166580Y-82177209D01*
X197186265Y-82110170D01*
X197202899Y-82089528D01*
X197284284Y-82008142D01*
X197284287Y-82008139D01*
X197371892Y-81877029D01*
X197432235Y-81731347D01*
X197456448Y-81609620D01*
X197462998Y-81576694D01*
X197462998Y-81419005D01*
X197462997Y-81419003D01*
X197447792Y-81342565D01*
X197432235Y-81264353D01*
X197382924Y-81145304D01*
X197375455Y-81075835D01*
X197382922Y-81050403D01*
X197432238Y-80931345D01*
X197463001Y-80776690D01*
X197463001Y-80619006D01*
X197463001Y-80619003D01*
X197463000Y-80619001D01*
X197458525Y-80596505D01*
X197432238Y-80464351D01*
X197392776Y-80369080D01*
X197380496Y-80339433D01*
X197373027Y-80269964D01*
X197404302Y-80207485D01*
X197426162Y-80188882D01*
X197513115Y-80130782D01*
X197624615Y-80019282D01*
X197681872Y-79933591D01*
X197687963Y-79928500D01*
X197691261Y-79921279D01*
X197714388Y-79906415D01*
X197735484Y-79888786D01*
X197744858Y-79886834D01*
X197750039Y-79883505D01*
X197784974Y-79878482D01*
X197836304Y-79878482D01*
X197903343Y-79898167D01*
X197939406Y-79933591D01*
X198015710Y-80047788D01*
X198015713Y-80047792D01*
X198127207Y-80159286D01*
X198127211Y-80159289D01*
X198258314Y-80246890D01*
X198258327Y-80246897D01*
X198390635Y-80301700D01*
X198404003Y-80307237D01*
X198535980Y-80333489D01*
X198558653Y-80337999D01*
X198558656Y-80338000D01*
X198558658Y-80338000D01*
X198716344Y-80338000D01*
X198716345Y-80337999D01*
X198870997Y-80307237D01*
X199016679Y-80246894D01*
X199147789Y-80159289D01*
X199259289Y-80047789D01*
X199259293Y-80047782D01*
X199259296Y-80047780D01*
X199261720Y-80044828D01*
X199263378Y-80043698D01*
X199263596Y-80043481D01*
X199263637Y-80043522D01*
X199319468Y-80005498D01*
X199357567Y-79999500D01*
X199503844Y-79999500D01*
X199503845Y-79999499D01*
X199658497Y-79968737D01*
X199804179Y-79908394D01*
X199935289Y-79820789D01*
X200046789Y-79709289D01*
X200112807Y-79610486D01*
X200127582Y-79588374D01*
X200181194Y-79543569D01*
X200250519Y-79534862D01*
X200313546Y-79565016D01*
X200350266Y-79624459D01*
X200349019Y-79694318D01*
X200345245Y-79704717D01*
X200322337Y-79760021D01*
X200322334Y-79760033D01*
X200291573Y-79914676D01*
X200291573Y-80072369D01*
X200322334Y-80227012D01*
X200322337Y-80227024D01*
X200382675Y-80372695D01*
X200382682Y-80372708D01*
X200442644Y-80462447D01*
X200463522Y-80529125D01*
X200445037Y-80596505D01*
X200408433Y-80634440D01*
X200352213Y-80672005D01*
X200352209Y-80672008D01*
X200240715Y-80783502D01*
X200240712Y-80783506D01*
X200153111Y-80914609D01*
X200153104Y-80914622D01*
X200092766Y-81060293D01*
X200092763Y-81060305D01*
X200062002Y-81214948D01*
X200062002Y-81372641D01*
X200092763Y-81527284D01*
X200092766Y-81527296D01*
X200153104Y-81672967D01*
X200153111Y-81672980D01*
X200240712Y-81804083D01*
X200240715Y-81804087D01*
X200352209Y-81915581D01*
X200352213Y-81915584D01*
X200483316Y-82003185D01*
X200483329Y-82003192D01*
X200539207Y-82026337D01*
X200593611Y-82070177D01*
X200613371Y-82116702D01*
X200616429Y-82132073D01*
X200616432Y-82132085D01*
X200676771Y-82277758D01*
X200676778Y-82277771D01*
X200723848Y-82348216D01*
X200744726Y-82414894D01*
X200726241Y-82482274D01*
X200708427Y-82504788D01*
X200660713Y-82552501D01*
X200660710Y-82552505D01*
X200573109Y-82683608D01*
X200573102Y-82683621D01*
X200512764Y-82829292D01*
X200512761Y-82829304D01*
X200482000Y-82983947D01*
X200482000Y-83141640D01*
X200508331Y-83274011D01*
X200512763Y-83296291D01*
X200521962Y-83318499D01*
X200549554Y-83385115D01*
X200557021Y-83454584D01*
X200525746Y-83517063D01*
X200522674Y-83520247D01*
X200453210Y-83589711D01*
X200365609Y-83720814D01*
X200365602Y-83720827D01*
X200305264Y-83866498D01*
X200305262Y-83866505D01*
X200295999Y-83913071D01*
X200263612Y-83974981D01*
X200202896Y-84009554D01*
X200133127Y-84005813D01*
X200076455Y-83964945D01*
X200050978Y-83901019D01*
X200050500Y-83896168D01*
X200050500Y-83896158D01*
X200019737Y-83741503D01*
X200011170Y-83720821D01*
X199959397Y-83595827D01*
X199959390Y-83595814D01*
X199871789Y-83464711D01*
X199871786Y-83464707D01*
X199760292Y-83353213D01*
X199760288Y-83353210D01*
X199629185Y-83265609D01*
X199629172Y-83265602D01*
X199483501Y-83205264D01*
X199483489Y-83205261D01*
X199328845Y-83174500D01*
X199328842Y-83174500D01*
X199171158Y-83174500D01*
X199171155Y-83174500D01*
X199016510Y-83205261D01*
X199016498Y-83205264D01*
X198870827Y-83265602D01*
X198870814Y-83265609D01*
X198739711Y-83353210D01*
X198739707Y-83353213D01*
X198628213Y-83464707D01*
X198628210Y-83464711D01*
X198540609Y-83595814D01*
X198540602Y-83595827D01*
X198480264Y-83741498D01*
X198480261Y-83741510D01*
X198449500Y-83896153D01*
X198449500Y-84053846D01*
X198480261Y-84208489D01*
X198480264Y-84208501D01*
X198540602Y-84354172D01*
X198540609Y-84354185D01*
X198628210Y-84485288D01*
X198628213Y-84485292D01*
X198739707Y-84596786D01*
X198739711Y-84596789D01*
X198870814Y-84684390D01*
X198870827Y-84684397D01*
X198992339Y-84734728D01*
X199016503Y-84744737D01*
X199171153Y-84775499D01*
X199171156Y-84775500D01*
X199171158Y-84775500D01*
X199328844Y-84775500D01*
X199328845Y-84775499D01*
X199483497Y-84744737D01*
X199613810Y-84690760D01*
X199629172Y-84684397D01*
X199629172Y-84684396D01*
X199629179Y-84684394D01*
X199760289Y-84596789D01*
X199871789Y-84485289D01*
X199959394Y-84354179D01*
X199965389Y-84339707D01*
X200011571Y-84228211D01*
X200019737Y-84208497D01*
X200027975Y-84167082D01*
X200029000Y-84161931D01*
X200061385Y-84100020D01*
X200122100Y-84065446D01*
X200191870Y-84069185D01*
X200248542Y-84110051D01*
X200274020Y-84173970D01*
X200274500Y-84178846D01*
X200305261Y-84333489D01*
X200305264Y-84333501D01*
X200365602Y-84479172D01*
X200365609Y-84479185D01*
X200453210Y-84610288D01*
X200453213Y-84610292D01*
X200564707Y-84721786D01*
X200564711Y-84721789D01*
X200695814Y-84809390D01*
X200695827Y-84809397D01*
X200813097Y-84857971D01*
X200841503Y-84869737D01*
X200996153Y-84900499D01*
X200996156Y-84900500D01*
X200996158Y-84900500D01*
X201153844Y-84900500D01*
X201153845Y-84900499D01*
X201308497Y-84869737D01*
X201454179Y-84809394D01*
X201585289Y-84721789D01*
X201696789Y-84610289D01*
X201784394Y-84479179D01*
X201844737Y-84333497D01*
X201875500Y-84178842D01*
X201875500Y-84021158D01*
X201875500Y-84021155D01*
X201875499Y-84021153D01*
X201854000Y-83913071D01*
X201844737Y-83866503D01*
X201807944Y-83777678D01*
X201800476Y-83708211D01*
X201831751Y-83645731D01*
X201834798Y-83642573D01*
X201904289Y-83573083D01*
X201991894Y-83441973D01*
X202052237Y-83296291D01*
X202083000Y-83141636D01*
X202083000Y-82983952D01*
X202083000Y-82983949D01*
X202082999Y-82983947D01*
X202078567Y-82961667D01*
X202052237Y-82829297D01*
X202043011Y-82807024D01*
X201991897Y-82683621D01*
X201991890Y-82683608D01*
X201944820Y-82613163D01*
X201923942Y-82546485D01*
X201942427Y-82479105D01*
X201960234Y-82456598D01*
X202007958Y-82408875D01*
X202095563Y-82277765D01*
X202155906Y-82132083D01*
X202186669Y-81977428D01*
X202186669Y-81819744D01*
X202186669Y-81819741D01*
X202175183Y-81761999D01*
X202181410Y-81692407D01*
X202224273Y-81637230D01*
X202290162Y-81613985D01*
X202358159Y-81630053D01*
X202400762Y-81670221D01*
X202406990Y-81679801D01*
X202417096Y-81704199D01*
X202504701Y-81835309D01*
X202514374Y-81844982D01*
X202521463Y-81855886D01*
X202527903Y-81877402D01*
X202538667Y-81897114D01*
X202538816Y-81913860D01*
X202541499Y-81922821D01*
X202538975Y-81931586D01*
X202539118Y-81947661D01*
X202527233Y-82007421D01*
X202524500Y-82021159D01*
X202524500Y-82178846D01*
X202555261Y-82333489D01*
X202555264Y-82333501D01*
X202615602Y-82479172D01*
X202615609Y-82479185D01*
X202703210Y-82610288D01*
X202703213Y-82610292D01*
X202814707Y-82721786D01*
X202814711Y-82721789D01*
X202945814Y-82809390D01*
X202945827Y-82809397D01*
X203091498Y-82869735D01*
X203091503Y-82869737D01*
X203200822Y-82891482D01*
X203246153Y-82900499D01*
X203246156Y-82900500D01*
X203365854Y-82900500D01*
X203432893Y-82920185D01*
X203478648Y-82972989D01*
X203488592Y-83042147D01*
X203487471Y-83048691D01*
X203457371Y-83200012D01*
X203457371Y-83357705D01*
X203488132Y-83512348D01*
X203488135Y-83512360D01*
X203548473Y-83658031D01*
X203548480Y-83658044D01*
X203636081Y-83789147D01*
X203636084Y-83789151D01*
X203747578Y-83900645D01*
X203747582Y-83900648D01*
X203878685Y-83988249D01*
X203878698Y-83988256D01*
X203928419Y-84008851D01*
X203982823Y-84052692D01*
X204004888Y-84118986D01*
X203995528Y-84170864D01*
X203975314Y-84219664D01*
X203975311Y-84219676D01*
X203944550Y-84374319D01*
X203944550Y-84532012D01*
X203975311Y-84686655D01*
X203975314Y-84686667D01*
X204035652Y-84832338D01*
X204035659Y-84832351D01*
X204123260Y-84963454D01*
X204123263Y-84963458D01*
X204234757Y-85074952D01*
X204234761Y-85074955D01*
X204365864Y-85162556D01*
X204365877Y-85162563D01*
X204511548Y-85222901D01*
X204511553Y-85222903D01*
X204666203Y-85253665D01*
X204666206Y-85253666D01*
X204666208Y-85253666D01*
X204823894Y-85253666D01*
X204823895Y-85253665D01*
X204978547Y-85222903D01*
X205107699Y-85169407D01*
X205124222Y-85162563D01*
X205124222Y-85162562D01*
X205124229Y-85162560D01*
X205255339Y-85074955D01*
X205366839Y-84963455D01*
X205454444Y-84832345D01*
X205514787Y-84686663D01*
X205545550Y-84532008D01*
X205545550Y-84374324D01*
X205545550Y-84374321D01*
X205545549Y-84374319D01*
X205535087Y-84321725D01*
X205514787Y-84219669D01*
X205510161Y-84208501D01*
X205454447Y-84073993D01*
X205454440Y-84073980D01*
X205366839Y-83942877D01*
X205366836Y-83942873D01*
X205255342Y-83831379D01*
X205255338Y-83831376D01*
X205124235Y-83743775D01*
X205124231Y-83743773D01*
X205124229Y-83743772D01*
X205074498Y-83723173D01*
X205020098Y-83679334D01*
X204998032Y-83613040D01*
X205007391Y-83561164D01*
X205027608Y-83512356D01*
X205058371Y-83357701D01*
X205058371Y-83200017D01*
X205058371Y-83200014D01*
X205058370Y-83200012D01*
X205046759Y-83141640D01*
X205027608Y-83045362D01*
X205013082Y-83010292D01*
X204967268Y-82899686D01*
X204967261Y-82899673D01*
X204879660Y-82768570D01*
X204879657Y-82768566D01*
X204768163Y-82657072D01*
X204768159Y-82657069D01*
X204637056Y-82569468D01*
X204637043Y-82569461D01*
X204491372Y-82509123D01*
X204491360Y-82509120D01*
X204336716Y-82478359D01*
X204336713Y-82478359D01*
X204217017Y-82478359D01*
X204149978Y-82458674D01*
X204104223Y-82405870D01*
X204094279Y-82336712D01*
X204095400Y-82330168D01*
X204125499Y-82178846D01*
X204125500Y-82178844D01*
X204125500Y-82021155D01*
X204125499Y-82021153D01*
X204122910Y-82008138D01*
X204094737Y-81866503D01*
X204092758Y-81861725D01*
X204080803Y-81832862D01*
X204073334Y-81763393D01*
X204104610Y-81700914D01*
X204164699Y-81665262D01*
X204234524Y-81667756D01*
X204242807Y-81670845D01*
X204326503Y-81705513D01*
X204456399Y-81731351D01*
X204481153Y-81736275D01*
X204481156Y-81736276D01*
X204481158Y-81736276D01*
X204638844Y-81736276D01*
X204638845Y-81736275D01*
X204793497Y-81705513D01*
X204906166Y-81658843D01*
X204939172Y-81645173D01*
X204939172Y-81645172D01*
X204939179Y-81645170D01*
X205070289Y-81557565D01*
X205181789Y-81446065D01*
X205269394Y-81314955D01*
X205329737Y-81169273D01*
X205360500Y-81014618D01*
X205360500Y-80856934D01*
X205360500Y-80856931D01*
X205360499Y-80856929D01*
X205341138Y-80759597D01*
X205329737Y-80702279D01*
X205324987Y-80690812D01*
X205269397Y-80556603D01*
X205269395Y-80556599D01*
X205269394Y-80556597D01*
X205188650Y-80435756D01*
X205167773Y-80369080D01*
X205186257Y-80301700D01*
X205204073Y-80279184D01*
X205239325Y-80243932D01*
X205239328Y-80243929D01*
X205326933Y-80112819D01*
X205387276Y-79967137D01*
X205418039Y-79812482D01*
X205418039Y-79654798D01*
X205418039Y-79654795D01*
X205418038Y-79654793D01*
X205405092Y-79589711D01*
X205387276Y-79500143D01*
X205385018Y-79494692D01*
X205326936Y-79354467D01*
X205326929Y-79354454D01*
X205239328Y-79223351D01*
X205239325Y-79223347D01*
X205127831Y-79111853D01*
X205127827Y-79111850D01*
X204996724Y-79024249D01*
X204996711Y-79024242D01*
X204851040Y-78963904D01*
X204851028Y-78963901D01*
X204696384Y-78933140D01*
X204696381Y-78933140D01*
X204538697Y-78933140D01*
X204538694Y-78933140D01*
X204384049Y-78963901D01*
X204384037Y-78963904D01*
X204238366Y-79024242D01*
X204238353Y-79024249D01*
X204107250Y-79111850D01*
X204107246Y-79111853D01*
X203995756Y-79223344D01*
X203995752Y-79223348D01*
X203995750Y-79223351D01*
X203981690Y-79244392D01*
X203928079Y-79289196D01*
X203878590Y-79299500D01*
X203746155Y-79299500D01*
X203591510Y-79330261D01*
X203591498Y-79330264D01*
X203445827Y-79390602D01*
X203445814Y-79390609D01*
X203314711Y-79478210D01*
X203314707Y-79478213D01*
X203203213Y-79589707D01*
X203203210Y-79589711D01*
X203115609Y-79720814D01*
X203115602Y-79720827D01*
X203055264Y-79866498D01*
X203055261Y-79866510D01*
X203024500Y-80021153D01*
X203024500Y-80178846D01*
X203055261Y-80333489D01*
X203055264Y-80333501D01*
X203069963Y-80368987D01*
X203077432Y-80438456D01*
X203046157Y-80500935D01*
X202986067Y-80536587D01*
X202979594Y-80538056D01*
X202892998Y-80555281D01*
X202892988Y-80555284D01*
X202747317Y-80615622D01*
X202747304Y-80615629D01*
X202616201Y-80703230D01*
X202616197Y-80703233D01*
X202504703Y-80814727D01*
X202504700Y-80814731D01*
X202417099Y-80945834D01*
X202417092Y-80945847D01*
X202356754Y-81091518D01*
X202356751Y-81091530D01*
X202325990Y-81246173D01*
X202325990Y-81403861D01*
X202337476Y-81461608D01*
X202331247Y-81531199D01*
X202288384Y-81586376D01*
X202222494Y-81609620D01*
X202154497Y-81593552D01*
X202105982Y-81543272D01*
X202101296Y-81533248D01*
X202095564Y-81519410D01*
X202095563Y-81519407D01*
X202095561Y-81519404D01*
X202095559Y-81519400D01*
X202007958Y-81388297D01*
X202007955Y-81388293D01*
X201896461Y-81276799D01*
X201896457Y-81276796D01*
X201765354Y-81189195D01*
X201765349Y-81189193D01*
X201765348Y-81189192D01*
X201732270Y-81175490D01*
X201709460Y-81166042D01*
X201655057Y-81122200D01*
X201635296Y-81075671D01*
X201632239Y-81060298D01*
X201590154Y-80958695D01*
X201571899Y-80914622D01*
X201571892Y-80914609D01*
X201511930Y-80824870D01*
X201491052Y-80758193D01*
X201509536Y-80690812D01*
X201546139Y-80652878D01*
X201602362Y-80615312D01*
X201713862Y-80503812D01*
X201801467Y-80372702D01*
X201861810Y-80227020D01*
X201892573Y-80072365D01*
X201892573Y-79914681D01*
X201892573Y-79914678D01*
X201892572Y-79914676D01*
X201886372Y-79883505D01*
X201861810Y-79760026D01*
X201859046Y-79753355D01*
X201851578Y-79683886D01*
X201870507Y-79637011D01*
X201908659Y-79579914D01*
X201969002Y-79434232D01*
X201999765Y-79279577D01*
X201999765Y-79192502D01*
X202019450Y-79125463D01*
X202072254Y-79079708D01*
X202141412Y-79069764D01*
X202147950Y-79070883D01*
X202159643Y-79073209D01*
X202171157Y-79075500D01*
X202171158Y-79075500D01*
X202328844Y-79075500D01*
X202328845Y-79075499D01*
X202483497Y-79044737D01*
X202629179Y-78984394D01*
X202760289Y-78896789D01*
X202871789Y-78785289D01*
X202871792Y-78785283D01*
X202875649Y-78780585D01*
X202877046Y-78781732D01*
X202924126Y-78742378D01*
X202993451Y-78733664D01*
X203056481Y-78763812D01*
X203061309Y-78768388D01*
X203089707Y-78796786D01*
X203089711Y-78796789D01*
X203220814Y-78884390D01*
X203220827Y-78884397D01*
X203366498Y-78944735D01*
X203366503Y-78944737D01*
X203507911Y-78972865D01*
X203521153Y-78975499D01*
X203521156Y-78975500D01*
X203521158Y-78975500D01*
X203678844Y-78975500D01*
X203678845Y-78975499D01*
X203833497Y-78944737D01*
X203979179Y-78884394D01*
X204110289Y-78796789D01*
X204221789Y-78685289D01*
X204309394Y-78554179D01*
X204369737Y-78408497D01*
X204400500Y-78253842D01*
X204400500Y-78096158D01*
X204400500Y-78096155D01*
X204400499Y-78096153D01*
X204369738Y-77941510D01*
X204369737Y-77941503D01*
X204348370Y-77889917D01*
X204309397Y-77795827D01*
X204309390Y-77795814D01*
X204221789Y-77664711D01*
X204221786Y-77664707D01*
X204110292Y-77553213D01*
X204110288Y-77553210D01*
X203979185Y-77465609D01*
X203979172Y-77465602D01*
X203833501Y-77405264D01*
X203833489Y-77405261D01*
X203678845Y-77374500D01*
X203678842Y-77374500D01*
X203521158Y-77374500D01*
X203521155Y-77374500D01*
X203366510Y-77405261D01*
X203366498Y-77405264D01*
X203220827Y-77465602D01*
X203220814Y-77465609D01*
X203089711Y-77553210D01*
X203089707Y-77553213D01*
X202978213Y-77664707D01*
X202974347Y-77669419D01*
X202972952Y-77668274D01*
X202925848Y-77707632D01*
X202856522Y-77716331D01*
X202793498Y-77686169D01*
X202788690Y-77681611D01*
X202760292Y-77653213D01*
X202760288Y-77653210D01*
X202629185Y-77565609D01*
X202629172Y-77565602D01*
X202483501Y-77505264D01*
X202483489Y-77505261D01*
X202328845Y-77474500D01*
X202328842Y-77474500D01*
X202171158Y-77474500D01*
X202171155Y-77474500D01*
X202016510Y-77505261D01*
X202016498Y-77505264D01*
X201870827Y-77565602D01*
X201870814Y-77565609D01*
X201739711Y-77653210D01*
X201739707Y-77653213D01*
X201628213Y-77764707D01*
X201628210Y-77764711D01*
X201540609Y-77895814D01*
X201540602Y-77895827D01*
X201480264Y-78041498D01*
X201480261Y-78041510D01*
X201449500Y-78196153D01*
X201449500Y-78283232D01*
X201429815Y-78350271D01*
X201377011Y-78396026D01*
X201307853Y-78405970D01*
X201301311Y-78404850D01*
X201278108Y-78400235D01*
X201278107Y-78400235D01*
X201120423Y-78400235D01*
X201120420Y-78400235D01*
X200965775Y-78430996D01*
X200965763Y-78430999D01*
X200820092Y-78491337D01*
X200820079Y-78491344D01*
X200688976Y-78578945D01*
X200688972Y-78578948D01*
X200577478Y-78690442D01*
X200577475Y-78690446D01*
X200489874Y-78821549D01*
X200489867Y-78821562D01*
X200427197Y-78972865D01*
X200424753Y-78971852D01*
X200392676Y-79020709D01*
X200328839Y-79049110D01*
X200259782Y-79038490D01*
X200207428Y-78992220D01*
X200197692Y-78970871D01*
X200197068Y-78971130D01*
X200134397Y-78819827D01*
X200134390Y-78819814D01*
X200046789Y-78688711D01*
X200046786Y-78688707D01*
X199935292Y-78577213D01*
X199935288Y-78577210D01*
X199804185Y-78489609D01*
X199804172Y-78489602D01*
X199658501Y-78429264D01*
X199658489Y-78429261D01*
X199503845Y-78398500D01*
X199503842Y-78398500D01*
X199346158Y-78398500D01*
X199346155Y-78398500D01*
X199191510Y-78429261D01*
X199191498Y-78429264D01*
X199045827Y-78489602D01*
X199045814Y-78489609D01*
X198914711Y-78577210D01*
X198914707Y-78577213D01*
X198803210Y-78688710D01*
X198800785Y-78691666D01*
X198799361Y-78692635D01*
X198798646Y-78694203D01*
X198770593Y-78712230D01*
X198743039Y-78731000D01*
X198740852Y-78731344D01*
X198739868Y-78731977D01*
X198704933Y-78737000D01*
X198560210Y-78737000D01*
X198493171Y-78717315D01*
X198457108Y-78681891D01*
X198380803Y-78567693D01*
X198380800Y-78567689D01*
X198269306Y-78456195D01*
X198269302Y-78456192D01*
X198138199Y-78368591D01*
X198138186Y-78368584D01*
X197992515Y-78308246D01*
X197992503Y-78308243D01*
X197837859Y-78277482D01*
X197837856Y-78277482D01*
X197680172Y-78277482D01*
X197680169Y-78277482D01*
X197525524Y-78308243D01*
X197525512Y-78308246D01*
X197379841Y-78368584D01*
X197379828Y-78368591D01*
X197248725Y-78456192D01*
X197248721Y-78456195D01*
X197137224Y-78567692D01*
X197079968Y-78653384D01*
X197073876Y-78658474D01*
X197070579Y-78665696D01*
X197047451Y-78680559D01*
X197026356Y-78698189D01*
X197016981Y-78700140D01*
X197011801Y-78703470D01*
X196976866Y-78708493D01*
X196936123Y-78708493D01*
X196869084Y-78688808D01*
X196848446Y-78672178D01*
X196769201Y-78592933D01*
X196769200Y-78592932D01*
X196769199Y-78592931D01*
X196638097Y-78505331D01*
X196638084Y-78505324D01*
X196492413Y-78444986D01*
X196492401Y-78444983D01*
X196337757Y-78414222D01*
X196337754Y-78414222D01*
X196195911Y-78414222D01*
X196128872Y-78394537D01*
X196083117Y-78341733D01*
X196074294Y-78314415D01*
X196069737Y-78291503D01*
X196030242Y-78196153D01*
X196009397Y-78145827D01*
X196009390Y-78145814D01*
X195921789Y-78014711D01*
X195921786Y-78014707D01*
X195810292Y-77903213D01*
X195810288Y-77903210D01*
X195679185Y-77815609D01*
X195679172Y-77815602D01*
X195533501Y-77755264D01*
X195533489Y-77755261D01*
X195378845Y-77724500D01*
X195378842Y-77724500D01*
X195221158Y-77724500D01*
X195221155Y-77724500D01*
X195066510Y-77755261D01*
X195066498Y-77755264D01*
X194920827Y-77815602D01*
X194920814Y-77815609D01*
X194789711Y-77903210D01*
X194789707Y-77903213D01*
X194678213Y-78014707D01*
X194678210Y-78014711D01*
X194590609Y-78145814D01*
X194590602Y-78145827D01*
X194530264Y-78291498D01*
X194530261Y-78291510D01*
X194499500Y-78446153D01*
X193193099Y-78446153D01*
X193210500Y-78336287D01*
X193210500Y-78123713D01*
X193177246Y-77913757D01*
X193111557Y-77711588D01*
X193015051Y-77522184D01*
X193015049Y-77522181D01*
X193015048Y-77522179D01*
X192890109Y-77350213D01*
X192739786Y-77199890D01*
X192567820Y-77074951D01*
X192567115Y-77074591D01*
X192559054Y-77070485D01*
X192508259Y-77022512D01*
X192491463Y-76954692D01*
X192513999Y-76888556D01*
X192559054Y-76849515D01*
X192567816Y-76845051D01*
X192684478Y-76760292D01*
X192739786Y-76720109D01*
X192739788Y-76720106D01*
X192739792Y-76720104D01*
X192890104Y-76569792D01*
X192890106Y-76569788D01*
X192890109Y-76569786D01*
X193015048Y-76397820D01*
X193015047Y-76397820D01*
X193015051Y-76397816D01*
X193111557Y-76208412D01*
X193123663Y-76171153D01*
X197774500Y-76171153D01*
X197774500Y-76328846D01*
X197805261Y-76483489D01*
X197805264Y-76483501D01*
X197865602Y-76629172D01*
X197865609Y-76629185D01*
X197953210Y-76760288D01*
X197953213Y-76760292D01*
X198064707Y-76871786D01*
X198064711Y-76871789D01*
X198195814Y-76959390D01*
X198195827Y-76959397D01*
X198341498Y-77019735D01*
X198341503Y-77019737D01*
X198496153Y-77050499D01*
X198496156Y-77050500D01*
X198496158Y-77050500D01*
X198653844Y-77050500D01*
X198653845Y-77050499D01*
X198808497Y-77019737D01*
X198954179Y-76959394D01*
X199085289Y-76871789D01*
X199196789Y-76760289D01*
X199284394Y-76629179D01*
X199297772Y-76596880D01*
X199341612Y-76542479D01*
X199407906Y-76520413D01*
X199475605Y-76537692D01*
X199481224Y-76541232D01*
X199545814Y-76584390D01*
X199545827Y-76584397D01*
X199691498Y-76644735D01*
X199691503Y-76644737D01*
X199846153Y-76675499D01*
X199846156Y-76675500D01*
X199846158Y-76675500D01*
X200003844Y-76675500D01*
X200003845Y-76675499D01*
X200158497Y-76644737D01*
X200304179Y-76584394D01*
X200435289Y-76496789D01*
X200481180Y-76450898D01*
X200542503Y-76417412D01*
X200612194Y-76422396D01*
X200668128Y-76464267D01*
X200683423Y-76491126D01*
X200740602Y-76629172D01*
X200740609Y-76629185D01*
X200828210Y-76760288D01*
X200828213Y-76760292D01*
X200939707Y-76871786D01*
X200939711Y-76871789D01*
X201070814Y-76959390D01*
X201070827Y-76959397D01*
X201216498Y-77019735D01*
X201216503Y-77019737D01*
X201371153Y-77050499D01*
X201371156Y-77050500D01*
X201371158Y-77050500D01*
X201528844Y-77050500D01*
X201528845Y-77050499D01*
X201683497Y-77019737D01*
X201829179Y-76959394D01*
X201960289Y-76871789D01*
X202071789Y-76760289D01*
X202134512Y-76666417D01*
X202188121Y-76621615D01*
X202257446Y-76612907D01*
X202261762Y-76613685D01*
X202309186Y-76623118D01*
X202321157Y-76625500D01*
X202321158Y-76625500D01*
X202478844Y-76625500D01*
X202478845Y-76625499D01*
X202633497Y-76594737D01*
X202759660Y-76542479D01*
X202779172Y-76534397D01*
X202779172Y-76534396D01*
X202779179Y-76534394D01*
X202910289Y-76446789D01*
X203021789Y-76335289D01*
X203109394Y-76204179D01*
X203169737Y-76058497D01*
X203200500Y-75903842D01*
X203200500Y-75746158D01*
X203200500Y-75746155D01*
X203200499Y-75746153D01*
X203183507Y-75660730D01*
X203169737Y-75591503D01*
X203148655Y-75540606D01*
X203109397Y-75445827D01*
X203109390Y-75445814D01*
X203021789Y-75314711D01*
X203021786Y-75314707D01*
X202910292Y-75203213D01*
X202910288Y-75203210D01*
X202779185Y-75115609D01*
X202779172Y-75115602D01*
X202633501Y-75055264D01*
X202633489Y-75055261D01*
X202478845Y-75024500D01*
X202478842Y-75024500D01*
X202321158Y-75024500D01*
X202321155Y-75024500D01*
X202166510Y-75055261D01*
X202166498Y-75055264D01*
X202020827Y-75115602D01*
X202020814Y-75115609D01*
X201889711Y-75203210D01*
X201889707Y-75203213D01*
X201778213Y-75314707D01*
X201778210Y-75314711D01*
X201715489Y-75408579D01*
X201661876Y-75453384D01*
X201592551Y-75462091D01*
X201588197Y-75461306D01*
X201548368Y-75453384D01*
X201528842Y-75449500D01*
X201371158Y-75449500D01*
X201371155Y-75449500D01*
X201216510Y-75480261D01*
X201216498Y-75480264D01*
X201070827Y-75540602D01*
X201070814Y-75540609D01*
X200939711Y-75628210D01*
X200939706Y-75628214D01*
X200893817Y-75674103D01*
X200832494Y-75707587D01*
X200762802Y-75702602D01*
X200706869Y-75660730D01*
X200691580Y-75633883D01*
X200634394Y-75495821D01*
X200634392Y-75495818D01*
X200634390Y-75495814D01*
X200546789Y-75364711D01*
X200546786Y-75364707D01*
X200435292Y-75253213D01*
X200435288Y-75253210D01*
X200304185Y-75165609D01*
X200304172Y-75165602D01*
X200158501Y-75105264D01*
X200158489Y-75105261D01*
X200003845Y-75074500D01*
X200003842Y-75074500D01*
X199846158Y-75074500D01*
X199846155Y-75074500D01*
X199691510Y-75105261D01*
X199691498Y-75105264D01*
X199545827Y-75165602D01*
X199545814Y-75165609D01*
X199414711Y-75253210D01*
X199414707Y-75253213D01*
X199303213Y-75364707D01*
X199303210Y-75364711D01*
X199215609Y-75495814D01*
X199215603Y-75495826D01*
X199202226Y-75528120D01*
X199158384Y-75582523D01*
X199092089Y-75604586D01*
X199024390Y-75587305D01*
X199018775Y-75583767D01*
X198954185Y-75540609D01*
X198954172Y-75540602D01*
X198808501Y-75480264D01*
X198808489Y-75480261D01*
X198653845Y-75449500D01*
X198653842Y-75449500D01*
X198496158Y-75449500D01*
X198496155Y-75449500D01*
X198341510Y-75480261D01*
X198341498Y-75480264D01*
X198195827Y-75540602D01*
X198195814Y-75540609D01*
X198064711Y-75628210D01*
X198064707Y-75628213D01*
X197953213Y-75739707D01*
X197953210Y-75739711D01*
X197865609Y-75870814D01*
X197865602Y-75870827D01*
X197805264Y-76016498D01*
X197805261Y-76016510D01*
X197774500Y-76171153D01*
X193123663Y-76171153D01*
X193177246Y-76006243D01*
X193210500Y-75796287D01*
X193210500Y-75583713D01*
X193177246Y-75373757D01*
X193111557Y-75171588D01*
X193015051Y-74982184D01*
X193015049Y-74982181D01*
X193015048Y-74982179D01*
X192890109Y-74810213D01*
X192739786Y-74659890D01*
X192567817Y-74534949D01*
X192558504Y-74530204D01*
X192507707Y-74482230D01*
X192490912Y-74414409D01*
X192513449Y-74348274D01*
X192558507Y-74309232D01*
X192567555Y-74304622D01*
X192621716Y-74265270D01*
X192621717Y-74265270D01*
X192534194Y-74177747D01*
X192452600Y-74096153D01*
X195599500Y-74096153D01*
X195599500Y-74253846D01*
X195630261Y-74408489D01*
X195630264Y-74408501D01*
X195690602Y-74554172D01*
X195690609Y-74554185D01*
X195778210Y-74685288D01*
X195778213Y-74685292D01*
X195889707Y-74796786D01*
X195889711Y-74796789D01*
X196020814Y-74884390D01*
X196020827Y-74884397D01*
X196145091Y-74935868D01*
X196166503Y-74944737D01*
X196321153Y-74975499D01*
X196321156Y-74975500D01*
X196321158Y-74975500D01*
X196478844Y-74975500D01*
X196478845Y-74975499D01*
X196633497Y-74944737D01*
X196779179Y-74884394D01*
X196910289Y-74796789D01*
X197021789Y-74685289D01*
X197109394Y-74554179D01*
X197111768Y-74548445D01*
X197155604Y-74494042D01*
X197221896Y-74471972D01*
X197273783Y-74481332D01*
X197366498Y-74519735D01*
X197366503Y-74519737D01*
X197510842Y-74548448D01*
X197521153Y-74550499D01*
X197521156Y-74550500D01*
X197521158Y-74550500D01*
X197678844Y-74550500D01*
X197678845Y-74550499D01*
X197833497Y-74519737D01*
X197979179Y-74459394D01*
X198110289Y-74371789D01*
X198168109Y-74313968D01*
X198229430Y-74280485D01*
X198299122Y-74285469D01*
X198355056Y-74327340D01*
X198370350Y-74354197D01*
X198391370Y-74404943D01*
X198391373Y-74404949D01*
X198478974Y-74536052D01*
X198478977Y-74536056D01*
X198590471Y-74647550D01*
X198590475Y-74647553D01*
X198721578Y-74735154D01*
X198721591Y-74735161D01*
X198867262Y-74795499D01*
X198867267Y-74795501D01*
X199021917Y-74826263D01*
X199021920Y-74826264D01*
X199021922Y-74826264D01*
X199179608Y-74826264D01*
X199179609Y-74826263D01*
X199334261Y-74795501D01*
X199479943Y-74735158D01*
X199611053Y-74647553D01*
X199722553Y-74536053D01*
X199810158Y-74404943D01*
X199870501Y-74259261D01*
X199901264Y-74104606D01*
X199901264Y-73946922D01*
X199901264Y-73946919D01*
X199901263Y-73946917D01*
X199883487Y-73857554D01*
X199870501Y-73792267D01*
X199870499Y-73792262D01*
X199810161Y-73646591D01*
X199810154Y-73646578D01*
X199722553Y-73515475D01*
X199722550Y-73515471D01*
X199611056Y-73403977D01*
X199611052Y-73403974D01*
X199479949Y-73316373D01*
X199479936Y-73316366D01*
X199334263Y-73256027D01*
X199334257Y-73256025D01*
X199309500Y-73251101D01*
X199291777Y-73241830D01*
X199272312Y-73237226D01*
X199261451Y-73225966D01*
X199247590Y-73218715D01*
X199237692Y-73201334D01*
X199223806Y-73186937D01*
X199214559Y-73160709D01*
X199213016Y-73157999D01*
X199212078Y-73153686D01*
X199211455Y-73150555D01*
X199211120Y-73148865D01*
X199217361Y-73079275D01*
X199245059Y-73037018D01*
X199321789Y-72960289D01*
X199409394Y-72829179D01*
X199469737Y-72683497D01*
X199500500Y-72528842D01*
X199500500Y-72371158D01*
X199500500Y-72371155D01*
X199500499Y-72371153D01*
X199494505Y-72341021D01*
X199469737Y-72216503D01*
X199469735Y-72216498D01*
X199409397Y-72070827D01*
X199409390Y-72070814D01*
X199321789Y-71939711D01*
X199321786Y-71939707D01*
X199210292Y-71828213D01*
X199210288Y-71828210D01*
X199079185Y-71740609D01*
X199079172Y-71740602D01*
X198933501Y-71680264D01*
X198933489Y-71680261D01*
X198778845Y-71649500D01*
X198778842Y-71649500D01*
X198621158Y-71649500D01*
X198621155Y-71649500D01*
X198466510Y-71680261D01*
X198466498Y-71680264D01*
X198320827Y-71740602D01*
X198320814Y-71740609D01*
X198189711Y-71828210D01*
X198189707Y-71828213D01*
X198078213Y-71939707D01*
X198078210Y-71939711D01*
X197990609Y-72070814D01*
X197990602Y-72070827D01*
X197930264Y-72216498D01*
X197930261Y-72216510D01*
X197899500Y-72371153D01*
X197899500Y-72371158D01*
X197899500Y-72528842D01*
X197899501Y-72528846D01*
X197913875Y-72601111D01*
X197907647Y-72670702D01*
X197879939Y-72712982D01*
X197803210Y-72789711D01*
X197733266Y-72894391D01*
X197679654Y-72939196D01*
X197630164Y-72949500D01*
X197521155Y-72949500D01*
X197366510Y-72980261D01*
X197366498Y-72980264D01*
X197220827Y-73040602D01*
X197220814Y-73040609D01*
X197089711Y-73128210D01*
X197089707Y-73128213D01*
X196978213Y-73239707D01*
X196978210Y-73239711D01*
X196890609Y-73370814D01*
X196890601Y-73370830D01*
X196888224Y-73376568D01*
X196844379Y-73430968D01*
X196778083Y-73453027D01*
X196726215Y-73443667D01*
X196633501Y-73405264D01*
X196633489Y-73405261D01*
X196478845Y-73374500D01*
X196478842Y-73374500D01*
X196321158Y-73374500D01*
X196321155Y-73374500D01*
X196166510Y-73405261D01*
X196166498Y-73405264D01*
X196020827Y-73465602D01*
X196020814Y-73465609D01*
X195889711Y-73553210D01*
X195889707Y-73553213D01*
X195778213Y-73664707D01*
X195778210Y-73664711D01*
X195690609Y-73795814D01*
X195690602Y-73795827D01*
X195630264Y-73941498D01*
X195630261Y-73941510D01*
X195599500Y-74096153D01*
X192452600Y-74096153D01*
X191989408Y-73632962D01*
X192052993Y-73615925D01*
X192167007Y-73550099D01*
X192260099Y-73457007D01*
X192325925Y-73342993D01*
X192342962Y-73279408D01*
X192975270Y-73911717D01*
X192975270Y-73911716D01*
X193014622Y-73857554D01*
X193111095Y-73668217D01*
X193176757Y-73466130D01*
X193176757Y-73466127D01*
X193210000Y-73256246D01*
X193210000Y-73043753D01*
X193176757Y-72833872D01*
X193176757Y-72833869D01*
X193111095Y-72631782D01*
X193014624Y-72442449D01*
X192975270Y-72388282D01*
X192975269Y-72388282D01*
X192342962Y-73020590D01*
X192325925Y-72957007D01*
X192260099Y-72842993D01*
X192167007Y-72749901D01*
X192052993Y-72684075D01*
X191989409Y-72667037D01*
X192621716Y-72034728D01*
X192567547Y-71995373D01*
X192567547Y-71995372D01*
X192558500Y-71990763D01*
X192507706Y-71942788D01*
X192490912Y-71874966D01*
X192513451Y-71808832D01*
X192558508Y-71769793D01*
X192567816Y-71765051D01*
X192684516Y-71680264D01*
X192739786Y-71640109D01*
X192739788Y-71640106D01*
X192739792Y-71640104D01*
X192890104Y-71489792D01*
X192890106Y-71489788D01*
X192890109Y-71489786D01*
X193015048Y-71317820D01*
X193015047Y-71317820D01*
X193015051Y-71317816D01*
X193111557Y-71128412D01*
X193177246Y-70926243D01*
X193210500Y-70716287D01*
X193210500Y-70503713D01*
X193177246Y-70293757D01*
X193148409Y-70205007D01*
X198367118Y-70205007D01*
X198367118Y-70362700D01*
X198397879Y-70517343D01*
X198397882Y-70517355D01*
X198458220Y-70663026D01*
X198458227Y-70663039D01*
X198545828Y-70794142D01*
X198545831Y-70794146D01*
X198657325Y-70905640D01*
X198657329Y-70905643D01*
X198788432Y-70993244D01*
X198788445Y-70993251D01*
X198934116Y-71053589D01*
X198934121Y-71053591D01*
X199088771Y-71084353D01*
X199088774Y-71084354D01*
X199088776Y-71084354D01*
X199246462Y-71084354D01*
X199246463Y-71084353D01*
X199401115Y-71053591D01*
X199546797Y-70993248D01*
X199677907Y-70905643D01*
X199789407Y-70794143D01*
X199877012Y-70663033D01*
X199937355Y-70517351D01*
X199968118Y-70362696D01*
X199968118Y-70205012D01*
X199968118Y-70205009D01*
X199968117Y-70205007D01*
X199937356Y-70050364D01*
X199937355Y-70050357D01*
X199937353Y-70050352D01*
X199877015Y-69904681D01*
X199877008Y-69904668D01*
X199789407Y-69773565D01*
X199789404Y-69773561D01*
X199677910Y-69662067D01*
X199677906Y-69662064D01*
X199546803Y-69574463D01*
X199546790Y-69574456D01*
X199401119Y-69514118D01*
X199401107Y-69514115D01*
X199246463Y-69483354D01*
X199246460Y-69483354D01*
X199088776Y-69483354D01*
X199088773Y-69483354D01*
X198934128Y-69514115D01*
X198934116Y-69514118D01*
X198788445Y-69574456D01*
X198788432Y-69574463D01*
X198657329Y-69662064D01*
X198657325Y-69662067D01*
X198545831Y-69773561D01*
X198545828Y-69773565D01*
X198458227Y-69904668D01*
X198458220Y-69904681D01*
X198397882Y-70050352D01*
X198397879Y-70050364D01*
X198367118Y-70205007D01*
X193148409Y-70205007D01*
X193111557Y-70091588D01*
X193015051Y-69902184D01*
X193015049Y-69902181D01*
X193015048Y-69902179D01*
X192890109Y-69730213D01*
X192739786Y-69579890D01*
X192567820Y-69454951D01*
X192567115Y-69454591D01*
X192559054Y-69450485D01*
X192508259Y-69402512D01*
X192491463Y-69334692D01*
X192513999Y-69268556D01*
X192559054Y-69229515D01*
X192567816Y-69225051D01*
X192589789Y-69209086D01*
X192739786Y-69100109D01*
X192739788Y-69100106D01*
X192739792Y-69100104D01*
X192890104Y-68949792D01*
X192890106Y-68949788D01*
X192890109Y-68949786D01*
X193015048Y-68777820D01*
X193015047Y-68777820D01*
X193015051Y-68777816D01*
X193111557Y-68588412D01*
X193177246Y-68386243D01*
X193210500Y-68176287D01*
X193210500Y-67963713D01*
X193177246Y-67753757D01*
X193111557Y-67551588D01*
X193015051Y-67362184D01*
X193015049Y-67362181D01*
X193015048Y-67362179D01*
X192890109Y-67190213D01*
X192739786Y-67039890D01*
X192567820Y-66914951D01*
X192567115Y-66914591D01*
X192559054Y-66910485D01*
X192508259Y-66862512D01*
X192491463Y-66794692D01*
X192513999Y-66728556D01*
X192559054Y-66689515D01*
X192567816Y-66685051D01*
X192603136Y-66659390D01*
X192739786Y-66560109D01*
X192739788Y-66560106D01*
X192739792Y-66560104D01*
X192890104Y-66409792D01*
X192890106Y-66409788D01*
X192890109Y-66409786D01*
X193015048Y-66237820D01*
X193015047Y-66237820D01*
X193015051Y-66237816D01*
X193111557Y-66048412D01*
X193169152Y-65871153D01*
X202175557Y-65871153D01*
X202175557Y-66028846D01*
X202206318Y-66183489D01*
X202206321Y-66183501D01*
X202266659Y-66329172D01*
X202266666Y-66329185D01*
X202354267Y-66460288D01*
X202354270Y-66460292D01*
X202465764Y-66571786D01*
X202465768Y-66571789D01*
X202596871Y-66659390D01*
X202596884Y-66659397D01*
X202669599Y-66689516D01*
X202742560Y-66719737D01*
X202897210Y-66750499D01*
X202897213Y-66750500D01*
X202897215Y-66750500D01*
X203054901Y-66750500D01*
X203054902Y-66750499D01*
X203209554Y-66719737D01*
X203355236Y-66659394D01*
X203486346Y-66571789D01*
X203597846Y-66460289D01*
X203685451Y-66329179D01*
X203745794Y-66183497D01*
X203776557Y-66028842D01*
X203776557Y-65871158D01*
X203776557Y-65871155D01*
X203776556Y-65871153D01*
X203745795Y-65716510D01*
X203745794Y-65716503D01*
X203712568Y-65636287D01*
X203685454Y-65570827D01*
X203685447Y-65570814D01*
X203597846Y-65439711D01*
X203597843Y-65439707D01*
X203486349Y-65328213D01*
X203486345Y-65328210D01*
X203355242Y-65240609D01*
X203355229Y-65240602D01*
X203209558Y-65180264D01*
X203209546Y-65180261D01*
X203054902Y-65149500D01*
X203054899Y-65149500D01*
X202897215Y-65149500D01*
X202897212Y-65149500D01*
X202742567Y-65180261D01*
X202742555Y-65180264D01*
X202596884Y-65240602D01*
X202596871Y-65240609D01*
X202465768Y-65328210D01*
X202465764Y-65328213D01*
X202354270Y-65439707D01*
X202354267Y-65439711D01*
X202266666Y-65570814D01*
X202266659Y-65570827D01*
X202206321Y-65716498D01*
X202206318Y-65716510D01*
X202175557Y-65871153D01*
X193169152Y-65871153D01*
X193177246Y-65846243D01*
X193210500Y-65636287D01*
X193210500Y-65547004D01*
X193230185Y-65479965D01*
X193282989Y-65434210D01*
X193352147Y-65424266D01*
X193403391Y-65443902D01*
X193407709Y-65446787D01*
X193407711Y-65446789D01*
X193538821Y-65534394D01*
X193538823Y-65534395D01*
X193538827Y-65534397D01*
X193684498Y-65594735D01*
X193684503Y-65594737D01*
X193839153Y-65625499D01*
X193839156Y-65625500D01*
X193839158Y-65625500D01*
X193996844Y-65625500D01*
X193996845Y-65625499D01*
X194151497Y-65594737D01*
X194297179Y-65534394D01*
X194428289Y-65446789D01*
X194539789Y-65335289D01*
X194627394Y-65204179D01*
X194633302Y-65189917D01*
X194687735Y-65058501D01*
X194687737Y-65058497D01*
X194718500Y-64903842D01*
X194718500Y-64746158D01*
X194718500Y-64746155D01*
X194718499Y-64746153D01*
X194715534Y-64731247D01*
X194687737Y-64591503D01*
X194687735Y-64591498D01*
X194655628Y-64513983D01*
X194648159Y-64444514D01*
X194679435Y-64382035D01*
X194739524Y-64346383D01*
X194809349Y-64348877D01*
X194839081Y-64363430D01*
X194871548Y-64385124D01*
X194871550Y-64385125D01*
X194871556Y-64385129D01*
X194871558Y-64385130D01*
X194871562Y-64385132D01*
X194977169Y-64428875D01*
X195017238Y-64445472D01*
X195171888Y-64476234D01*
X195171891Y-64476235D01*
X195171893Y-64476235D01*
X195329579Y-64476235D01*
X195329580Y-64476234D01*
X195484232Y-64445472D01*
X195629914Y-64385129D01*
X195761024Y-64297524D01*
X195872524Y-64186024D01*
X195960129Y-64054914D01*
X196020472Y-63909232D01*
X196051235Y-63754577D01*
X196051235Y-63596893D01*
X196051235Y-63596890D01*
X196051234Y-63596888D01*
X196045501Y-63568065D01*
X196020472Y-63442238D01*
X196018281Y-63436948D01*
X195960132Y-63296562D01*
X195960125Y-63296549D01*
X195872524Y-63165446D01*
X195872521Y-63165442D01*
X195761027Y-63053948D01*
X195761023Y-63053945D01*
X195648755Y-62978929D01*
X196925500Y-62978929D01*
X196925500Y-63136622D01*
X196956261Y-63291265D01*
X196956264Y-63291277D01*
X197016602Y-63436948D01*
X197016609Y-63436961D01*
X197104210Y-63568064D01*
X197104213Y-63568068D01*
X197215707Y-63679562D01*
X197215711Y-63679565D01*
X197346814Y-63767166D01*
X197346827Y-63767173D01*
X197454404Y-63811732D01*
X197492503Y-63827513D01*
X197647153Y-63858275D01*
X197647156Y-63858276D01*
X197647158Y-63858276D01*
X197804844Y-63858276D01*
X197804845Y-63858275D01*
X197959497Y-63827513D01*
X198079168Y-63777944D01*
X198105172Y-63767173D01*
X198105172Y-63767172D01*
X198105179Y-63767170D01*
X198236289Y-63679565D01*
X198347789Y-63568065D01*
X198435394Y-63436955D01*
X198495737Y-63291273D01*
X198526500Y-63136618D01*
X198526500Y-62978934D01*
X198526500Y-62978931D01*
X198526499Y-62978929D01*
X198511992Y-62905998D01*
X198495737Y-62824279D01*
X198476458Y-62777735D01*
X198435397Y-62678603D01*
X198435390Y-62678590D01*
X198347789Y-62547487D01*
X198347786Y-62547483D01*
X198236292Y-62435989D01*
X198236288Y-62435986D01*
X198105185Y-62348385D01*
X198105172Y-62348378D01*
X197959501Y-62288040D01*
X197959489Y-62288037D01*
X197804845Y-62257276D01*
X197804842Y-62257276D01*
X197647158Y-62257276D01*
X197647155Y-62257276D01*
X197492510Y-62288037D01*
X197492498Y-62288040D01*
X197346827Y-62348378D01*
X197346814Y-62348385D01*
X197215711Y-62435986D01*
X197215707Y-62435989D01*
X197104213Y-62547483D01*
X197104210Y-62547487D01*
X197016609Y-62678590D01*
X197016602Y-62678603D01*
X196956264Y-62824274D01*
X196956261Y-62824286D01*
X196925500Y-62978929D01*
X195648755Y-62978929D01*
X195629920Y-62966344D01*
X195629907Y-62966337D01*
X195484236Y-62905999D01*
X195484224Y-62905996D01*
X195329580Y-62875235D01*
X195329577Y-62875235D01*
X195171893Y-62875235D01*
X195171890Y-62875235D01*
X195017245Y-62905996D01*
X195017233Y-62905999D01*
X194871562Y-62966337D01*
X194871549Y-62966344D01*
X194740446Y-63053945D01*
X194740442Y-63053948D01*
X194628948Y-63165442D01*
X194628945Y-63165446D01*
X194541344Y-63296549D01*
X194541337Y-63296562D01*
X194480999Y-63442233D01*
X194480996Y-63442245D01*
X194450235Y-63596888D01*
X194450235Y-63754581D01*
X194480996Y-63909224D01*
X194480998Y-63909231D01*
X194513107Y-63986752D01*
X194520575Y-64056221D01*
X194489299Y-64118700D01*
X194429210Y-64154352D01*
X194359384Y-64151857D01*
X194329656Y-64137306D01*
X194297179Y-64115606D01*
X194297172Y-64115602D01*
X194151501Y-64055264D01*
X194151491Y-64055261D01*
X194127967Y-64050582D01*
X194066056Y-64018196D01*
X194031482Y-63957480D01*
X194035223Y-63887711D01*
X194037598Y-63881512D01*
X194066502Y-63811732D01*
X194097265Y-63657077D01*
X194097265Y-63499393D01*
X194097265Y-63499390D01*
X194097264Y-63499388D01*
X194066503Y-63344745D01*
X194066502Y-63344738D01*
X194050557Y-63306243D01*
X194006162Y-63199062D01*
X194006155Y-63199049D01*
X193918554Y-63067946D01*
X193918551Y-63067942D01*
X193807057Y-62956448D01*
X193807053Y-62956445D01*
X193675950Y-62868844D01*
X193675937Y-62868837D01*
X193530266Y-62808499D01*
X193530254Y-62808496D01*
X193375610Y-62777735D01*
X193375607Y-62777735D01*
X193299620Y-62777735D01*
X193232581Y-62758050D01*
X193186826Y-62705246D01*
X193178738Y-62678411D01*
X193178384Y-62678497D01*
X193177246Y-62673760D01*
X193177246Y-62673757D01*
X193111557Y-62471588D01*
X193015051Y-62282184D01*
X193015049Y-62282181D01*
X193015048Y-62282179D01*
X192890109Y-62110213D01*
X192739786Y-61959890D01*
X192567817Y-61834949D01*
X192558504Y-61830204D01*
X192507707Y-61782230D01*
X192490912Y-61714409D01*
X192513449Y-61648274D01*
X192558507Y-61609232D01*
X192567555Y-61604622D01*
X192621716Y-61565270D01*
X192621717Y-61565270D01*
X192302599Y-61246153D01*
X193399500Y-61246153D01*
X193399500Y-61403846D01*
X193430261Y-61558489D01*
X193430264Y-61558501D01*
X193490602Y-61704172D01*
X193490609Y-61704185D01*
X193578210Y-61835288D01*
X193578213Y-61835292D01*
X193689707Y-61946786D01*
X193689711Y-61946789D01*
X193820814Y-62034390D01*
X193820827Y-62034397D01*
X193938225Y-62083024D01*
X193966503Y-62094737D01*
X194121153Y-62125499D01*
X194121156Y-62125500D01*
X194121158Y-62125500D01*
X194278844Y-62125500D01*
X194278845Y-62125499D01*
X194433497Y-62094737D01*
X194579179Y-62034394D01*
X194710289Y-61946789D01*
X194821789Y-61835289D01*
X194864954Y-61770688D01*
X199196786Y-61770688D01*
X199196786Y-61928381D01*
X199227547Y-62083024D01*
X199227550Y-62083036D01*
X199287888Y-62228707D01*
X199287895Y-62228720D01*
X199375496Y-62359823D01*
X199375499Y-62359827D01*
X199486993Y-62471321D01*
X199486997Y-62471324D01*
X199618100Y-62558925D01*
X199618113Y-62558932D01*
X199763784Y-62619270D01*
X199763789Y-62619272D01*
X199895399Y-62645451D01*
X199918439Y-62650034D01*
X199918442Y-62650035D01*
X199918444Y-62650035D01*
X200076130Y-62650035D01*
X200076131Y-62650034D01*
X200230783Y-62619272D01*
X200313268Y-62585106D01*
X200318017Y-62583139D01*
X200387486Y-62575670D01*
X200412921Y-62583139D01*
X200500158Y-62619273D01*
X200563363Y-62645453D01*
X200705656Y-62673757D01*
X200718013Y-62676215D01*
X200718016Y-62676216D01*
X200718018Y-62676216D01*
X200875704Y-62676216D01*
X200875705Y-62676215D01*
X201030357Y-62645453D01*
X201176039Y-62585110D01*
X201307149Y-62497505D01*
X201418649Y-62386005D01*
X201506254Y-62254895D01*
X201566597Y-62109213D01*
X201597360Y-61954558D01*
X201597360Y-61796874D01*
X201597360Y-61796871D01*
X201597359Y-61796869D01*
X201583069Y-61725029D01*
X201566597Y-61642219D01*
X201565471Y-61639500D01*
X201506257Y-61496543D01*
X201506250Y-61496530D01*
X201418649Y-61365427D01*
X201418646Y-61365423D01*
X201307152Y-61253929D01*
X201307148Y-61253926D01*
X201176045Y-61166325D01*
X201176032Y-61166318D01*
X201030361Y-61105980D01*
X201030349Y-61105977D01*
X200875705Y-61075216D01*
X200875702Y-61075216D01*
X200718018Y-61075216D01*
X200718015Y-61075216D01*
X200563370Y-61105977D01*
X200563358Y-61105980D01*
X200476128Y-61142112D01*
X200406659Y-61149581D01*
X200381224Y-61142112D01*
X200230787Y-61079799D01*
X200230775Y-61079796D01*
X200076131Y-61049035D01*
X200076128Y-61049035D01*
X199918444Y-61049035D01*
X199918441Y-61049035D01*
X199763796Y-61079796D01*
X199763784Y-61079799D01*
X199618113Y-61140137D01*
X199618100Y-61140144D01*
X199486997Y-61227745D01*
X199486993Y-61227748D01*
X199375499Y-61339242D01*
X199375496Y-61339246D01*
X199287895Y-61470349D01*
X199287888Y-61470362D01*
X199227550Y-61616033D01*
X199227547Y-61616045D01*
X199196786Y-61770688D01*
X194864954Y-61770688D01*
X194909394Y-61704179D01*
X194969737Y-61558497D01*
X195000500Y-61403842D01*
X195000500Y-61246158D01*
X195000500Y-61246155D01*
X195000499Y-61246153D01*
X194984790Y-61167179D01*
X194969737Y-61091503D01*
X194959250Y-61066185D01*
X194909397Y-60945827D01*
X194909390Y-60945814D01*
X194821789Y-60814711D01*
X194821786Y-60814707D01*
X194710292Y-60703213D01*
X194710288Y-60703210D01*
X194579185Y-60615609D01*
X194579172Y-60615602D01*
X194433501Y-60555264D01*
X194433489Y-60555261D01*
X194278845Y-60524500D01*
X194278842Y-60524500D01*
X194121158Y-60524500D01*
X194121155Y-60524500D01*
X193966510Y-60555261D01*
X193966498Y-60555264D01*
X193820827Y-60615602D01*
X193820814Y-60615609D01*
X193689711Y-60703210D01*
X193689707Y-60703213D01*
X193578213Y-60814707D01*
X193578210Y-60814711D01*
X193490609Y-60945814D01*
X193490602Y-60945827D01*
X193430264Y-61091498D01*
X193430261Y-61091510D01*
X193399500Y-61246153D01*
X192302599Y-61246153D01*
X191989408Y-60932962D01*
X192052993Y-60915925D01*
X192167007Y-60850099D01*
X192260099Y-60757007D01*
X192325925Y-60642993D01*
X192342962Y-60579408D01*
X192975270Y-61211717D01*
X192975270Y-61211716D01*
X193007629Y-61167180D01*
X193007629Y-61167179D01*
X193014622Y-61157555D01*
X193111095Y-60968217D01*
X193176757Y-60766130D01*
X193176757Y-60766127D01*
X193210000Y-60556246D01*
X193210000Y-60343753D01*
X193176757Y-60133872D01*
X193176757Y-60133869D01*
X193111095Y-59931782D01*
X193014624Y-59742449D01*
X192975270Y-59688282D01*
X192975269Y-59688282D01*
X192342962Y-60320590D01*
X192325925Y-60257007D01*
X192260099Y-60142993D01*
X192167007Y-60049901D01*
X192052993Y-59984075D01*
X191989409Y-59967037D01*
X192560292Y-59396153D01*
X193974500Y-59396153D01*
X193974500Y-59553846D01*
X194005261Y-59708489D01*
X194005264Y-59708501D01*
X194065602Y-59854172D01*
X194065609Y-59854185D01*
X194153210Y-59985288D01*
X194153213Y-59985292D01*
X194264707Y-60096786D01*
X194264711Y-60096789D01*
X194395814Y-60184390D01*
X194395827Y-60184397D01*
X194541498Y-60244735D01*
X194541503Y-60244737D01*
X194696153Y-60275499D01*
X194696156Y-60275500D01*
X194696158Y-60275500D01*
X194853844Y-60275500D01*
X194853845Y-60275499D01*
X195008497Y-60244737D01*
X195121166Y-60198067D01*
X195154172Y-60184397D01*
X195154172Y-60184396D01*
X195154179Y-60184394D01*
X195216140Y-60142993D01*
X195237109Y-60128982D01*
X195303786Y-60108104D01*
X195371166Y-60126588D01*
X195417857Y-60178567D01*
X195430000Y-60232084D01*
X195430000Y-60278495D01*
X195468427Y-60471681D01*
X195468430Y-60471693D01*
X195543807Y-60653671D01*
X195543814Y-60653684D01*
X195653248Y-60817462D01*
X195653251Y-60817466D01*
X195792533Y-60956748D01*
X195792537Y-60956751D01*
X195956315Y-61066185D01*
X195956328Y-61066192D01*
X196138308Y-61141569D01*
X196180000Y-61149862D01*
X196180000Y-60346988D01*
X196189940Y-60364205D01*
X196245795Y-60420060D01*
X196314204Y-60459556D01*
X196390504Y-60480000D01*
X196469496Y-60480000D01*
X196545796Y-60459556D01*
X196614205Y-60420060D01*
X196670060Y-60364205D01*
X196680000Y-60346988D01*
X196680000Y-61149862D01*
X196721690Y-61141569D01*
X196721692Y-61141569D01*
X196903671Y-61066192D01*
X196903684Y-61066185D01*
X197067462Y-60956751D01*
X197067466Y-60956748D01*
X197206748Y-60817466D01*
X197206751Y-60817462D01*
X197316185Y-60653684D01*
X197316192Y-60653671D01*
X197391569Y-60471693D01*
X197391572Y-60471681D01*
X197429999Y-60278495D01*
X197430000Y-60278492D01*
X197430000Y-59880000D01*
X196730000Y-59880000D01*
X196730000Y-59380000D01*
X197373753Y-59380000D01*
X197440792Y-59399685D01*
X197461434Y-59416319D01*
X197549616Y-59504501D01*
X197664884Y-59571051D01*
X197793450Y-59605500D01*
X197793452Y-59605500D01*
X197926548Y-59605500D01*
X197926550Y-59605500D01*
X198055116Y-59571051D01*
X198170384Y-59504501D01*
X198264501Y-59410384D01*
X198331051Y-59295116D01*
X198365500Y-59166550D01*
X198365500Y-59033450D01*
X203134500Y-59033450D01*
X203134500Y-59166550D01*
X203168949Y-59295116D01*
X203235499Y-59410384D01*
X203329616Y-59504501D01*
X203444884Y-59571051D01*
X203573450Y-59605500D01*
X203573452Y-59605500D01*
X203706548Y-59605500D01*
X203706550Y-59605500D01*
X203835116Y-59571051D01*
X203950384Y-59504501D01*
X204038566Y-59416319D01*
X204099889Y-59382834D01*
X204126247Y-59380000D01*
X204770000Y-59380000D01*
X204770000Y-59880000D01*
X204070000Y-59880000D01*
X204070000Y-60278495D01*
X204108427Y-60471681D01*
X204108430Y-60471693D01*
X204183807Y-60653671D01*
X204183814Y-60653684D01*
X204293248Y-60817462D01*
X204293251Y-60817466D01*
X204432533Y-60956748D01*
X204432537Y-60956751D01*
X204596315Y-61066185D01*
X204596328Y-61066192D01*
X204778308Y-61141569D01*
X204820000Y-61149862D01*
X204820000Y-60346988D01*
X204829940Y-60364205D01*
X204885795Y-60420060D01*
X204954204Y-60459556D01*
X205030504Y-60480000D01*
X205109496Y-60480000D01*
X205185796Y-60459556D01*
X205243364Y-60426319D01*
X205224500Y-60521153D01*
X205224500Y-60678846D01*
X205255261Y-60833489D01*
X205255264Y-60833501D01*
X205310561Y-60967000D01*
X205320000Y-61014452D01*
X205320000Y-61149862D01*
X205357407Y-61142422D01*
X205426999Y-61148649D01*
X205469281Y-61176359D01*
X205514707Y-61221786D01*
X205514711Y-61221789D01*
X205645814Y-61309390D01*
X205645827Y-61309397D01*
X205791498Y-61369735D01*
X205791503Y-61369737D01*
X205946153Y-61400499D01*
X205946156Y-61400500D01*
X205946158Y-61400500D01*
X206103844Y-61400500D01*
X206103845Y-61400499D01*
X206258497Y-61369737D01*
X206404179Y-61309394D01*
X206535289Y-61221789D01*
X206646789Y-61110289D01*
X206734394Y-60979179D01*
X206794737Y-60833497D01*
X206825500Y-60678842D01*
X206825500Y-60521158D01*
X206825500Y-60521155D01*
X206794738Y-60366508D01*
X206794737Y-60366507D01*
X206794737Y-60366503D01*
X206785314Y-60343753D01*
X206734397Y-60220827D01*
X206734390Y-60220814D01*
X206646789Y-60089711D01*
X206646786Y-60089707D01*
X206535292Y-59978213D01*
X206535288Y-59978210D01*
X206404185Y-59890609D01*
X206404172Y-59890602D01*
X206258501Y-59830264D01*
X206258489Y-59830261D01*
X206103845Y-59799500D01*
X206103842Y-59799500D01*
X205946158Y-59799500D01*
X205946155Y-59799500D01*
X205791511Y-59830260D01*
X205791501Y-59830263D01*
X205694214Y-59870561D01*
X205646762Y-59880000D01*
X205370000Y-59880000D01*
X205370000Y-59380000D01*
X206070000Y-59380000D01*
X206070000Y-58981508D01*
X206069999Y-58981504D01*
X206031572Y-58788318D01*
X206031569Y-58788306D01*
X205956192Y-58606328D01*
X205956185Y-58606315D01*
X205846751Y-58442537D01*
X205846748Y-58442533D01*
X205707466Y-58303251D01*
X205707462Y-58303248D01*
X205543684Y-58193814D01*
X205543671Y-58193807D01*
X205361691Y-58118429D01*
X205361683Y-58118427D01*
X205320000Y-58110135D01*
X205320000Y-58913011D01*
X205310060Y-58895795D01*
X205254205Y-58839940D01*
X205185796Y-58800444D01*
X205109496Y-58780000D01*
X205030504Y-58780000D01*
X204954204Y-58800444D01*
X204885795Y-58839940D01*
X204829940Y-58895795D01*
X204820000Y-58913011D01*
X204820000Y-58110136D01*
X204819999Y-58110135D01*
X204778316Y-58118427D01*
X204778308Y-58118429D01*
X204596328Y-58193807D01*
X204596315Y-58193814D01*
X204432537Y-58303248D01*
X204432533Y-58303251D01*
X204293251Y-58442533D01*
X204293248Y-58442537D01*
X204183814Y-58606315D01*
X204183809Y-58606325D01*
X204160340Y-58662985D01*
X204116499Y-58717388D01*
X204050204Y-58739453D01*
X203982505Y-58722174D01*
X203958098Y-58703213D01*
X203950386Y-58695501D01*
X203950384Y-58695499D01*
X203835116Y-58628949D01*
X203706550Y-58594500D01*
X203573450Y-58594500D01*
X203444884Y-58628949D01*
X203444881Y-58628950D01*
X203329619Y-58695497D01*
X203329613Y-58695501D01*
X203235501Y-58789613D01*
X203235497Y-58789619D01*
X203168950Y-58904881D01*
X203168949Y-58904884D01*
X203134500Y-59033450D01*
X198365500Y-59033450D01*
X198331051Y-58904884D01*
X198264501Y-58789616D01*
X198170384Y-58695499D01*
X198055116Y-58628949D01*
X197926550Y-58594500D01*
X197793450Y-58594500D01*
X197664884Y-58628949D01*
X197664881Y-58628950D01*
X197549619Y-58695497D01*
X197549611Y-58695503D01*
X197541898Y-58703216D01*
X197480574Y-58736699D01*
X197410882Y-58731712D01*
X197354950Y-58689839D01*
X197339658Y-58662984D01*
X197316187Y-58606319D01*
X197316185Y-58606315D01*
X197206751Y-58442537D01*
X197206748Y-58442533D01*
X197067466Y-58303251D01*
X197067462Y-58303248D01*
X196903684Y-58193814D01*
X196903671Y-58193807D01*
X196721691Y-58118429D01*
X196721683Y-58118427D01*
X196680000Y-58110135D01*
X196680000Y-58913011D01*
X196670060Y-58895795D01*
X196614205Y-58839940D01*
X196545796Y-58800444D01*
X196469496Y-58780000D01*
X196390504Y-58780000D01*
X196314204Y-58800444D01*
X196245795Y-58839940D01*
X196189940Y-58895795D01*
X196180000Y-58913011D01*
X196180000Y-58110136D01*
X196179999Y-58110135D01*
X196138316Y-58118427D01*
X196138308Y-58118429D01*
X195956328Y-58193807D01*
X195956315Y-58193814D01*
X195792537Y-58303248D01*
X195792533Y-58303251D01*
X195653251Y-58442533D01*
X195653248Y-58442537D01*
X195543814Y-58606315D01*
X195543807Y-58606328D01*
X195466098Y-58793938D01*
X195463856Y-58793009D01*
X195431379Y-58842508D01*
X195367551Y-58870929D01*
X195298490Y-58860330D01*
X195282177Y-58851131D01*
X195154185Y-58765609D01*
X195154172Y-58765602D01*
X195008501Y-58705264D01*
X195008489Y-58705261D01*
X194853845Y-58674500D01*
X194853842Y-58674500D01*
X194696158Y-58674500D01*
X194696155Y-58674500D01*
X194541510Y-58705261D01*
X194541498Y-58705264D01*
X194395827Y-58765602D01*
X194395814Y-58765609D01*
X194264711Y-58853210D01*
X194264707Y-58853213D01*
X194153213Y-58964707D01*
X194153210Y-58964711D01*
X194065609Y-59095814D01*
X194065602Y-59095827D01*
X194005264Y-59241498D01*
X194005261Y-59241510D01*
X193974500Y-59396153D01*
X192560292Y-59396153D01*
X192585336Y-59371109D01*
X192508709Y-59244475D01*
X192508448Y-59243489D01*
X192507706Y-59242788D01*
X192499537Y-59209799D01*
X192490843Y-59176928D01*
X192491157Y-59175956D01*
X192490912Y-59174966D01*
X192501876Y-59142793D01*
X192512333Y-59110445D01*
X192513121Y-59109798D01*
X192513451Y-59108832D01*
X192558508Y-59069793D01*
X192567816Y-59065051D01*
X192682804Y-58981508D01*
X192739786Y-58940109D01*
X192739788Y-58940106D01*
X192739792Y-58940104D01*
X192890104Y-58789792D01*
X192890106Y-58789788D01*
X192890109Y-58789786D01*
X193015048Y-58617820D01*
X193015047Y-58617820D01*
X193015051Y-58617816D01*
X193111557Y-58428412D01*
X193177246Y-58226243D01*
X193210500Y-58016287D01*
X193210500Y-57803713D01*
X193177246Y-57593757D01*
X193111557Y-57391588D01*
X193015051Y-57202184D01*
X193015049Y-57202181D01*
X193015048Y-57202179D01*
X192890109Y-57030213D01*
X192776569Y-56916673D01*
X192743084Y-56855350D01*
X192748068Y-56785658D01*
X192789940Y-56729725D01*
X192820915Y-56712810D01*
X192952331Y-56663796D01*
X193067546Y-56577546D01*
X193153796Y-56462331D01*
X193204091Y-56327483D01*
X193210500Y-56267873D01*
X193210499Y-55200000D01*
X193210499Y-54472129D01*
X193210498Y-54472123D01*
X193208212Y-54450858D01*
X193206804Y-54437753D01*
X193219211Y-54368994D01*
X193266822Y-54317857D01*
X193330094Y-54300500D01*
X195565923Y-54300500D01*
X195632962Y-54320185D01*
G37*
%TD.AperFunction*%
%TA.AperFunction,Conductor*%
G36*
X200284075Y-103582993D02*
G01*
X200349901Y-103697007D01*
X200442993Y-103790099D01*
X200557007Y-103855925D01*
X200620590Y-103872962D01*
X199988282Y-104505269D01*
X199992768Y-104562259D01*
X199992264Y-104562298D01*
X199995515Y-104600119D01*
X199962912Y-104661916D01*
X199902075Y-104696276D01*
X199873983Y-104699500D01*
X199588946Y-104699500D01*
X199521907Y-104679815D01*
X199476152Y-104627011D01*
X199466208Y-104557853D01*
X199489679Y-104501189D01*
X199494838Y-104494297D01*
X199503796Y-104482331D01*
X199554091Y-104347483D01*
X199560500Y-104287873D01*
X199560499Y-104277312D01*
X199580179Y-104210275D01*
X199596818Y-104189626D01*
X200267037Y-103519408D01*
X200284075Y-103582993D01*
G37*
%TD.AperFunction*%
%TA.AperFunction,Conductor*%
G36*
X201865270Y-104151717D02*
G01*
X201865270Y-104151716D01*
X201904622Y-104097555D01*
X201909232Y-104088507D01*
X201957205Y-104037709D01*
X202025025Y-104020912D01*
X202091161Y-104043447D01*
X202130204Y-104088504D01*
X202134949Y-104097817D01*
X202259890Y-104269786D01*
X202410207Y-104420103D01*
X202486016Y-104475181D01*
X202528682Y-104530511D01*
X202534661Y-104600124D01*
X202502056Y-104661920D01*
X202441217Y-104696277D01*
X202413131Y-104699500D01*
X201626016Y-104699500D01*
X201558977Y-104679815D01*
X201513222Y-104627011D01*
X201503278Y-104557853D01*
X201508474Y-104546474D01*
X201511717Y-104505270D01*
X200879408Y-103872962D01*
X200942993Y-103855925D01*
X201057007Y-103790099D01*
X201150099Y-103697007D01*
X201215925Y-103582993D01*
X201232962Y-103519409D01*
X201865270Y-104151717D01*
G37*
%TD.AperFunction*%
%TA.AperFunction,Conductor*%
G36*
X210755270Y-99311717D02*
G01*
X210812259Y-99307232D01*
X210812298Y-99307734D01*
X210850123Y-99304485D01*
X210911919Y-99337090D01*
X210946277Y-99397929D01*
X210949500Y-99426016D01*
X210949500Y-100213130D01*
X210929815Y-100280169D01*
X210877011Y-100325924D01*
X210807853Y-100335868D01*
X210744297Y-100306843D01*
X210725182Y-100286015D01*
X210670109Y-100210214D01*
X210670105Y-100210209D01*
X210519786Y-100059890D01*
X210347817Y-99934949D01*
X210338504Y-99930204D01*
X210287707Y-99882230D01*
X210270912Y-99814409D01*
X210293449Y-99748274D01*
X210338507Y-99709232D01*
X210347555Y-99704622D01*
X210401716Y-99665270D01*
X210401717Y-99665270D01*
X209769408Y-99032962D01*
X209832993Y-99015925D01*
X209947007Y-98950099D01*
X210040099Y-98857007D01*
X210105925Y-98742993D01*
X210122962Y-98679408D01*
X210755270Y-99311717D01*
G37*
%TD.AperFunction*%
%TA.AperFunction,Conductor*%
G36*
X191394075Y-98742993D02*
G01*
X191459901Y-98857007D01*
X191552993Y-98950099D01*
X191667007Y-99015925D01*
X191730590Y-99032962D01*
X191098282Y-99665269D01*
X191098282Y-99665270D01*
X191152452Y-99704626D01*
X191152451Y-99704626D01*
X191161495Y-99709234D01*
X191212292Y-99757208D01*
X191229087Y-99825029D01*
X191206550Y-99891164D01*
X191161499Y-99930202D01*
X191152182Y-99934949D01*
X190980213Y-100059890D01*
X190829894Y-100210209D01*
X190829890Y-100210214D01*
X190774818Y-100286015D01*
X190719488Y-100328681D01*
X190649875Y-100334660D01*
X190588080Y-100302054D01*
X190553723Y-100241216D01*
X190550500Y-100213130D01*
X190550500Y-99426017D01*
X190570185Y-99358978D01*
X190622989Y-99313223D01*
X190692147Y-99303279D01*
X190703520Y-99308473D01*
X190744728Y-99311716D01*
X191377037Y-98679408D01*
X191394075Y-98742993D01*
G37*
%TD.AperFunction*%
%TA.AperFunction,Conductor*%
G36*
X190755703Y-96793156D02*
G01*
X190774819Y-96813984D01*
X190829896Y-96889792D01*
X190980213Y-97040109D01*
X191152179Y-97165048D01*
X191152181Y-97165049D01*
X191152184Y-97165051D01*
X191161493Y-97169794D01*
X191212290Y-97217766D01*
X191229087Y-97285587D01*
X191206552Y-97351722D01*
X191161505Y-97390760D01*
X191152446Y-97395376D01*
X191152440Y-97395380D01*
X191098282Y-97434727D01*
X191098282Y-97434728D01*
X191730591Y-98067037D01*
X191667007Y-98084075D01*
X191552993Y-98149901D01*
X191459901Y-98242993D01*
X191394075Y-98357007D01*
X191377037Y-98420591D01*
X190744728Y-97788282D01*
X190687739Y-97792768D01*
X190687699Y-97792260D01*
X190649866Y-97795507D01*
X190588073Y-97762897D01*
X190553721Y-97702056D01*
X190550500Y-97673979D01*
X190550500Y-96886869D01*
X190570185Y-96819830D01*
X190622989Y-96774075D01*
X190692147Y-96764131D01*
X190755703Y-96793156D01*
G37*
%TD.AperFunction*%
%TA.AperFunction,Conductor*%
G36*
X210911920Y-96797944D02*
G01*
X210946277Y-96858783D01*
X210949500Y-96886869D01*
X210949500Y-97673982D01*
X210929815Y-97741021D01*
X210877011Y-97786776D01*
X210807853Y-97796720D01*
X210796479Y-97791526D01*
X210755269Y-97788282D01*
X210122962Y-98420590D01*
X210105925Y-98357007D01*
X210040099Y-98242993D01*
X209947007Y-98149901D01*
X209832993Y-98084075D01*
X209769409Y-98067037D01*
X210401716Y-97434728D01*
X210347547Y-97395373D01*
X210347547Y-97395372D01*
X210338500Y-97390763D01*
X210287706Y-97342788D01*
X210270912Y-97274966D01*
X210293451Y-97208832D01*
X210338508Y-97169793D01*
X210347816Y-97165051D01*
X210427007Y-97107515D01*
X210519786Y-97040109D01*
X210519788Y-97040106D01*
X210519792Y-97040104D01*
X210670104Y-96889792D01*
X210725181Y-96813983D01*
X210780511Y-96771318D01*
X210850124Y-96765339D01*
X210911920Y-96797944D01*
G37*
%TD.AperFunction*%
%TA.AperFunction,Conductor*%
G36*
X210755270Y-86611717D02*
G01*
X210812259Y-86607232D01*
X210812298Y-86607734D01*
X210850123Y-86604485D01*
X210911919Y-86637090D01*
X210946277Y-86697929D01*
X210949500Y-86726016D01*
X210949500Y-87513130D01*
X210929815Y-87580169D01*
X210877011Y-87625924D01*
X210807853Y-87635868D01*
X210744297Y-87606843D01*
X210725182Y-87586015D01*
X210670109Y-87510214D01*
X210670105Y-87510209D01*
X210519786Y-87359890D01*
X210347817Y-87234949D01*
X210338504Y-87230204D01*
X210287707Y-87182230D01*
X210270912Y-87114409D01*
X210293449Y-87048274D01*
X210338507Y-87009232D01*
X210347555Y-87004622D01*
X210401716Y-86965270D01*
X210401717Y-86965270D01*
X209769408Y-86332962D01*
X209832993Y-86315925D01*
X209947007Y-86250099D01*
X210040099Y-86157007D01*
X210105925Y-86042993D01*
X210122962Y-85979408D01*
X210755270Y-86611717D01*
G37*
%TD.AperFunction*%
%TA.AperFunction,Conductor*%
G36*
X191394075Y-86042993D02*
G01*
X191459901Y-86157007D01*
X191552993Y-86250099D01*
X191667007Y-86315925D01*
X191730590Y-86332962D01*
X191098282Y-86965269D01*
X191098282Y-86965270D01*
X191152452Y-87004626D01*
X191152451Y-87004626D01*
X191161495Y-87009234D01*
X191212292Y-87057208D01*
X191229087Y-87125029D01*
X191206550Y-87191164D01*
X191161499Y-87230202D01*
X191152182Y-87234949D01*
X190980213Y-87359890D01*
X190829894Y-87510209D01*
X190829890Y-87510214D01*
X190774818Y-87586015D01*
X190719488Y-87628681D01*
X190649875Y-87634660D01*
X190588080Y-87602054D01*
X190553723Y-87541216D01*
X190550500Y-87513130D01*
X190550500Y-86726017D01*
X190570185Y-86658978D01*
X190622989Y-86613223D01*
X190692147Y-86603279D01*
X190703520Y-86608473D01*
X190744728Y-86611716D01*
X191377037Y-85979408D01*
X191394075Y-86042993D01*
G37*
%TD.AperFunction*%
%TA.AperFunction,Conductor*%
G36*
X190755703Y-84093156D02*
G01*
X190774817Y-84113982D01*
X190813395Y-84167080D01*
X190829896Y-84189792D01*
X190980213Y-84340109D01*
X191152179Y-84465048D01*
X191152181Y-84465049D01*
X191152184Y-84465051D01*
X191161493Y-84469794D01*
X191212290Y-84517766D01*
X191229087Y-84585587D01*
X191206552Y-84651722D01*
X191161505Y-84690760D01*
X191152446Y-84695376D01*
X191152440Y-84695380D01*
X191098282Y-84734727D01*
X191098282Y-84734728D01*
X191730591Y-85367037D01*
X191667007Y-85384075D01*
X191552993Y-85449901D01*
X191459901Y-85542993D01*
X191394075Y-85657007D01*
X191377037Y-85720591D01*
X190744728Y-85088282D01*
X190687739Y-85092768D01*
X190687699Y-85092260D01*
X190649866Y-85095507D01*
X190588073Y-85062897D01*
X190553721Y-85002056D01*
X190550500Y-84973979D01*
X190550500Y-84186869D01*
X190570185Y-84119830D01*
X190622989Y-84074075D01*
X190692147Y-84064131D01*
X190755703Y-84093156D01*
G37*
%TD.AperFunction*%
%TA.AperFunction,Conductor*%
G36*
X210911920Y-84097944D02*
G01*
X210946277Y-84158783D01*
X210949500Y-84186869D01*
X210949500Y-84973982D01*
X210929815Y-85041021D01*
X210877011Y-85086776D01*
X210807853Y-85096720D01*
X210796479Y-85091526D01*
X210755269Y-85088282D01*
X210122962Y-85720590D01*
X210105925Y-85657007D01*
X210040099Y-85542993D01*
X209947007Y-85449901D01*
X209832993Y-85384075D01*
X209769409Y-85367037D01*
X210401716Y-84734728D01*
X210347547Y-84695373D01*
X210347547Y-84695372D01*
X210338500Y-84690763D01*
X210287706Y-84642788D01*
X210270912Y-84574966D01*
X210293451Y-84508832D01*
X210338508Y-84469793D01*
X210347816Y-84465051D01*
X210427007Y-84407515D01*
X210519786Y-84340109D01*
X210519788Y-84340106D01*
X210519792Y-84340104D01*
X210670104Y-84189792D01*
X210725181Y-84113983D01*
X210780511Y-84071318D01*
X210850124Y-84065339D01*
X210911920Y-84097944D01*
G37*
%TD.AperFunction*%
%TA.AperFunction,Conductor*%
G36*
X210755270Y-73911717D02*
G01*
X210812259Y-73907232D01*
X210812298Y-73907734D01*
X210850123Y-73904485D01*
X210911919Y-73937090D01*
X210946277Y-73997929D01*
X210949500Y-74026016D01*
X210949500Y-74813130D01*
X210929815Y-74880169D01*
X210877011Y-74925924D01*
X210807853Y-74935868D01*
X210744297Y-74906843D01*
X210725182Y-74886015D01*
X210670109Y-74810214D01*
X210670105Y-74810209D01*
X210519786Y-74659890D01*
X210347817Y-74534949D01*
X210338504Y-74530204D01*
X210287707Y-74482230D01*
X210270912Y-74414409D01*
X210293449Y-74348274D01*
X210338507Y-74309232D01*
X210347555Y-74304622D01*
X210401716Y-74265270D01*
X210401717Y-74265270D01*
X209769408Y-73632962D01*
X209832993Y-73615925D01*
X209947007Y-73550099D01*
X210040099Y-73457007D01*
X210105925Y-73342993D01*
X210122962Y-73279408D01*
X210755270Y-73911717D01*
G37*
%TD.AperFunction*%
%TA.AperFunction,Conductor*%
G36*
X191394075Y-73342993D02*
G01*
X191459901Y-73457007D01*
X191552993Y-73550099D01*
X191667007Y-73615925D01*
X191730590Y-73632962D01*
X191098282Y-74265269D01*
X191098282Y-74265270D01*
X191152452Y-74304626D01*
X191152451Y-74304626D01*
X191161495Y-74309234D01*
X191212292Y-74357208D01*
X191229087Y-74425029D01*
X191206550Y-74491164D01*
X191161499Y-74530202D01*
X191152182Y-74534949D01*
X190980213Y-74659890D01*
X190829894Y-74810209D01*
X190829890Y-74810214D01*
X190774818Y-74886015D01*
X190719488Y-74928681D01*
X190649875Y-74934660D01*
X190588080Y-74902054D01*
X190553723Y-74841216D01*
X190550500Y-74813130D01*
X190550500Y-74026017D01*
X190570185Y-73958978D01*
X190622989Y-73913223D01*
X190692147Y-73903279D01*
X190703520Y-73908473D01*
X190744728Y-73911716D01*
X191377037Y-73279408D01*
X191394075Y-73342993D01*
G37*
%TD.AperFunction*%
%TA.AperFunction,Conductor*%
G36*
X190755703Y-71393156D02*
G01*
X190774819Y-71413984D01*
X190829896Y-71489792D01*
X190980213Y-71640109D01*
X191152179Y-71765048D01*
X191152181Y-71765049D01*
X191152184Y-71765051D01*
X191161493Y-71769794D01*
X191212290Y-71817766D01*
X191229087Y-71885587D01*
X191206552Y-71951722D01*
X191161505Y-71990760D01*
X191152446Y-71995376D01*
X191152440Y-71995380D01*
X191098282Y-72034727D01*
X191098282Y-72034728D01*
X191730591Y-72667037D01*
X191667007Y-72684075D01*
X191552993Y-72749901D01*
X191459901Y-72842993D01*
X191394075Y-72957007D01*
X191377037Y-73020591D01*
X190744728Y-72388282D01*
X190687739Y-72392768D01*
X190687699Y-72392260D01*
X190649866Y-72395507D01*
X190588073Y-72362897D01*
X190553721Y-72302056D01*
X190550500Y-72273979D01*
X190550500Y-71486869D01*
X190570185Y-71419830D01*
X190622989Y-71374075D01*
X190692147Y-71364131D01*
X190755703Y-71393156D01*
G37*
%TD.AperFunction*%
%TA.AperFunction,Conductor*%
G36*
X210911920Y-71397944D02*
G01*
X210946277Y-71458783D01*
X210949500Y-71486869D01*
X210949500Y-72273982D01*
X210929815Y-72341021D01*
X210877011Y-72386776D01*
X210807853Y-72396720D01*
X210796479Y-72391526D01*
X210755269Y-72388282D01*
X210122962Y-73020590D01*
X210105925Y-72957007D01*
X210040099Y-72842993D01*
X209947007Y-72749901D01*
X209832993Y-72684075D01*
X209769409Y-72667037D01*
X210401716Y-72034728D01*
X210347547Y-71995373D01*
X210347547Y-71995372D01*
X210338500Y-71990763D01*
X210287706Y-71942788D01*
X210270912Y-71874966D01*
X210293451Y-71808832D01*
X210338508Y-71769793D01*
X210347816Y-71765051D01*
X210464516Y-71680264D01*
X210519786Y-71640109D01*
X210519788Y-71640106D01*
X210519792Y-71640104D01*
X210670104Y-71489792D01*
X210725181Y-71413983D01*
X210780511Y-71371318D01*
X210850124Y-71365339D01*
X210911920Y-71397944D01*
G37*
%TD.AperFunction*%
%TA.AperFunction,Conductor*%
G36*
X210755270Y-61211717D02*
G01*
X210812259Y-61207232D01*
X210812298Y-61207734D01*
X210850123Y-61204485D01*
X210911919Y-61237090D01*
X210946277Y-61297929D01*
X210949500Y-61326016D01*
X210949500Y-62113130D01*
X210929815Y-62180169D01*
X210877011Y-62225924D01*
X210807853Y-62235868D01*
X210744297Y-62206843D01*
X210725182Y-62186015D01*
X210670109Y-62110214D01*
X210670105Y-62110209D01*
X210519786Y-61959890D01*
X210347817Y-61834949D01*
X210338504Y-61830204D01*
X210287707Y-61782230D01*
X210270912Y-61714409D01*
X210293449Y-61648274D01*
X210338507Y-61609232D01*
X210347555Y-61604622D01*
X210401716Y-61565270D01*
X210401717Y-61565270D01*
X209769408Y-60932962D01*
X209832993Y-60915925D01*
X209947007Y-60850099D01*
X210040099Y-60757007D01*
X210105925Y-60642993D01*
X210122962Y-60579408D01*
X210755270Y-61211717D01*
G37*
%TD.AperFunction*%
%TA.AperFunction,Conductor*%
G36*
X191394075Y-60642993D02*
G01*
X191459901Y-60757007D01*
X191552993Y-60850099D01*
X191667007Y-60915925D01*
X191730590Y-60932962D01*
X191098282Y-61565269D01*
X191098282Y-61565270D01*
X191152452Y-61604626D01*
X191152451Y-61604626D01*
X191161495Y-61609234D01*
X191212292Y-61657208D01*
X191229087Y-61725029D01*
X191206550Y-61791164D01*
X191161499Y-61830202D01*
X191152182Y-61834949D01*
X190980213Y-61959890D01*
X190829894Y-62110209D01*
X190829890Y-62110214D01*
X190774818Y-62186015D01*
X190719488Y-62228681D01*
X190649875Y-62234660D01*
X190588080Y-62202054D01*
X190553723Y-62141216D01*
X190550500Y-62113130D01*
X190550500Y-61326017D01*
X190570185Y-61258978D01*
X190622989Y-61213223D01*
X190692147Y-61203279D01*
X190703520Y-61208473D01*
X190744728Y-61211716D01*
X191377037Y-60579408D01*
X191394075Y-60642993D01*
G37*
%TD.AperFunction*%
%TA.AperFunction,Conductor*%
G36*
X190755703Y-58693156D02*
G01*
X190774819Y-58713984D01*
X190829896Y-58789792D01*
X190980213Y-58940109D01*
X191152179Y-59065048D01*
X191152181Y-59065049D01*
X191152184Y-59065051D01*
X191161493Y-59069794D01*
X191212290Y-59117766D01*
X191229087Y-59185587D01*
X191206552Y-59251722D01*
X191161505Y-59290760D01*
X191152446Y-59295376D01*
X191152440Y-59295380D01*
X191098282Y-59334727D01*
X191098282Y-59334728D01*
X191730591Y-59967037D01*
X191667007Y-59984075D01*
X191552993Y-60049901D01*
X191459901Y-60142993D01*
X191394075Y-60257007D01*
X191377037Y-60320590D01*
X190744728Y-59688282D01*
X190687739Y-59692768D01*
X190687699Y-59692260D01*
X190649866Y-59695507D01*
X190588073Y-59662897D01*
X190553721Y-59602056D01*
X190550500Y-59573979D01*
X190550500Y-58786869D01*
X190570185Y-58719830D01*
X190622989Y-58674075D01*
X190692147Y-58664131D01*
X190755703Y-58693156D01*
G37*
%TD.AperFunction*%
%TA.AperFunction,Conductor*%
G36*
X210911920Y-58697944D02*
G01*
X210946277Y-58758783D01*
X210949500Y-58786869D01*
X210949500Y-59573982D01*
X210929815Y-59641021D01*
X210877011Y-59686776D01*
X210807853Y-59696720D01*
X210796479Y-59691526D01*
X210755269Y-59688282D01*
X210122962Y-60320590D01*
X210105925Y-60257007D01*
X210040099Y-60142993D01*
X209947007Y-60049901D01*
X209832993Y-59984075D01*
X209769409Y-59967037D01*
X210401716Y-59334728D01*
X210347547Y-59295373D01*
X210347547Y-59295372D01*
X210338500Y-59290763D01*
X210287706Y-59242788D01*
X210270912Y-59174966D01*
X210293451Y-59108832D01*
X210338508Y-59069793D01*
X210347816Y-59065051D01*
X210462804Y-58981508D01*
X210519786Y-58940109D01*
X210519788Y-58940106D01*
X210519792Y-58940104D01*
X210670104Y-58789792D01*
X210725181Y-58713983D01*
X210780511Y-58671318D01*
X210850124Y-58665339D01*
X210911920Y-58697944D01*
G37*
%TD.AperFunction*%
%TD*%
M02*
