%TF.GenerationSoftware,KiCad,Pcbnew,9.0.6*%
%TF.CreationDate,2026-01-01T23:14:18-05:00*%
%TF.ProjectId,rp2040 better,72703230-3430-4206-9265-747465722e6b,rev?*%
%TF.SameCoordinates,Original*%
%TF.FileFunction,Soldermask,Bot*%
%TF.FilePolarity,Negative*%
%FSLAX46Y46*%
G04 Gerber Fmt 4.6, Leading zero omitted, Abs format (unit mm)*
G04 Created by KiCad (PCBNEW 9.0.6) date 2026-01-01 23:14:18*
%MOMM*%
%LPD*%
G01*
G04 APERTURE LIST*
G04 Aperture macros list*
%AMRoundRect*
0 Rectangle with rounded corners*
0 $1 Rounding radius*
0 $2 $3 $4 $5 $6 $7 $8 $9 X,Y pos of 4 corners*
0 Add a 4 corners polygon primitive as box body*
4,1,4,$2,$3,$4,$5,$6,$7,$8,$9,$2,$3,0*
0 Add four circle primitives for the rounded corners*
1,1,$1+$1,$2,$3*
1,1,$1+$1,$4,$5*
1,1,$1+$1,$6,$7*
1,1,$1+$1,$8,$9*
0 Add four rect primitives between the rounded corners*
20,1,$1+$1,$2,$3,$4,$5,0*
20,1,$1+$1,$4,$5,$6,$7,0*
20,1,$1+$1,$6,$7,$8,$9,0*
20,1,$1+$1,$8,$9,$2,$3,0*%
G04 Aperture macros list end*
%ADD10O,1.000000X1.600000*%
%ADD11O,1.000000X2.100000*%
%ADD12C,0.650000*%
%ADD13C,1.700000*%
%ADD14R,1.700000X1.700000*%
%ADD15O,1.200000X1.750000*%
%ADD16RoundRect,0.250000X-0.350000X-0.625000X0.350000X-0.625000X0.350000X0.625000X-0.350000X0.625000X0*%
G04 APERTURE END LIST*
D10*
%TO.C,J1*%
X196430000Y-55450000D03*
D11*
X196430000Y-59630000D03*
D10*
X205070000Y-55450000D03*
D11*
X205070000Y-59630000D03*
D12*
X197860000Y-59100000D03*
X203640000Y-59100000D03*
%TD*%
D13*
%TO.C,J3*%
X191860000Y-103630000D03*
X191860000Y-101090000D03*
X191860000Y-98550000D03*
X191860000Y-96010000D03*
X191860000Y-93470000D03*
X191860000Y-90930000D03*
X191860000Y-88390000D03*
X191860000Y-85850000D03*
X191860000Y-83310000D03*
X191860000Y-80770000D03*
X191860000Y-78230000D03*
X191860000Y-75690000D03*
X191860000Y-73150000D03*
X191860000Y-70610000D03*
X191860000Y-68070000D03*
X191860000Y-65530000D03*
X191860000Y-62990000D03*
X191860000Y-60450000D03*
X191860000Y-57910000D03*
D14*
X191860000Y-55370000D03*
%TD*%
D13*
%TO.C,J4*%
X209640000Y-103630000D03*
X209640000Y-101090000D03*
X209640000Y-98550000D03*
X209640000Y-96010000D03*
X209640000Y-93470000D03*
X209640000Y-90930000D03*
X209640000Y-88390000D03*
X209640000Y-85850000D03*
X209640000Y-83310000D03*
X209640000Y-80770000D03*
X209640000Y-78230000D03*
X209640000Y-75690000D03*
X209640000Y-73150000D03*
X209640000Y-70610000D03*
X209640000Y-68070000D03*
X209640000Y-65530000D03*
X209640000Y-62990000D03*
X209640000Y-60450000D03*
X209640000Y-57910000D03*
D14*
X209640000Y-55370000D03*
%TD*%
D15*
%TO.C,J2*%
X201700000Y-97550000D03*
D16*
X199700000Y-97550000D03*
%TD*%
D13*
%TO.C,J5*%
X203290000Y-103390000D03*
X200750000Y-103390000D03*
D14*
X198210000Y-103390000D03*
%TD*%
M02*
