%TF.GenerationSoftware,KiCad,Pcbnew,9.0.6*%
%TF.CreationDate,2026-01-01T23:14:18-05:00*%
%TF.ProjectId,rp2040 better,72703230-3430-4206-9265-747465722e6b,rev?*%
%TF.SameCoordinates,Original*%
%TF.FileFunction,Soldermask,Top*%
%TF.FilePolarity,Negative*%
%FSLAX46Y46*%
G04 Gerber Fmt 4.6, Leading zero omitted, Abs format (unit mm)*
G04 Created by KiCad (PCBNEW 9.0.6) date 2026-01-01 23:14:18*
%MOMM*%
%LPD*%
G01*
G04 APERTURE LIST*
G04 Aperture macros list*
%AMRoundRect*
0 Rectangle with rounded corners*
0 $1 Rounding radius*
0 $2 $3 $4 $5 $6 $7 $8 $9 X,Y pos of 4 corners*
0 Add a 4 corners polygon primitive as box body*
4,1,4,$2,$3,$4,$5,$6,$7,$8,$9,$2,$3,0*
0 Add four circle primitives for the rounded corners*
1,1,$1+$1,$2,$3*
1,1,$1+$1,$4,$5*
1,1,$1+$1,$6,$7*
1,1,$1+$1,$8,$9*
0 Add four rect primitives between the rounded corners*
20,1,$1+$1,$2,$3,$4,$5,0*
20,1,$1+$1,$4,$5,$6,$7,0*
20,1,$1+$1,$6,$7,$8,$9,0*
20,1,$1+$1,$8,$9,$2,$3,0*%
G04 Aperture macros list end*
%ADD10RoundRect,0.062500X-0.350000X-0.062500X0.350000X-0.062500X0.350000X0.062500X-0.350000X0.062500X0*%
%ADD11RoundRect,0.062500X-0.062500X-0.350000X0.062500X-0.350000X0.062500X0.350000X-0.062500X0.350000X0*%
%ADD12R,2.500000X2.500000*%
%ADD13RoundRect,0.140000X-0.140000X-0.170000X0.140000X-0.170000X0.140000X0.170000X-0.140000X0.170000X0*%
%ADD14RoundRect,0.100000X-0.130000X-0.100000X0.130000X-0.100000X0.130000X0.100000X-0.130000X0.100000X0*%
%ADD15RoundRect,0.100000X0.100000X-0.130000X0.100000X0.130000X-0.100000X0.130000X-0.100000X-0.130000X0*%
%ADD16RoundRect,0.100000X0.130000X0.100000X-0.130000X0.100000X-0.130000X-0.100000X0.130000X-0.100000X0*%
%ADD17RoundRect,0.100000X-0.100000X0.130000X-0.100000X-0.130000X0.100000X-0.130000X0.100000X0.130000X0*%
%ADD18O,1.000000X1.600000*%
%ADD19O,1.000000X2.100000*%
%ADD20R,0.600000X1.450000*%
%ADD21R,0.300000X1.450000*%
%ADD22C,0.650000*%
%ADD23R,3.200000X3.200000*%
%ADD24RoundRect,0.050000X-0.050000X-0.387500X0.050000X-0.387500X0.050000X0.387500X-0.050000X0.387500X0*%
%ADD25RoundRect,0.050000X-0.387500X-0.050000X0.387500X-0.050000X0.387500X0.050000X-0.387500X0.050000X0*%
%ADD26C,1.700000*%
%ADD27R,1.700000X1.700000*%
%ADD28O,1.200000X1.750000*%
%ADD29RoundRect,0.250000X-0.350000X-0.625000X0.350000X-0.625000X0.350000X0.625000X-0.350000X0.625000X0*%
%ADD30RoundRect,0.125000X0.125000X-0.475000X0.125000X0.475000X-0.125000X0.475000X-0.125000X-0.475000X0*%
%ADD31RoundRect,0.200000X0.200000X0.800000X-0.200000X0.800000X-0.200000X-0.800000X0.200000X-0.800000X0*%
%ADD32RoundRect,0.150000X-0.512500X-0.150000X0.512500X-0.150000X0.512500X0.150000X-0.512500X0.150000X0*%
%ADD33RoundRect,0.162500X-0.650000X-0.162500X0.650000X-0.162500X0.650000X0.162500X-0.650000X0.162500X0*%
%ADD34RoundRect,0.250000X0.450000X0.350000X-0.450000X0.350000X-0.450000X-0.350000X0.450000X-0.350000X0*%
%ADD35RoundRect,0.075000X0.075000X-0.350000X0.075000X0.350000X-0.075000X0.350000X-0.075000X-0.350000X0*%
%ADD36RoundRect,0.075000X-0.350000X-0.075000X0.350000X-0.075000X0.350000X0.075000X-0.350000X0.075000X0*%
G04 APERTURE END LIST*
D10*
%TO.C,U4*%
X202362500Y-88437500D03*
X202362500Y-88937500D03*
X202362500Y-89437500D03*
X202362500Y-89937500D03*
X202362500Y-90437500D03*
D11*
X203300000Y-91375000D03*
X203800000Y-91375000D03*
X204300000Y-91375000D03*
X204800000Y-91375000D03*
X205300000Y-91375000D03*
D10*
X206237500Y-90437500D03*
X206237500Y-89937500D03*
X206237500Y-89437500D03*
X206237500Y-88937500D03*
X206237500Y-88437500D03*
D11*
X205300000Y-87500000D03*
X204800000Y-87500000D03*
X204300000Y-87500000D03*
X203800000Y-87500000D03*
X203300000Y-87500000D03*
D12*
X204300000Y-89437500D03*
%TD*%
D13*
%TO.C,C22*%
X194330000Y-95130000D03*
X195290000Y-95130000D03*
%TD*%
%TO.C,C17*%
X204530000Y-92530000D03*
X205490000Y-92530000D03*
%TD*%
D14*
%TO.C,C1*%
X205500000Y-77400000D03*
X206140000Y-77400000D03*
%TD*%
%TO.C,C2*%
X205500000Y-78325000D03*
X206140000Y-78325000D03*
%TD*%
%TO.C,C3*%
X205500000Y-79250000D03*
X206140000Y-79250000D03*
%TD*%
%TO.C,C4*%
X205500000Y-80175000D03*
X206140000Y-80175000D03*
%TD*%
%TO.C,C5*%
X205500000Y-81100000D03*
X206140000Y-81100000D03*
%TD*%
%TO.C,C6*%
X205500000Y-82025000D03*
X206140000Y-82025000D03*
%TD*%
%TO.C,C7*%
X205500000Y-82950000D03*
X206140000Y-82950000D03*
%TD*%
%TO.C,C8*%
X205500000Y-83875000D03*
X206140000Y-83875000D03*
%TD*%
%TO.C,C9*%
X205500000Y-84800000D03*
X206140000Y-84800000D03*
%TD*%
%TO.C,C10*%
X205460000Y-73650000D03*
X206100000Y-73650000D03*
%TD*%
%TO.C,C11*%
X205460000Y-74575000D03*
X206100000Y-74575000D03*
%TD*%
%TO.C,C12*%
X205460000Y-75500000D03*
X206100000Y-75500000D03*
%TD*%
D15*
%TO.C,C13*%
X206425000Y-62995000D03*
X206425000Y-62355000D03*
%TD*%
D16*
%TO.C,C14*%
X202245000Y-65875000D03*
X201605000Y-65875000D03*
%TD*%
D15*
%TO.C,C15*%
X206900000Y-87030000D03*
X206900000Y-87670000D03*
%TD*%
D14*
%TO.C,C16*%
X203945000Y-86475000D03*
X203305000Y-86475000D03*
%TD*%
D15*
%TO.C,C18*%
X199075000Y-87520000D03*
X199075000Y-86880000D03*
%TD*%
D17*
%TO.C,C19*%
X199100000Y-88705000D03*
X199100000Y-89345000D03*
%TD*%
D15*
%TO.C,C20*%
X204025000Y-71745000D03*
X204025000Y-71105000D03*
%TD*%
D14*
%TO.C,C21*%
X194535000Y-95955000D03*
X195175000Y-95955000D03*
%TD*%
D17*
%TO.C,C23*%
X196525000Y-95255000D03*
X196525000Y-95895000D03*
%TD*%
D14*
%TO.C,C24*%
X199005000Y-63075000D03*
X199645000Y-63075000D03*
%TD*%
D16*
%TO.C,C25*%
X198820000Y-69475000D03*
X198180000Y-69475000D03*
%TD*%
D14*
%TO.C,C26*%
X196355000Y-69475000D03*
X196995000Y-69475000D03*
%TD*%
D18*
%TO.C,J1*%
X196430000Y-55450000D03*
D19*
X196430000Y-59630000D03*
D18*
X205070000Y-55450000D03*
D19*
X205070000Y-59630000D03*
D20*
X204000000Y-60545000D03*
X203200000Y-60545000D03*
D21*
X202500000Y-60545000D03*
X201500000Y-60545000D03*
X200000000Y-60545000D03*
X199000000Y-60545000D03*
D20*
X198300000Y-60545000D03*
X197500000Y-60545000D03*
X197500000Y-60545000D03*
X198300000Y-60545000D03*
D21*
X199500000Y-60545000D03*
X200500000Y-60545000D03*
X201000000Y-60545000D03*
X202000000Y-60545000D03*
D20*
X203200000Y-60545000D03*
X204000000Y-60545000D03*
D22*
X197860000Y-59100000D03*
X203640000Y-59100000D03*
%TD*%
D16*
%TO.C,R1*%
X195920000Y-62250000D03*
X195280000Y-62250000D03*
%TD*%
%TO.C,R2*%
X197795000Y-62250000D03*
X197155000Y-62250000D03*
%TD*%
D17*
%TO.C,R3*%
X207600000Y-89730000D03*
X207600000Y-90370000D03*
%TD*%
D16*
%TO.C,R4*%
X207145000Y-92650000D03*
X206505000Y-92650000D03*
%TD*%
%TO.C,R5*%
X199395000Y-77100000D03*
X198755000Y-77100000D03*
%TD*%
%TO.C,R6*%
X201270000Y-77100000D03*
X200630000Y-77100000D03*
%TD*%
D15*
%TO.C,R7*%
X200050000Y-87545000D03*
X200050000Y-86905000D03*
%TD*%
%TO.C,R8*%
X201425000Y-67595000D03*
X201425000Y-66955000D03*
%TD*%
D16*
%TO.C,R9*%
X194505000Y-70025000D03*
X195145000Y-70025000D03*
%TD*%
D23*
%TO.C,U1*%
X198762500Y-81700000D03*
D24*
X196162500Y-78262500D03*
X196562500Y-78262500D03*
X196962500Y-78262500D03*
X197362500Y-78262500D03*
X197762500Y-78262500D03*
X198162500Y-78262500D03*
X198562500Y-78262500D03*
X198962500Y-78262500D03*
X199362500Y-78262500D03*
X199762500Y-78262500D03*
X200162500Y-78262500D03*
X200562500Y-78262500D03*
X200962500Y-78262500D03*
X201362500Y-78262500D03*
D25*
X202200000Y-79100000D03*
X202200000Y-79500000D03*
X202200000Y-79900000D03*
X202200000Y-80300000D03*
X202200000Y-80700000D03*
X202200000Y-81100000D03*
X202200000Y-81500000D03*
X202200000Y-81900000D03*
X202200000Y-82300000D03*
X202200000Y-82700000D03*
X202200000Y-83100000D03*
X202200000Y-83500000D03*
X202200000Y-83900000D03*
X202200000Y-84300000D03*
D24*
X201362500Y-85137500D03*
X200962500Y-85137500D03*
X200562500Y-85137500D03*
X200162500Y-85137500D03*
X199762500Y-85137500D03*
X199362500Y-85137500D03*
X198962500Y-85137500D03*
X198562500Y-85137500D03*
X198162500Y-85137500D03*
X197762500Y-85137500D03*
X197362500Y-85137500D03*
X196962500Y-85137500D03*
X196562500Y-85137500D03*
X196162500Y-85137500D03*
D25*
X195325000Y-84300000D03*
X195325000Y-83900000D03*
X195325000Y-83500000D03*
X195325000Y-83100000D03*
X195325000Y-82700000D03*
X195325000Y-82300000D03*
X195325000Y-81900000D03*
X195325000Y-81500000D03*
X195325000Y-81100000D03*
X195325000Y-80700000D03*
X195325000Y-80300000D03*
X195325000Y-79900000D03*
X195325000Y-79500000D03*
X195325000Y-79100000D03*
%TD*%
D26*
%TO.C,J3*%
X191860000Y-103630000D03*
X191860000Y-101090000D03*
X191860000Y-98550000D03*
X191860000Y-96010000D03*
X191860000Y-93470000D03*
X191860000Y-90930000D03*
X191860000Y-88390000D03*
X191860000Y-85850000D03*
X191860000Y-83310000D03*
X191860000Y-80770000D03*
X191860000Y-78230000D03*
X191860000Y-75690000D03*
X191860000Y-73150000D03*
X191860000Y-70610000D03*
X191860000Y-68070000D03*
X191860000Y-65530000D03*
X191860000Y-62990000D03*
X191860000Y-60450000D03*
X191860000Y-57910000D03*
D27*
X191860000Y-55370000D03*
%TD*%
D26*
%TO.C,J4*%
X209640000Y-103630000D03*
X209640000Y-101090000D03*
X209640000Y-98550000D03*
X209640000Y-96010000D03*
X209640000Y-93470000D03*
X209640000Y-90930000D03*
X209640000Y-88390000D03*
X209640000Y-85850000D03*
X209640000Y-83310000D03*
X209640000Y-80770000D03*
X209640000Y-78230000D03*
X209640000Y-75690000D03*
X209640000Y-73150000D03*
X209640000Y-70610000D03*
X209640000Y-68070000D03*
X209640000Y-65530000D03*
X209640000Y-62990000D03*
X209640000Y-60450000D03*
X209640000Y-57910000D03*
D27*
X209640000Y-55370000D03*
%TD*%
D28*
%TO.C,J2*%
X201700000Y-97550000D03*
D29*
X199700000Y-97550000D03*
%TD*%
D30*
%TO.C,U3*%
X195400000Y-91500000D03*
X196650000Y-91500000D03*
X197900000Y-91500000D03*
X199150000Y-91500000D03*
X199150000Y-93800000D03*
X197900000Y-93800000D03*
X196650000Y-93800000D03*
X195400000Y-93800000D03*
%TD*%
D31*
%TO.C,SW1*%
X202600000Y-68200000D03*
X206800000Y-68200000D03*
%TD*%
D32*
%TO.C,U5*%
X205037500Y-62950000D03*
X205037500Y-64850000D03*
X202762500Y-64850000D03*
X202762500Y-63900000D03*
X202762500Y-62950000D03*
%TD*%
D26*
%TO.C,J5*%
X203290000Y-103390000D03*
X200750000Y-103390000D03*
D27*
X198210000Y-103390000D03*
%TD*%
D33*
%TO.C,U6*%
X202487500Y-71095000D03*
X202487500Y-72365000D03*
X202487500Y-73635000D03*
X202487500Y-74905000D03*
X195312500Y-74905000D03*
X195312500Y-73635000D03*
X195312500Y-72365000D03*
X195312500Y-71095000D03*
%TD*%
D34*
%TO.C,Y1*%
X197600000Y-88900000D03*
X195400000Y-88900000D03*
X195400000Y-87200000D03*
X197600000Y-87200000D03*
%TD*%
D35*
%TO.C,U2*%
X196650000Y-64250000D03*
X197150000Y-64250000D03*
X197650000Y-64250000D03*
X198150000Y-64250000D03*
X198650000Y-64250000D03*
X199150000Y-64250000D03*
D36*
X199850000Y-64950000D03*
X199850000Y-65450000D03*
X199850000Y-65950000D03*
X199850000Y-66450000D03*
X199850000Y-66950000D03*
X199850000Y-67450000D03*
D35*
X199150000Y-68150000D03*
X198650000Y-68150000D03*
X198150000Y-68150000D03*
X197650000Y-68150000D03*
X197150000Y-68150000D03*
X196650000Y-68150000D03*
D36*
X195950000Y-67450000D03*
X195950000Y-66950000D03*
X195950000Y-66450000D03*
X195950000Y-65950000D03*
X195950000Y-65450000D03*
X195950000Y-64950000D03*
%TD*%
M02*
