%TF.GenerationSoftware,KiCad,Pcbnew,9.0.6*%
%TF.CreationDate,2026-01-01T23:14:18-05:00*%
%TF.ProjectId,rp2040 better,72703230-3430-4206-9265-747465722e6b,rev?*%
%TF.SameCoordinates,Original*%
%TF.FileFunction,Copper,L2,Inr*%
%TF.FilePolarity,Positive*%
%FSLAX46Y46*%
G04 Gerber Fmt 4.6, Leading zero omitted, Abs format (unit mm)*
G04 Created by KiCad (PCBNEW 9.0.6) date 2026-01-01 23:14:18*
%MOMM*%
%LPD*%
G01*
G04 APERTURE LIST*
G04 Aperture macros list*
%AMRoundRect*
0 Rectangle with rounded corners*
0 $1 Rounding radius*
0 $2 $3 $4 $5 $6 $7 $8 $9 X,Y pos of 4 corners*
0 Add a 4 corners polygon primitive as box body*
4,1,4,$2,$3,$4,$5,$6,$7,$8,$9,$2,$3,0*
0 Add four circle primitives for the rounded corners*
1,1,$1+$1,$2,$3*
1,1,$1+$1,$4,$5*
1,1,$1+$1,$6,$7*
1,1,$1+$1,$8,$9*
0 Add four rect primitives between the rounded corners*
20,1,$1+$1,$2,$3,$4,$5,0*
20,1,$1+$1,$4,$5,$6,$7,0*
20,1,$1+$1,$6,$7,$8,$9,0*
20,1,$1+$1,$8,$9,$2,$3,0*%
G04 Aperture macros list end*
%TA.AperFunction,HeatsinkPad*%
%ADD10O,1.000000X1.600000*%
%TD*%
%TA.AperFunction,HeatsinkPad*%
%ADD11O,1.000000X2.100000*%
%TD*%
%TA.AperFunction,ComponentPad*%
%ADD12C,1.700000*%
%TD*%
%TA.AperFunction,ComponentPad*%
%ADD13R,1.700000X1.700000*%
%TD*%
%TA.AperFunction,ComponentPad*%
%ADD14O,1.200000X1.750000*%
%TD*%
%TA.AperFunction,ComponentPad*%
%ADD15RoundRect,0.250000X-0.350000X-0.625000X0.350000X-0.625000X0.350000X0.625000X-0.350000X0.625000X0*%
%TD*%
%TA.AperFunction,ViaPad*%
%ADD16C,0.600000*%
%TD*%
%TA.AperFunction,Conductor*%
%ADD17C,0.200000*%
%TD*%
G04 APERTURE END LIST*
D10*
%TO.N,GND*%
%TO.C,J1*%
X196430000Y-55450000D03*
D11*
X196430000Y-59630000D03*
D10*
X205070000Y-55450000D03*
D11*
X205070000Y-59630000D03*
%TD*%
D12*
%TO.N,GPIO15*%
%TO.C,J3*%
X191860000Y-103630000D03*
%TO.N,GPIO14*%
X191860000Y-101090000D03*
%TO.N,GND*%
X191860000Y-98550000D03*
%TO.N,GPIO13*%
X191860000Y-96010000D03*
%TO.N,GPIO12*%
X191860000Y-93470000D03*
%TO.N,GPIO11*%
X191860000Y-90930000D03*
%TO.N,GPIO10*%
X191860000Y-88390000D03*
%TO.N,GND*%
X191860000Y-85850000D03*
%TO.N,GPIO9*%
X191860000Y-83310000D03*
%TO.N,GPIO8*%
X191860000Y-80770000D03*
%TO.N,GPIO7*%
X191860000Y-78230000D03*
%TO.N,GPIO6*%
X191860000Y-75690000D03*
%TO.N,GND*%
X191860000Y-73150000D03*
%TO.N,GPIO5*%
X191860000Y-70610000D03*
%TO.N,GPIO4*%
X191860000Y-68070000D03*
%TO.N,GPIO3*%
X191860000Y-65530000D03*
%TO.N,GPIO2*%
X191860000Y-62990000D03*
%TO.N,GND*%
X191860000Y-60450000D03*
%TO.N,GPIO1*%
X191860000Y-57910000D03*
D13*
%TO.N,GPIO0*%
X191860000Y-55370000D03*
%TD*%
D12*
%TO.N,GPIO16*%
%TO.C,J4*%
X209640000Y-103630000D03*
%TO.N,GPIO17*%
X209640000Y-101090000D03*
%TO.N,GND*%
X209640000Y-98550000D03*
%TO.N,GPIO18*%
X209640000Y-96010000D03*
%TO.N,GPIO19*%
X209640000Y-93470000D03*
%TO.N,GPIO20*%
X209640000Y-90930000D03*
%TO.N,GPIO21*%
X209640000Y-88390000D03*
%TO.N,GND*%
X209640000Y-85850000D03*
%TO.N,GPIO22*%
X209640000Y-83310000D03*
%TO.N,RUN*%
X209640000Y-80770000D03*
%TO.N,GPIO23*%
X209640000Y-78230000D03*
%TO.N,GPIO24*%
X209640000Y-75690000D03*
%TO.N,GND*%
X209640000Y-73150000D03*
%TO.N,GPIO26_ADC0*%
X209640000Y-70610000D03*
%TO.N,GPIO27_ADC1*%
X209640000Y-68070000D03*
%TO.N,+3V3*%
X209640000Y-65530000D03*
%TO.N,GPIO28_ADC2*%
X209640000Y-62990000D03*
%TO.N,GND*%
X209640000Y-60450000D03*
%TO.N,GPIO29_ADC3*%
X209640000Y-57910000D03*
D13*
%TO.N,VBUS*%
X209640000Y-55370000D03*
%TD*%
D14*
%TO.N,GND*%
%TO.C,J2*%
X201700000Y-97550000D03*
D15*
%TO.N,Net-(J2-Pin_1)*%
X199700000Y-97550000D03*
%TD*%
D12*
%TO.N,SWD*%
%TO.C,J5*%
X203290000Y-103390000D03*
%TO.N,GND*%
X200750000Y-103390000D03*
D13*
%TO.N,SWCLK*%
X198210000Y-103390000D03*
%TD*%
D16*
%TO.N,+3V3*%
X204745050Y-84453166D03*
X200894966Y-87275000D03*
%TO.N,GPIO23*%
X206800000Y-94975000D03*
X205125000Y-94900000D03*
%TO.N,+1V1*%
X199250000Y-83975000D03*
X198637500Y-79537500D03*
%TO.N,GND*%
X194553999Y-87936637D03*
X196451336Y-89700000D03*
X206050000Y-72750000D03*
X206100000Y-87325000D03*
X207275000Y-91525000D03*
X194250000Y-62425000D03*
X197800000Y-70094000D03*
X195575000Y-76225000D03*
X207000000Y-66025000D03*
X195825000Y-97100000D03*
X201396860Y-63525000D03*
X197700000Y-83875000D03*
X207424091Y-77225000D03*
X202300000Y-92175000D03*
%TO.N,+3V3*%
X195300000Y-78525000D03*
X203600000Y-78175000D03*
X199425000Y-79199000D03*
X193701473Y-82500000D03*
X199167618Y-70283854D03*
X198868153Y-92580929D03*
X198700000Y-72450000D03*
%TO.N,+1V1*%
X202250000Y-78275000D03*
X201199265Y-79200735D03*
%TO.N,BAT_OUT*%
X202456015Y-87881015D03*
X202976057Y-65950000D03*
%TO.N,Net-(J2-Pin_1)*%
X207050000Y-88700000D03*
X200625000Y-95475000D03*
%TO.N,VBUS*%
X204258871Y-87500000D03*
X206575000Y-93500000D03*
X204257871Y-83278859D03*
X201439281Y-89800869D03*
X206025000Y-60600000D03*
%TO.N,USB_D+*%
X198575000Y-76250000D03*
X199997286Y-61849535D03*
%TO.N,USB_D-*%
X201450000Y-76250000D03*
X200796860Y-61875716D03*
%TO.N,GPIO13*%
X196340823Y-83040514D03*
X194383949Y-84900000D03*
%TO.N,GPIO12*%
X195741600Y-85679696D03*
%TO.N,GPIO2*%
X197002826Y-79508993D03*
%TO.N,GPIO5*%
X196366080Y-82240911D03*
X197726000Y-63057776D03*
X194775000Y-59475000D03*
X194200000Y-61325000D03*
X195375000Y-92600000D03*
X193918000Y-64825000D03*
%TO.N,GPIO3*%
X196662501Y-80697848D03*
%TO.N,GPIO15*%
X194574000Y-90400000D03*
X194600000Y-86101000D03*
%TO.N,GPIO1*%
X196258912Y-79214722D03*
%TO.N,GPIO4*%
X196662498Y-81497850D03*
X193296765Y-63578235D03*
X195250735Y-63675735D03*
X198425000Y-90500000D03*
%TO.N,GPIO14*%
X196911764Y-84088236D03*
X194173000Y-89015430D03*
%TO.N,RUN*%
X207125000Y-84850000D03*
X201263000Y-86436000D03*
%TO.N,GPIO26_ADC0*%
X204560000Y-80935776D03*
%TO.N,GPIO27_ADC1*%
X203825000Y-80100000D03*
%TO.N,GPIO29_ADC3*%
X204617539Y-79733640D03*
%TO.N,GPIO24*%
X203126490Y-81325020D03*
X207548000Y-83850000D03*
X207625000Y-81468988D03*
X207756000Y-93375000D03*
%TO.N,GPIO28_ADC2*%
X201092073Y-79993523D03*
X198425000Y-73300000D03*
%TO.N,GPIO18*%
X202636765Y-85088235D03*
X201402000Y-90600000D03*
%TO.N,GPIO22*%
X207950000Y-82200000D03*
X203325000Y-82100000D03*
%TO.N,GPIO23*%
X204530000Y-93380000D03*
X201386169Y-81898586D03*
%TO.N,SWCLK*%
X201282500Y-83062794D03*
X200000000Y-88925000D03*
%TO.N,SWD*%
X203226000Y-85775000D03*
X201075000Y-84100000D03*
%TO.N,QSPI_SCLK*%
X199925000Y-75875000D03*
X197759014Y-79077982D03*
%TO.N,PG*%
X202725000Y-91200000D03*
X200862502Y-81293795D03*
%TO.N,QSPI_SD0*%
X202400000Y-75825000D03*
X199100764Y-74025764D03*
%TO.N,QSPI_SD2*%
X196400000Y-74175000D03*
X197600000Y-73750000D03*
%TD*%
D17*
%TO.N,+3V3*%
X200388224Y-94101000D02*
X198868153Y-92580929D01*
X206823943Y-94101000D02*
X200388224Y-94101000D01*
X207176000Y-93251057D02*
X207176000Y-93748943D01*
X204900000Y-90975057D02*
X207176000Y-93251057D01*
X204900000Y-83071045D02*
X204900000Y-90975057D01*
X204506814Y-82677859D02*
X204900000Y-83071045D01*
X202837169Y-82725000D02*
X203827859Y-82725000D01*
X201987169Y-81875000D02*
X202837169Y-82725000D01*
X203827859Y-82725000D02*
X203875000Y-82677859D01*
X203875000Y-82677859D02*
X204506814Y-82677859D01*
X207176000Y-93748943D02*
X206823943Y-94101000D01*
X201987169Y-79787831D02*
X201987169Y-81875000D01*
X203600000Y-78175000D02*
X201987169Y-79787831D01*
X193024000Y-83177473D02*
X193024000Y-85497608D01*
X193024000Y-85497608D02*
X195175999Y-87649607D01*
X195175999Y-87649607D02*
X195175999Y-89275999D01*
X198480929Y-92580929D02*
X198868153Y-92580929D01*
X195348018Y-78476982D02*
X195300000Y-78525000D01*
X195175999Y-89275999D02*
X198480929Y-92580929D01*
X199425000Y-79199000D02*
X198702982Y-78476982D01*
X193701473Y-82500000D02*
X193024000Y-83177473D01*
X193701473Y-80123527D02*
X193701473Y-82500000D01*
X195300000Y-78525000D02*
X193701473Y-80123527D01*
X198702982Y-78476982D02*
X195348018Y-78476982D01*
%TO.N,BAT_OUT*%
X202976057Y-63204970D02*
X202976057Y-65950000D01*
X196999000Y-64895764D02*
X199396286Y-62498478D01*
X199396286Y-61600592D02*
X199748343Y-61248535D01*
X200261502Y-84136445D02*
X200261502Y-78813441D01*
X197351057Y-74351000D02*
X196999000Y-73998943D01*
X200261502Y-78813441D02*
X197351057Y-75902996D01*
X197351057Y-75902996D02*
X197351057Y-74351000D01*
X199396286Y-62498478D02*
X199396286Y-61600592D01*
X201019622Y-61248535D02*
X202976057Y-63204970D01*
X202456015Y-87881015D02*
X202456015Y-86330958D01*
X199748343Y-61248535D02*
X201019622Y-61248535D01*
X202456015Y-86330958D02*
X200261502Y-84136445D01*
X196999000Y-73998943D02*
X196999000Y-64895764D01*
%TO.N,VBUS*%
X203826000Y-83710730D02*
X204257871Y-83278859D01*
X206575000Y-93500000D02*
X203826000Y-90751000D01*
X202875869Y-89800869D02*
X206575000Y-93500000D01*
X204258871Y-87500000D02*
X203976000Y-87500000D01*
X201439281Y-89800869D02*
X202875869Y-89800869D01*
X203826000Y-87350000D02*
X203826000Y-83710730D01*
X203976000Y-87500000D02*
X203826000Y-87350000D01*
X203826000Y-90751000D02*
X203826000Y-87350000D01*
%TO.N,USB_D+*%
X200000000Y-74575000D02*
X199997286Y-74572286D01*
X198575000Y-76250000D02*
X200000000Y-74825000D01*
X200000000Y-74825000D02*
X200000000Y-74575000D01*
X199997286Y-74145384D02*
X199997286Y-61849535D01*
X199997286Y-74274461D02*
X199997286Y-74145384D01*
X199997286Y-74572286D02*
X199997286Y-74274461D01*
%TO.N,USB_D-*%
X201000000Y-72575000D02*
X201000000Y-71775000D01*
X201036860Y-73920500D02*
X200796860Y-73920500D01*
X200396860Y-74120500D02*
X200396860Y-74320500D01*
X201305307Y-76105307D02*
X201450000Y-76250000D01*
X200975000Y-72600000D02*
X201000000Y-72575000D01*
X201796860Y-73560500D02*
X201796860Y-73680500D01*
X201000000Y-71775000D02*
X200796860Y-71571860D01*
X200796860Y-73920500D02*
X200596860Y-73920500D01*
X200796860Y-74920500D02*
X200796860Y-75596860D01*
X200796860Y-71571860D02*
X200796860Y-61875716D01*
X201556860Y-73920500D02*
X201036860Y-73920500D01*
X200796860Y-75596860D02*
X201305307Y-76105307D01*
X200796860Y-74720500D02*
X200796860Y-74920500D01*
X200796860Y-72778140D02*
X200975000Y-72600000D01*
X200796860Y-73080500D02*
X200796860Y-72778140D01*
X201036860Y-73320500D02*
X201556860Y-73320500D01*
X201556860Y-73320500D02*
G75*
G02*
X201796900Y-73560500I40J-240000D01*
G01*
X201796860Y-73680500D02*
G75*
G02*
X201556860Y-73920460I-239960J0D01*
G01*
X200796860Y-73080500D02*
G75*
G03*
X201036860Y-73320540I240040J0D01*
G01*
X200596860Y-74520500D02*
G75*
G02*
X200796900Y-74720500I40J-200000D01*
G01*
X200596860Y-73920500D02*
G75*
G03*
X200396900Y-74120500I40J-200000D01*
G01*
X200396860Y-74320500D02*
G75*
G03*
X200596860Y-74520540I200040J0D01*
G01*
%TO.N,SWD*%
X202440684Y-85748527D02*
X201075000Y-84382843D01*
X203226000Y-85775000D02*
X203199527Y-85748527D01*
X201075000Y-84382843D02*
X201075000Y-84100000D01*
X203199527Y-85748527D02*
X202440684Y-85748527D01*
%TD*%
M02*
