M48
; DRILL file {KiCad 9.0.6} date 2026-01-01T23:14:20-0500
; FORMAT={-:-/ absolute / metric / decimal}
; #@! TF.CreationDate,2026-01-01T23:14:20-05:00
; #@! TF.GenerationSoftware,Kicad,Pcbnew,9.0.6
; #@! TF.FileFunction,Plated,1,4,PTH
FMAT,2
METRIC
; #@! TA.AperFunction,Plated,PTH,ViaDrill
T1C0.300
; #@! TA.AperFunction,Plated,PTH,ComponentDrill
T2C0.600
; #@! TA.AperFunction,Plated,PTH,ComponentDrill
T3C0.750
; #@! TA.AperFunction,Plated,PTH,ComponentDrill
T4C1.000
%
G90
G05
T1
X193.297Y-63.578
X193.701Y-82.5
X193.918Y-64.825
X194.173Y-89.015
X194.2Y-61.325
X194.25Y-62.425
X194.384Y-84.9
X194.554Y-87.937
X194.574Y-90.4
X194.6Y-86.101
X194.775Y-59.475
X195.251Y-63.676
X195.3Y-78.525
X195.375Y-92.6
X195.575Y-76.225
X195.742Y-85.68
X195.825Y-97.1
X196.259Y-79.215
X196.341Y-83.041
X196.366Y-82.241
X196.4Y-74.175
X196.451Y-89.7
X196.662Y-81.498
X196.663Y-80.698
X196.912Y-84.088
X197.003Y-79.509
X197.6Y-73.75
X197.7Y-83.875
X197.726Y-63.058
X197.759Y-79.078
X197.8Y-70.094
X198.425Y-73.3
X198.425Y-90.5
X198.575Y-76.25
X198.637Y-79.537
X198.7Y-72.45
X198.868Y-92.581
X199.101Y-74.026
X199.168Y-70.284
X199.25Y-83.975
X199.425Y-79.199
X199.925Y-75.875
X199.997Y-61.85
X200.0Y-88.925
X200.625Y-95.475
X200.797Y-61.876
X200.863Y-81.294
X200.895Y-87.275
X201.075Y-84.1
X201.092Y-79.994
X201.199Y-79.201
X201.263Y-86.436
X201.282Y-83.063
X201.386Y-81.899
X201.397Y-63.525
X201.402Y-90.6
X201.439Y-89.801
X201.45Y-76.25
X202.25Y-78.275
X202.3Y-92.175
X202.4Y-75.825
X202.456Y-87.881
X202.637Y-85.088
X202.725Y-91.2
X202.976Y-65.95
X203.126Y-81.325
X203.226Y-85.775
X203.325Y-82.1
X203.6Y-78.175
X203.825Y-80.1
X204.258Y-83.279
X204.259Y-87.5
X204.53Y-93.38
X204.56Y-80.936
X204.618Y-79.734
X204.745Y-84.453
X205.125Y-94.9
X206.025Y-60.6
X206.05Y-72.75
X206.1Y-87.325
X206.575Y-93.5
X206.8Y-94.975
X207.0Y-66.025
X207.05Y-88.7
X207.125Y-84.85
X207.275Y-91.525
X207.424Y-77.225
X207.548Y-83.85
X207.625Y-81.469
X207.756Y-93.375
X207.95Y-82.2
T3
X199.7Y-97.55
X201.7Y-97.55
T4
X191.86Y-55.37
X191.86Y-57.91
X191.86Y-60.45
X191.86Y-62.99
X191.86Y-65.53
X191.86Y-68.07
X191.86Y-70.61
X191.86Y-73.15
X191.86Y-75.69
X191.86Y-78.23
X191.86Y-80.77
X191.86Y-83.31
X191.86Y-85.85
X191.86Y-88.39
X191.86Y-90.93
X191.86Y-93.47
X191.86Y-96.01
X191.86Y-98.55
X191.86Y-101.09
X191.86Y-103.63
X198.21Y-103.39
X200.75Y-103.39
X203.29Y-103.39
X209.64Y-55.37
X209.64Y-57.91
X209.64Y-60.45
X209.64Y-62.99
X209.64Y-65.53
X209.64Y-68.07
X209.64Y-70.61
X209.64Y-73.15
X209.64Y-75.69
X209.64Y-78.23
X209.64Y-80.77
X209.64Y-83.31
X209.64Y-85.85
X209.64Y-88.39
X209.64Y-90.93
X209.64Y-93.47
X209.64Y-96.01
X209.64Y-98.55
X209.64Y-101.09
X209.64Y-103.63
T2
G00X196.43Y-55.75
M15
G01X196.43Y-55.15
M16
G05
G00X196.43Y-60.18
M15
G01X196.43Y-59.08
M16
G05
G00X205.07Y-55.75
M15
G01X205.07Y-55.15
M16
G05
G00X205.07Y-60.18
M15
G01X205.07Y-59.08
M16
G05
M30
